{"glyphs":{"0":{"ha":640,"x_min":60,"x_max":694,"o":"m 672 789 q 691 713 688 751 q 690 635 694 675 q 681 554 685 594 q 672 474 676 514 q 664 393 668 433 q 656 313 660 353 q 640 233 651 271 q 606 158 629 196 q 485 42 560 85 q 328 0 411 0 q 179 42 244 0 q 82 157 114 85 q 63 233 67 196 q 64 313 60 271 q 72 393 68 353 q 81 474 76 433 q 89 554 85 514 q 99 635 93 594 q 114 714 103 676 q 149 789 125 751 q 269 905 196 863 q 426 947 343 947 q 576 905 510 947 q 672 789 642 863 m 424 892 q 384 876 401 892 q 364 836 367 860 q 376 797 361 813 q 413 782 390 782 q 453 797 436 782 q 474 836 471 813 q 462 876 476 860 q 424 892 447 892 m 296 854 q 255 839 272 854 q 235 800 238 824 q 247 760 232 776 q 285 744 261 744 q 324 760 307 744 q 344 800 342 776 q 333 839 347 824 q 296 854 318 854 m 226 738 q 185 722 203 738 q 165 683 168 707 q 177 644 163 660 q 215 628 192 628 q 256 644 239 628 q 276 683 274 660 q 265 722 279 707 q 226 738 250 738 m 213 604 q 172 588 189 604 q 151 549 154 572 q 163 510 149 525 q 201 494 178 494 q 242 510 225 494 q 263 549 260 525 q 251 588 265 572 q 213 604 236 604 m 197 458 q 156 443 174 458 q 136 404 139 428 q 148 365 133 381 q 186 349 163 349 q 227 365 210 349 q 247 404 244 381 q 235 443 250 428 q 197 458 221 458 m 121 269 q 133 231 118 246 q 169 215 147 215 q 210 231 193 215 q 231 269 228 246 q 219 309 233 293 q 181 325 204 325 q 141 309 158 325 q 121 269 124 293 m 219 100 q 260 115 243 100 q 279 154 276 131 q 268 194 282 178 q 231 210 254 210 q 190 194 207 210 q 169 154 172 178 q 181 115 167 131 q 219 100 196 100 m 333 63 q 374 78 357 63 q 394 118 392 94 q 383 157 397 142 q 346 172 369 172 q 305 157 322 172 q 285 118 288 142 q 296 78 282 94 q 333 63 310 63 m 393 251 q 413 280 410 265 q 419 314 417 294 q 424 347 422 331 q 426 381 425 364 l 456 651 q 449 685 457 671 q 426 706 440 699 q 395 710 413 713 q 361 696 378 708 q 341 667 344 682 q 335 633 338 651 q 332 600 333 617 q 328 567 331 583 q 314 431 321 499 q 300 296 307 364 q 306 263 297 276 q 329 242 315 249 q 360 238 343 236 q 393 251 378 239 m 539 854 q 498 839 515 854 q 478 800 481 824 q 490 760 475 776 q 528 744 504 744 q 568 760 551 744 q 588 800 585 776 q 576 839 590 824 q 539 854 563 854 m 463 100 q 503 115 486 100 q 524 154 521 131 q 512 194 526 178 q 474 210 497 210 q 433 194 450 210 q 413 154 415 178 q 424 115 410 131 q 463 100 439 100 m 521 217 q 562 233 544 217 q 582 272 579 249 q 570 312 585 296 q 532 328 556 328 q 491 312 508 328 q 471 272 474 296 q 483 233 468 249 q 521 217 497 217 m 535 356 q 576 372 558 356 q 597 411 594 388 q 585 451 600 435 q 547 467 571 467 q 506 451 524 467 q 486 411 489 435 q 497 372 483 388 q 535 356 511 356 m 550 501 q 592 517 574 501 q 613 556 610 533 q 601 595 615 579 q 563 611 586 611 q 522 595 539 611 q 501 556 504 579 q 513 517 499 533 q 550 501 526 501 m 564 633 q 606 649 588 633 q 626 689 624 665 q 615 727 629 711 q 576 743 600 743 q 535 727 553 743 q 515 689 518 711 q 526 649 513 665 q 564 633 540 633 z "},"1":{"ha":432,"x_min":107,"x_max":488,"o":"m 488 949 l 389 0 l 153 0 l 226 711 l 107 711 l 132 949 l 251 949 l 369 949 l 488 949 m 213 781 q 252 797 235 781 q 272 836 269 813 q 260 875 275 860 q 224 890 246 890 q 183 875 200 890 q 163 836 165 860 q 174 797 160 813 q 213 781 189 781 m 278 74 q 319 90 301 74 q 339 128 336 106 q 327 167 342 151 q 289 183 313 183 q 249 167 265 183 q 229 128 232 151 q 240 90 226 106 q 278 74 254 74 m 293 214 q 334 229 317 214 q 354 268 351 244 q 342 308 357 292 q 304 324 328 324 q 264 308 281 324 q 244 268 247 292 q 256 229 242 244 q 293 214 269 214 m 307 353 q 348 368 331 353 q 368 407 365 383 q 356 447 371 431 q 318 463 342 463 q 278 447 294 463 q 258 407 261 431 q 269 368 256 383 q 307 353 283 353 m 324 503 q 365 518 347 503 q 385 557 382 533 q 373 597 388 581 q 335 613 358 613 q 294 597 311 613 q 275 557 278 581 q 286 518 272 533 q 324 503 300 503 m 338 639 q 378 655 361 639 q 399 693 396 671 q 387 733 401 717 q 349 749 372 749 q 308 733 325 749 q 289 693 292 717 q 300 655 286 671 q 338 639 314 639 m 353 781 q 394 797 376 781 q 414 836 411 813 q 402 875 417 860 q 364 890 388 890 q 324 875 340 890 q 304 836 307 860 q 315 797 301 813 q 353 781 329 781 z "},"2":{"ha":654,"x_min":29,"x_max":694,"o":"m 646 238 l 622 0 l 29 0 l 58 285 l 61 308 q 136 473 75 400 q 289 576 197 546 q 335 588 313 585 q 382 593 358 592 q 428 607 408 593 q 453 649 449 621 q 440 693 457 678 q 401 709 424 708 q 358 695 379 710 q 335 651 338 681 l 97 651 q 142 785 106 726 q 231 883 178 844 q 347 938 283 921 q 470 946 410 954 q 582 902 531 938 q 665 801 633 867 q 690 710 686 758 q 683 615 694 663 q 647 524 672 568 q 582 444 621 479 q 499 386 542 407 q 404 358 457 365 q 357 356 381 356 q 313 332 333 357 q 301 311 306 324 q 295 285 297 299 q 292 258 293 271 q 290 238 292 246 l 350 238 l 372 238 l 646 238 m 551 526 q 593 542 575 526 q 614 582 611 558 q 602 621 617 606 q 564 636 588 636 q 523 621 540 636 q 503 582 506 606 q 514 542 500 558 q 551 526 528 526 m 628 718 q 616 758 631 742 q 578 774 601 774 q 537 758 554 774 q 517 718 519 742 q 528 680 514 696 q 567 664 543 664 q 608 680 590 664 q 628 718 625 696 m 242 701 q 283 717 265 701 q 303 756 300 732 q 291 795 306 779 q 253 811 276 811 q 213 795 229 811 q 193 756 196 779 q 204 717 190 732 q 242 701 218 701 m 363 775 q 403 791 386 775 q 422 831 419 807 q 411 869 425 854 q 374 885 397 885 q 333 869 350 885 q 313 831 315 854 q 324 791 310 807 q 363 775 339 775 m 439 811 q 451 772 436 788 q 489 756 465 756 q 529 772 513 756 q 549 811 546 788 q 538 850 551 835 q 500 865 524 865 q 459 850 476 865 q 439 811 442 835 m 404 501 q 409 460 399 478 q 442 439 419 442 q 481 448 463 435 q 507 485 500 461 q 501 525 513 507 q 471 547 490 543 q 430 537 449 550 q 404 501 411 524 m 279 464 q 283 422 272 440 q 315 401 293 404 q 355 410 336 397 q 381 447 374 424 q 376 488 388 469 q 344 510 365 506 q 304 499 322 513 q 279 464 286 486 m 196 115 q 192 156 203 138 q 160 178 182 174 q 120 167 139 181 q 94 132 101 154 q 99 90 88 108 q 132 69 110 72 q 171 78 151 65 q 196 115 190 92 m 211 251 q 207 293 218 275 q 174 314 196 311 q 135 305 154 318 q 110 268 115 292 q 113 227 103 246 q 146 206 124 208 q 185 216 167 203 q 211 251 204 229 m 201 331 q 240 340 221 328 q 265 376 260 353 q 261 418 272 400 q 231 439 250 436 q 190 430 208 443 q 164 393 171 417 q 168 352 157 371 q 201 331 179 333 m 326 118 q 323 160 333 142 q 290 181 313 178 q 251 172 271 185 q 226 135 232 158 q 230 94 219 113 q 263 72 240 75 q 302 82 283 69 q 326 118 321 94 m 453 110 q 448 151 458 133 q 417 172 438 169 q 376 163 394 176 q 350 126 357 150 q 356 86 344 104 q 386 64 367 68 q 427 74 408 61 q 453 110 446 88 m 538 71 q 574 92 560 74 q 589 133 589 110 q 571 170 588 157 q 533 181 554 183 q 497 158 511 176 q 482 118 482 140 q 501 81 485 94 q 538 71 517 68 z "},"3":{"ha":654,"x_min":54,"x_max":703,"o":"m 519 935 q 632 859 589 911 q 689 742 675 807 q 685 607 703 678 q 615 476 667 536 q 657 345 654 415 q 633 210 660 275 q 552 94 606 146 q 424 18 499 42 q 280 6 349 -7 q 160 58 211 18 q 82 160 110 97 q 63 299 54 222 l 300 299 q 320 249 297 267 q 374 243 343 232 q 399 259 389 249 q 415 283 410 269 q 418 311 419 297 q 408 338 417 325 q 386 352 400 347 q 357 358 372 357 q 327 358 342 358 q 303 357 313 357 q 245 358 274 358 q 188 358 217 358 l 211 594 l 388 594 q 423 604 407 594 q 447 630 439 614 q 456 663 456 646 q 443 694 456 681 q 414 712 431 708 q 381 709 397 715 q 351 688 364 703 q 338 654 339 674 l 100 654 q 149 792 108 729 q 248 894 189 854 q 378 946 307 933 q 519 935 450 958 m 300 428 q 341 444 324 428 q 361 483 358 460 q 349 522 364 507 q 311 538 335 538 q 270 522 288 538 q 250 483 253 507 q 262 444 247 460 q 300 428 276 428 m 193 149 q 234 165 217 149 q 254 204 251 181 q 242 242 257 226 q 204 258 228 258 q 163 242 181 258 q 143 204 146 226 q 155 165 140 181 q 193 149 169 149 m 290 67 q 331 82 314 67 q 351 121 349 97 q 340 160 354 144 q 301 176 325 176 q 261 160 278 176 q 242 121 244 144 q 253 82 239 97 q 290 67 267 67 m 629 721 q 618 760 632 744 q 581 776 604 776 q 540 760 557 776 q 519 721 522 744 q 531 682 517 697 q 569 667 546 667 q 610 682 593 667 q 629 721 626 697 m 543 532 q 584 547 567 532 q 604 586 601 563 q 592 626 607 610 q 554 642 578 642 q 515 626 532 642 q 494 586 497 610 q 506 547 492 563 q 543 532 521 532 m 578 383 q 567 423 581 407 q 529 439 553 439 q 488 423 506 439 q 468 383 471 407 q 479 344 465 360 q 517 329 493 329 q 558 344 540 329 q 578 383 575 360 m 244 703 q 285 719 268 703 q 306 758 303 735 q 294 798 308 782 q 256 814 279 814 q 215 798 232 814 q 194 758 197 782 q 206 719 192 735 q 244 703 221 703 m 364 778 q 406 794 388 778 q 426 833 424 810 q 415 872 429 856 q 376 888 400 888 q 337 872 354 888 q 317 833 319 856 q 328 794 314 810 q 364 778 342 778 m 442 814 q 453 774 439 790 q 492 758 468 758 q 531 774 514 758 q 551 814 549 790 q 540 853 554 838 q 503 868 525 868 q 462 853 479 868 q 442 814 444 838 m 432 428 q 472 444 454 428 q 492 483 489 460 q 480 522 494 507 q 443 538 465 538 q 402 522 419 538 q 382 483 385 507 q 394 444 379 460 q 432 428 408 428 m 431 79 q 472 95 454 79 q 492 135 489 111 q 481 174 494 158 q 443 190 467 190 q 402 174 419 190 q 382 135 385 158 q 393 95 379 111 q 431 79 407 79 m 594 253 q 583 292 597 276 q 546 308 568 308 q 505 292 522 308 q 485 253 488 276 q 497 215 482 231 q 535 199 511 199 q 574 215 557 199 q 594 253 592 231 z "},"4":{"ha":654,"x_min":89,"x_max":719,"o":"m 719 947 l 621 0 l 383 0 l 414 296 q 307 301 358 296 q 207 339 256 307 q 131 410 158 371 q 93 508 104 450 q 90 558 89 529 q 93 619 90 588 q 99 678 96 650 q 106 728 103 707 q 117 838 111 783 q 128 947 122 893 l 364 947 l 358 888 q 348 791 353 839 q 338 694 343 743 q 335 669 338 688 q 331 631 333 651 q 328 592 329 610 q 329 568 328 574 q 348 542 335 550 q 377 533 361 535 q 410 532 393 531 q 439 533 426 533 l 482 947 l 719 947 m 233 897 q 192 882 210 897 q 172 843 175 867 q 184 803 169 819 q 222 788 199 788 q 263 803 246 788 q 282 843 279 819 q 271 882 285 867 q 233 897 257 897 m 219 756 q 178 740 196 756 q 158 701 161 724 q 169 662 156 678 q 207 646 183 646 q 248 662 231 646 q 268 701 265 678 q 257 740 271 724 q 219 756 243 756 m 192 501 q 233 517 215 501 q 253 557 250 533 q 242 596 256 581 q 204 611 228 611 q 163 596 181 611 q 143 557 146 581 q 154 517 140 533 q 192 501 168 501 m 269 386 q 309 401 292 386 q 329 440 326 417 q 317 480 332 464 q 281 496 303 496 q 240 480 257 496 q 219 440 222 464 q 231 401 217 417 q 269 386 246 386 m 410 361 q 451 376 433 361 q 471 415 468 392 q 459 455 474 439 q 421 471 444 471 q 381 455 397 471 q 361 415 364 439 q 372 376 358 392 q 410 361 386 361 m 513 75 q 553 90 536 75 q 574 129 571 106 q 562 169 576 153 q 524 185 547 185 q 483 169 500 185 q 464 129 467 153 q 475 90 461 106 q 513 75 489 75 m 528 214 q 569 230 551 214 q 589 269 586 246 q 577 308 592 293 q 539 324 563 324 q 499 308 515 324 q 479 269 482 293 q 490 230 476 246 q 528 214 504 214 m 542 353 q 583 369 565 353 q 603 408 600 385 q 591 447 606 432 q 553 463 576 463 q 513 447 529 463 q 493 408 496 432 q 504 369 490 385 q 542 353 518 353 m 557 499 q 598 515 581 499 q 618 553 615 531 q 607 592 621 576 q 569 608 593 608 q 528 592 546 608 q 508 553 511 576 q 519 515 506 531 q 557 499 533 499 m 572 639 q 613 655 596 639 q 633 694 631 671 q 622 734 636 718 q 583 750 607 750 q 543 734 560 750 q 524 694 526 718 q 535 655 521 671 q 572 639 549 639 m 588 782 q 628 798 611 782 q 649 836 646 814 q 637 876 651 860 q 599 892 622 892 q 558 876 575 892 q 539 836 542 860 q 550 798 536 814 q 588 782 564 782 z "},"5":{"ha":654,"x_min":56,"x_max":724,"o":"m 343 713 l 331 594 q 420 592 376 594 q 508 569 464 589 q 580 522 551 550 q 629 450 608 493 q 654 365 649 410 q 652 276 660 321 q 624 189 644 232 q 569 110 603 146 q 460 29 519 56 q 343 1 401 3 q 231 19 285 -1 q 137 78 176 39 q 76 172 97 117 q 63 297 56 228 l 300 297 q 307 263 297 276 q 333 242 317 249 q 367 240 349 236 q 400 258 385 243 q 419 292 417 275 q 416 324 422 310 q 394 348 410 339 q 358 357 379 357 l 69 357 l 131 950 l 724 950 l 699 713 l 425 713 l 403 713 l 343 713 m 629 886 q 589 871 607 886 q 568 832 571 856 q 580 792 565 808 q 617 776 594 776 q 658 792 640 776 q 678 832 675 808 q 667 871 681 856 q 629 886 653 886 m 493 888 q 453 872 471 888 q 433 833 436 857 q 444 794 431 810 q 481 778 458 778 q 522 794 504 778 q 543 833 540 810 q 531 872 546 857 q 493 888 517 888 m 201 131 q 243 147 225 131 q 264 186 261 163 q 252 226 267 210 q 214 242 238 242 q 174 226 190 242 q 154 186 157 210 q 165 147 151 163 q 201 131 178 131 m 342 69 q 381 85 364 69 q 401 124 399 100 q 390 163 404 147 q 353 179 375 179 q 312 163 329 179 q 292 124 294 147 q 303 85 289 100 q 342 69 318 69 m 181 442 q 221 457 204 442 q 240 496 238 472 q 229 535 243 519 q 192 551 215 551 q 151 535 168 551 q 131 496 133 519 q 142 457 128 472 q 181 442 157 442 m 201 607 q 243 623 225 607 q 264 663 261 639 q 252 702 267 686 q 214 718 238 718 q 173 702 190 718 q 153 663 156 686 q 164 623 150 639 q 201 607 178 607 m 219 775 q 260 791 243 775 q 281 831 278 807 q 269 869 283 853 q 231 885 254 885 q 190 869 207 885 q 169 831 172 853 q 181 791 167 807 q 219 775 196 775 m 488 140 q 528 156 511 140 q 549 196 546 172 q 537 234 551 218 q 499 250 522 250 q 458 234 475 250 q 439 196 442 218 q 450 156 436 172 q 488 140 464 140 m 590 339 q 578 378 593 363 q 540 394 564 394 q 499 378 517 394 q 479 339 482 363 q 491 300 476 315 q 529 285 506 285 q 570 300 553 285 q 590 339 588 315 m 465 511 q 424 495 442 511 q 404 457 407 479 q 416 417 401 433 q 454 401 431 401 q 494 417 478 401 q 514 457 511 433 q 503 495 517 479 q 465 511 489 511 m 332 549 q 291 533 308 549 q 271 493 274 517 q 283 453 268 469 q 321 438 297 438 q 362 453 344 438 q 382 493 379 469 q 370 533 385 517 q 332 549 356 549 m 306 835 q 316 795 303 811 q 353 779 329 779 q 394 795 376 779 q 415 835 413 811 q 403 874 418 858 q 365 889 389 889 q 325 874 342 889 q 306 835 308 858 z "},"6":{"ha":654,"x_min":57,"x_max":699,"o":"m 618 468 q 656 308 663 396 q 594 144 649 219 q 505 56 556 89 q 399 9 454 22 q 290 3 344 -4 q 189 36 235 10 q 110 107 143 63 q 65 214 76 151 q 61 297 57 256 q 69 382 65 339 q 79 469 75 426 q 89 556 83 511 q 98 642 93 600 q 115 722 103 683 q 151 798 128 761 q 217 871 175 835 q 326 933 269 914 q 439 949 383 951 q 543 924 494 946 q 627 863 592 901 q 681 770 663 824 q 692 653 699 717 l 454 653 q 431 703 457 686 q 372 704 404 721 q 347 682 356 696 q 335 653 339 668 q 331 622 332 638 q 329 593 331 606 q 417 590 376 593 q 494 574 458 586 q 562 536 531 561 q 618 468 593 511 m 560 811 q 519 795 536 811 q 499 756 501 779 q 510 717 496 732 q 549 701 525 701 q 589 717 572 701 q 608 756 606 732 q 597 795 611 779 q 560 811 583 811 m 453 882 q 413 867 429 882 q 393 828 396 851 q 404 788 390 804 q 442 772 418 772 q 483 788 465 772 q 503 828 500 804 q 491 867 506 851 q 453 882 476 882 m 478 515 q 438 499 454 515 q 418 460 421 483 q 429 421 415 436 q 467 406 443 406 q 508 421 490 406 q 528 460 525 436 q 516 499 531 483 q 478 515 501 515 m 338 535 q 298 519 315 535 q 278 479 281 503 q 290 440 275 456 q 326 424 304 424 q 367 440 350 424 q 388 479 385 456 q 376 519 390 503 q 338 535 361 535 m 313 849 q 272 833 289 849 q 251 794 254 818 q 263 755 249 771 q 300 739 276 739 q 340 755 322 739 q 361 794 358 771 q 349 833 364 818 q 313 849 335 849 m 233 729 q 192 714 210 729 q 172 675 175 699 q 183 635 169 651 q 221 619 197 619 q 262 635 244 619 q 282 675 279 651 q 271 714 285 699 q 233 729 257 729 m 204 593 q 163 577 181 593 q 143 539 146 561 q 155 499 140 515 q 193 483 169 483 q 233 499 217 483 q 253 539 250 515 q 242 577 256 561 q 204 593 228 593 m 194 450 q 153 434 171 450 q 132 396 135 418 q 144 356 129 372 q 182 340 158 340 q 223 356 206 340 q 243 396 240 372 q 232 434 246 418 q 194 450 218 450 m 119 250 q 131 210 117 226 q 169 194 146 194 q 210 210 193 194 q 229 250 226 226 q 219 290 232 274 q 182 306 206 306 q 140 290 158 306 q 119 250 122 274 m 250 88 q 290 103 274 88 q 310 142 307 119 q 299 181 313 165 q 261 197 285 197 q 220 181 238 197 q 200 142 203 165 q 212 103 197 119 q 250 88 226 88 m 308 260 q 349 238 324 239 q 396 256 375 236 q 418 300 417 274 q 400 343 419 326 q 380 353 393 350 q 353 356 367 356 q 326 356 339 357 q 304 356 313 356 q 302 334 304 347 q 300 308 300 321 q 301 281 300 294 q 308 260 303 268 m 393 71 q 433 86 417 71 q 453 125 450 101 q 442 165 456 149 q 404 181 428 181 q 363 165 381 181 q 343 125 346 149 q 355 86 340 101 q 393 71 369 71 m 510 167 q 551 183 533 167 q 571 222 568 199 q 559 261 574 246 q 521 276 544 276 q 481 261 499 276 q 461 222 464 246 q 473 183 458 199 q 510 167 488 167 m 544 304 q 585 320 568 304 q 604 360 601 336 q 593 398 607 382 q 556 414 579 414 q 515 398 532 414 q 494 360 497 382 q 506 320 492 336 q 544 304 521 304 z "},"7":{"ha":654,"x_min":104,"x_max":721,"o":"m 721 949 l 696 711 l 438 0 l 192 0 l 451 711 l 104 711 l 129 949 l 721 949 m 268 817 q 265 858 275 840 q 232 879 254 876 q 192 870 211 883 q 168 833 174 857 q 172 792 161 811 q 204 771 182 774 q 244 781 225 768 q 268 817 263 794 m 400 821 q 396 861 407 843 q 363 883 385 879 q 324 873 343 886 q 299 838 304 860 q 302 796 292 814 q 335 774 313 778 q 374 784 356 771 q 400 821 393 797 m 458 774 q 498 783 479 769 q 524 819 517 796 q 519 860 531 842 q 486 882 508 879 q 447 872 467 885 q 422 836 428 858 q 426 794 415 813 q 458 774 436 776 m 365 69 q 401 90 386 72 q 414 132 415 108 q 398 169 414 156 q 360 179 382 182 q 324 158 339 176 q 310 117 308 139 q 326 80 311 93 q 365 69 342 67 m 417 197 q 453 218 439 200 q 467 260 468 236 q 450 297 465 283 q 413 307 435 310 q 374 286 389 304 q 363 244 360 268 q 379 208 364 221 q 417 197 394 194 m 468 340 q 506 361 492 343 q 519 403 521 379 q 501 438 517 425 q 463 449 486 451 q 427 428 442 446 q 414 388 413 410 q 431 351 415 364 q 468 340 447 338 m 525 478 q 563 501 549 482 q 575 543 576 519 q 555 578 572 565 q 514 586 538 590 q 476 563 490 581 q 465 521 463 544 q 485 486 468 499 q 525 478 501 474 m 572 621 q 610 642 596 624 q 622 683 625 660 q 606 720 622 707 q 568 731 590 733 q 531 708 546 726 q 518 668 517 690 q 535 631 519 644 q 572 621 550 618 m 606 774 q 642 794 628 776 q 657 835 657 813 q 639 872 654 858 q 600 882 624 885 q 565 861 579 879 q 551 819 550 843 q 568 784 551 797 q 606 774 585 771 z "},"8":{"ha":654,"x_min":50,"x_max":692,"o":"m 425 949 q 535 927 486 949 q 618 869 583 906 q 672 785 653 832 q 692 685 692 738 q 672 578 692 632 q 611 475 653 524 q 651 372 643 426 q 648 265 660 318 q 608 165 636 213 q 537 80 579 117 q 440 22 494 43 q 325 0 386 0 q 169 47 233 0 q 78 164 106 93 q 63 318 50 235 q 138 475 75 401 q 98 578 106 524 q 101 685 90 632 q 142 785 113 738 q 213 869 171 832 q 310 927 256 906 q 425 949 364 949 m 626 675 q 615 715 629 699 q 576 731 600 731 q 536 715 553 731 q 517 675 519 699 q 527 635 514 651 q 564 619 540 619 q 606 635 588 619 q 626 675 624 651 m 522 460 q 481 444 499 460 q 461 406 464 428 q 473 366 458 382 q 511 350 488 350 q 551 366 535 350 q 571 406 568 382 q 560 444 574 428 q 522 460 546 460 m 463 547 q 474 509 460 525 q 513 493 489 493 q 553 509 536 493 q 572 547 569 525 q 561 587 575 571 q 524 603 547 603 q 483 587 500 603 q 463 547 465 571 m 301 857 q 260 842 278 857 q 240 803 243 826 q 252 763 238 779 q 290 747 267 747 q 331 763 314 747 q 350 803 347 779 q 339 842 353 826 q 301 857 325 857 m 386 593 q 431 610 411 593 q 453 653 450 628 q 440 694 456 676 q 399 711 424 711 q 356 694 375 711 q 335 653 338 676 q 347 610 332 628 q 386 593 363 593 m 431 482 q 419 520 433 504 q 381 536 404 536 q 341 520 358 536 q 321 482 324 504 q 333 442 318 458 q 369 426 347 426 q 410 442 393 426 q 431 482 428 458 m 240 472 q 199 456 217 472 q 179 417 182 440 q 191 377 176 393 q 229 361 206 361 q 269 377 253 361 q 289 417 286 393 q 278 456 292 440 q 240 472 264 472 m 189 556 q 200 517 186 533 q 236 501 214 501 q 278 517 260 501 q 299 556 296 533 q 287 595 301 579 q 249 611 272 611 q 209 595 226 611 q 189 556 192 579 m 225 746 q 184 730 201 746 q 164 690 167 714 q 176 651 161 667 q 214 636 190 636 q 254 651 238 636 q 274 690 271 667 q 263 730 276 714 q 225 746 249 746 m 121 283 q 133 244 118 260 q 169 229 147 229 q 210 244 193 229 q 231 283 228 260 q 219 323 233 307 q 181 339 204 339 q 141 323 158 339 q 121 283 124 307 m 219 106 q 260 122 242 106 q 281 161 278 138 q 269 200 283 185 q 232 215 254 215 q 191 200 208 215 q 171 161 174 185 q 182 122 168 138 q 219 106 196 106 m 361 356 q 319 338 338 356 q 297 297 300 321 q 310 255 294 272 q 349 238 325 238 q 393 255 374 238 q 415 297 413 272 q 402 338 418 321 q 361 356 386 356 m 340 57 q 381 73 364 57 q 401 113 399 89 q 390 152 404 136 q 351 168 375 168 q 310 152 328 168 q 290 113 293 136 q 302 73 288 89 q 340 57 317 57 m 417 783 q 458 799 440 783 q 478 839 475 815 q 466 878 481 863 q 428 894 451 894 q 387 878 404 894 q 367 839 369 863 q 378 799 364 815 q 417 783 393 783 m 543 850 q 502 835 519 850 q 482 796 485 819 q 494 756 479 772 q 532 740 508 740 q 572 756 554 740 q 592 796 589 772 q 580 835 594 819 q 543 850 565 850 m 469 103 q 510 119 493 103 q 529 158 526 135 q 519 198 532 182 q 482 214 506 214 q 440 198 458 214 q 419 158 422 182 q 431 119 417 135 q 469 103 446 103 m 596 282 q 584 321 599 306 q 546 336 569 336 q 505 321 522 336 q 485 282 488 306 q 497 242 482 258 q 535 226 511 226 q 576 242 558 226 q 596 282 593 258 z "},"9":{"ha":654,"x_min":54,"x_max":696,"o":"m 682 568 q 674 481 678 524 q 664 394 669 439 q 654 308 660 350 q 636 227 649 267 q 600 151 624 188 q 535 79 576 114 q 426 17 483 36 q 313 0 368 -3 q 210 26 258 3 q 126 88 161 49 q 72 179 90 126 q 61 297 54 232 l 299 297 q 322 247 296 264 q 381 246 349 229 q 406 268 397 254 q 417 297 414 282 q 422 328 421 313 q 424 357 422 344 q 335 360 376 357 q 258 376 294 364 q 191 414 222 389 q 135 482 160 439 q 104 559 114 518 q 98 642 94 600 q 116 726 101 685 q 157 806 131 768 q 247 894 196 861 q 354 941 299 928 q 464 947 410 954 q 564 913 518 939 q 643 842 610 888 q 688 736 676 797 q 692 651 696 693 q 682 568 688 610 m 194 139 q 235 155 218 139 q 254 194 251 171 q 243 233 257 217 q 206 249 229 249 q 165 233 182 249 q 144 194 147 217 q 156 155 142 171 q 194 139 171 139 m 300 67 q 341 83 324 67 q 361 122 358 99 q 349 162 364 146 q 311 178 335 178 q 271 162 288 178 q 251 122 254 146 q 263 83 249 99 q 300 67 276 67 m 632 700 q 622 739 635 724 q 585 754 608 754 q 543 739 561 754 q 522 700 525 724 q 534 660 519 676 q 572 644 549 644 q 613 660 596 644 q 632 700 629 676 m 619 554 q 608 594 622 578 q 571 610 594 610 q 531 594 549 610 q 510 554 513 578 q 522 515 507 531 q 558 500 536 500 q 599 515 582 500 q 619 554 617 531 m 504 863 q 463 847 481 863 q 443 807 446 831 q 454 768 440 783 q 492 753 468 753 q 533 768 515 753 q 553 807 550 783 q 542 847 556 831 q 504 863 528 863 m 361 879 q 320 863 338 879 q 300 824 303 847 q 312 785 297 801 q 350 769 326 769 q 390 785 372 769 q 410 824 407 801 q 398 863 413 847 q 361 879 383 879 m 243 783 q 202 767 219 783 q 182 728 185 751 q 193 688 179 704 q 231 672 207 672 q 272 688 254 672 q 293 728 290 704 q 281 767 296 751 q 243 783 267 783 m 149 590 q 160 551 146 567 q 199 536 175 536 q 239 551 222 536 q 258 590 256 567 q 247 630 261 614 q 210 646 233 646 q 169 630 186 646 q 149 590 151 614 m 274 435 q 315 451 297 435 q 336 490 333 467 q 324 528 339 513 q 286 544 310 544 q 245 528 263 544 q 225 490 228 513 q 236 451 222 467 q 274 435 250 435 m 358 694 q 335 649 338 675 q 353 607 333 624 q 374 597 361 600 q 399 593 386 594 q 426 592 413 592 q 447 593 439 593 q 451 615 449 601 q 453 642 453 628 q 453 669 454 656 q 446 690 451 682 q 404 713 431 711 q 358 694 378 714 m 415 415 q 456 431 439 415 q 476 471 474 447 q 465 510 479 494 q 426 525 450 525 q 385 510 403 525 q 365 471 368 494 q 377 431 363 447 q 415 415 392 415 m 442 101 q 483 117 465 101 q 503 156 500 132 q 491 195 506 179 q 453 211 476 211 q 412 195 429 211 q 392 156 394 179 q 403 117 389 132 q 442 101 418 101 m 521 219 q 561 235 544 219 q 581 275 578 251 q 570 315 583 299 q 533 331 557 331 q 492 315 510 331 q 471 275 474 299 q 483 235 468 251 q 521 219 497 219 m 550 357 q 590 372 574 357 q 610 411 607 388 q 599 451 613 435 q 561 467 585 467 q 520 451 538 467 q 500 411 503 435 q 512 372 497 388 q 550 357 526 357 z "},"\u0000":{"ha":0,"x_min":0,"x_max":0,"o":""},"\r":{"ha":475,"x_min":0,"x_max":0,"o":""}," ":{"ha":475,"x_min":0,"x_max":0,"o":""},"E":{"ha":654,"x_min":29,"x_max":719,"o":"m 339 711 l 326 593 l 682 593 l 657 356 l 301 356 l 289 238 l 644 238 l 621 0 l 265 0 l 207 0 l 29 0 l 128 949 l 306 949 l 364 949 l 719 949 l 694 711 l 339 711 m 622 892 q 583 876 600 892 q 563 838 565 861 q 574 798 560 814 q 611 782 589 782 q 652 798 635 782 q 672 838 669 814 q 660 876 675 861 q 622 892 646 892 m 490 893 q 450 878 467 893 q 431 839 433 863 q 442 799 428 815 q 479 783 456 783 q 520 799 503 783 q 540 839 538 815 q 528 878 543 863 q 490 893 514 893 m 142 75 q 183 91 165 75 q 203 131 200 107 q 191 169 206 154 q 153 185 176 185 q 112 169 129 185 q 92 131 94 154 q 103 91 89 107 q 142 75 118 75 m 157 215 q 198 231 181 215 q 218 269 215 246 q 206 309 221 293 q 168 325 192 325 q 127 309 144 325 q 107 269 110 293 q 119 231 104 246 q 157 215 133 215 m 171 354 q 212 369 194 354 q 232 408 229 385 q 221 448 235 432 q 183 464 207 464 q 142 448 160 464 q 121 408 124 432 q 133 369 118 385 q 171 354 147 354 m 186 499 q 227 515 210 499 q 247 554 244 531 q 236 593 250 578 q 199 608 222 608 q 157 593 175 608 q 136 554 139 578 q 148 515 133 531 q 186 499 163 499 m 201 640 q 242 656 225 640 q 263 694 260 672 q 251 734 265 718 q 213 750 236 750 q 172 734 189 750 q 151 694 154 718 q 163 656 149 672 q 201 640 178 640 m 217 782 q 258 798 240 782 q 278 838 275 814 q 266 876 281 861 q 228 892 251 892 q 187 876 204 892 q 167 838 169 861 q 178 798 164 814 q 217 782 193 782 m 546 181 q 505 165 522 181 q 485 125 488 149 q 497 86 482 101 q 535 71 511 71 q 575 86 558 71 q 594 125 592 101 q 583 165 597 149 q 546 181 569 181 m 414 182 q 373 166 390 182 q 353 126 356 150 q 365 88 350 103 q 403 72 379 72 q 442 88 425 72 q 463 126 460 103 q 451 166 465 150 q 414 182 436 182 m 329 128 q 318 167 332 151 q 281 183 304 183 q 240 167 257 183 q 219 128 222 151 q 231 89 217 104 q 269 74 246 74 q 310 89 293 74 q 329 128 326 104 m 590 536 q 549 521 567 536 q 529 482 532 506 q 541 442 526 458 q 579 426 556 426 q 619 442 603 426 q 639 482 636 458 q 628 521 642 506 q 590 536 614 536 m 453 535 q 413 519 429 535 q 393 479 396 503 q 404 440 390 456 q 442 424 418 424 q 483 440 465 424 q 503 479 500 456 q 491 519 506 503 q 453 535 476 535 m 365 478 q 354 517 368 501 q 317 532 340 532 q 276 517 293 532 q 256 478 258 501 q 267 438 253 454 q 304 422 281 422 q 345 438 328 422 q 365 478 363 454 m 346 785 q 387 801 369 785 q 407 840 404 817 q 395 879 410 864 q 357 894 381 894 q 317 879 335 894 q 297 840 300 864 q 309 801 294 817 q 346 785 324 785 z "},"F":{"ha":654,"x_min":33,"x_max":725,"o":"m 344 711 l 332 592 l 688 592 l 663 356 l 307 356 l 294 238 l 271 0 l 211 0 l 33 0 l 132 947 l 310 947 l 369 947 l 725 947 l 700 711 l 344 711 m 154 65 q 196 81 178 65 q 217 121 214 97 q 205 160 219 144 q 167 175 190 175 q 126 160 143 175 q 106 121 108 144 q 117 81 103 97 q 154 65 131 65 m 169 206 q 210 222 193 206 q 231 260 228 238 q 219 299 233 283 q 181 315 204 315 q 140 299 157 315 q 119 260 122 283 q 131 222 117 238 q 169 206 146 206 m 185 344 q 226 360 208 344 q 246 399 243 375 q 234 438 249 422 q 196 454 219 454 q 155 438 172 454 q 135 399 138 422 q 147 360 132 375 q 185 344 161 344 m 199 489 q 240 505 222 489 q 261 544 258 521 q 249 583 264 568 q 211 599 235 599 q 170 583 188 599 q 150 544 153 568 q 161 505 147 521 q 199 489 175 489 m 214 631 q 255 647 238 631 q 275 686 272 663 q 264 724 278 708 q 226 740 250 740 q 185 724 203 740 q 164 686 167 708 q 176 647 161 663 q 214 631 190 631 m 229 772 q 270 788 253 772 q 290 828 288 804 q 278 867 293 851 q 240 882 264 882 q 199 867 217 882 q 179 828 182 851 q 191 788 176 804 q 229 772 206 772 m 633 883 q 592 868 610 883 q 572 829 575 853 q 584 790 569 806 q 622 774 599 774 q 663 790 646 774 q 682 829 679 806 q 671 868 685 853 q 633 883 657 883 m 503 883 q 462 868 479 883 q 442 829 444 853 q 453 790 439 806 q 492 774 468 774 q 533 790 515 774 q 553 829 550 806 q 541 868 556 853 q 503 883 526 883 m 597 535 q 556 519 574 535 q 536 481 539 503 q 548 441 533 457 q 586 425 563 425 q 626 441 610 425 q 646 481 643 457 q 635 519 649 503 q 597 535 621 535 m 460 532 q 419 517 436 532 q 400 478 403 501 q 410 438 397 454 q 447 422 424 422 q 489 438 471 422 q 510 478 507 454 q 498 517 513 501 q 460 532 483 532 m 372 476 q 361 515 375 500 q 324 531 347 531 q 283 515 300 531 q 263 476 265 500 q 274 437 260 453 q 311 421 288 421 q 352 437 335 421 q 372 476 369 453 m 310 831 q 322 791 307 807 q 358 775 336 775 q 399 791 382 775 q 419 831 417 807 q 408 869 422 854 q 369 885 393 885 q 330 869 347 885 q 310 831 313 854 z "},"G":{"ha":654,"x_min":57,"x_max":697,"o":"m 346 593 l 682 593 l 651 297 q 603 160 643 222 q 506 59 564 99 q 377 6 447 19 q 239 15 307 -7 q 126 85 172 36 q 65 200 81 133 q 58 268 57 235 q 63 336 58 301 q 70 406 67 372 q 76 475 74 440 q 84 544 81 510 q 92 614 88 579 q 101 683 94 649 q 122 750 107 717 q 208 866 153 817 q 335 936 264 915 q 476 944 408 958 q 593 891 543 931 q 670 790 643 851 q 689 653 697 728 l 451 653 q 439 694 454 676 q 400 713 424 711 q 358 697 376 714 q 333 657 339 681 q 323 566 326 611 q 314 475 319 521 q 303 385 310 431 q 296 293 297 339 q 310 253 294 269 q 351 239 326 238 q 393 256 375 239 q 414 297 411 274 l 421 357 l 322 357 l 346 593 m 556 825 q 515 809 532 825 q 496 769 499 793 q 507 731 493 746 q 544 715 521 715 q 585 731 568 715 q 606 769 603 746 q 594 809 608 793 q 556 825 579 825 m 440 888 q 399 872 417 888 q 378 832 381 856 q 390 792 375 808 q 428 776 404 776 q 467 792 450 776 q 488 832 485 808 q 476 872 490 856 q 440 888 463 888 m 311 847 q 270 832 288 847 q 250 793 253 817 q 261 753 247 769 q 299 738 275 738 q 340 753 322 738 q 360 793 357 769 q 349 832 363 817 q 311 847 335 847 m 235 732 q 194 716 211 732 q 175 676 178 700 q 186 638 172 653 q 224 622 200 622 q 265 638 247 622 q 285 676 282 653 q 273 716 288 700 q 235 732 258 732 m 208 593 q 167 577 185 593 q 147 538 150 561 q 159 499 144 514 q 197 483 174 483 q 238 499 221 483 q 258 538 256 514 q 247 577 261 561 q 208 593 232 593 m 194 457 q 153 441 171 457 q 133 401 136 425 q 145 363 131 378 q 183 347 160 347 q 224 363 207 347 q 244 401 242 378 q 233 441 247 425 q 194 457 218 457 m 126 269 q 138 230 124 246 q 176 214 153 214 q 217 230 200 214 q 236 269 233 246 q 225 308 239 292 q 188 324 211 324 q 147 308 164 324 q 126 269 129 292 m 239 104 q 281 120 263 104 q 301 160 299 136 q 290 199 304 183 q 251 214 275 214 q 211 199 228 214 q 192 160 194 183 q 202 120 189 136 q 239 104 215 104 m 374 76 q 415 92 397 76 q 435 132 432 108 q 424 172 438 156 q 386 188 410 188 q 345 172 363 188 q 325 132 328 156 q 336 92 322 108 q 374 76 350 76 m 539 283 q 580 299 563 283 q 600 338 597 315 q 588 377 603 361 q 550 393 574 393 q 509 377 526 393 q 489 338 492 361 q 501 299 486 315 q 539 283 515 283 m 558 532 q 517 517 535 532 q 497 478 500 501 q 508 438 494 454 q 546 422 522 422 q 588 438 569 422 q 608 478 606 454 q 597 517 611 501 q 558 532 582 532 m 507 261 q 466 246 483 261 q 446 207 449 231 q 458 167 443 183 q 496 151 472 151 q 535 167 518 151 q 556 207 553 183 q 544 246 558 231 q 507 261 529 261 m 428 529 q 386 513 404 529 q 365 474 368 497 q 377 435 363 450 q 415 419 392 419 q 456 435 439 419 q 475 474 472 450 q 465 513 478 497 q 428 529 451 529 z "},"H":{"ha":654,"x_min":32,"x_max":722,"o":"m 722 949 l 685 593 l 660 356 l 624 0 l 388 0 l 424 356 l 304 356 l 268 0 l 32 0 l 68 356 l 93 593 l 131 949 l 367 949 l 329 593 l 449 593 l 486 949 l 722 949 m 149 72 q 189 88 172 72 q 208 126 206 104 q 197 166 211 150 q 160 182 183 182 q 119 166 136 182 q 99 126 101 150 q 110 88 96 104 q 149 72 125 72 m 163 211 q 203 227 186 211 q 224 267 221 243 q 213 306 226 290 q 175 322 199 322 q 134 306 151 322 q 114 267 117 290 q 125 227 111 243 q 163 211 139 211 m 178 350 q 218 366 201 350 q 238 406 235 382 q 226 445 240 429 q 189 461 213 461 q 148 445 165 461 q 128 406 131 429 q 140 366 125 382 q 178 350 154 350 m 193 500 q 234 516 217 500 q 254 556 251 532 q 243 594 257 579 q 206 610 229 610 q 165 594 182 610 q 144 556 147 579 q 156 516 142 532 q 193 500 169 500 m 208 638 q 249 653 232 638 q 268 692 265 668 q 257 731 271 715 q 219 747 243 747 q 178 731 196 747 q 158 692 161 715 q 170 653 156 668 q 208 638 185 638 m 222 779 q 263 795 246 779 q 283 833 281 811 q 272 873 286 857 q 235 889 258 889 q 194 873 211 889 q 174 833 176 857 q 185 795 171 811 q 222 779 199 779 m 301 425 q 342 441 325 425 q 363 481 360 457 q 351 520 365 504 q 313 536 336 536 q 272 520 289 536 q 251 481 254 504 q 263 441 249 457 q 301 425 278 425 m 431 425 q 472 441 454 425 q 492 481 489 457 q 480 520 494 504 q 442 536 465 536 q 402 520 419 536 q 382 481 385 504 q 394 441 379 457 q 431 425 408 425 m 510 83 q 551 99 533 83 q 571 139 568 115 q 559 177 574 161 q 521 193 544 193 q 480 177 497 193 q 460 139 463 161 q 472 99 457 115 q 510 83 486 83 m 524 224 q 565 239 547 224 q 586 278 583 254 q 574 317 589 301 q 536 333 560 333 q 495 317 513 333 q 475 278 478 301 q 486 239 472 254 q 524 224 500 224 m 539 363 q 580 378 563 363 q 600 417 597 393 q 588 456 603 440 q 550 472 574 472 q 509 456 526 472 q 489 417 492 440 q 501 378 486 393 q 539 363 515 363 m 554 511 q 595 527 578 511 q 615 567 613 543 q 604 606 618 590 q 567 622 590 622 q 525 606 543 622 q 504 567 507 590 q 516 527 501 543 q 554 511 531 511 m 569 649 q 610 664 593 649 q 631 703 628 679 q 619 742 633 726 q 581 758 604 758 q 540 742 557 758 q 519 703 522 726 q 531 664 517 679 q 569 649 546 649 m 583 790 q 625 806 607 790 q 646 846 643 822 q 634 885 649 869 q 596 900 619 900 q 555 885 572 900 q 535 846 538 869 q 546 806 532 822 q 583 790 560 790 z "},"I":{"ha":329,"x_min":47,"x_max":383,"o":"m 383 947 l 285 0 l 47 0 l 146 947 l 383 947 m 172 65 q 213 81 196 65 q 233 119 231 96 q 222 159 236 143 q 185 175 208 175 q 144 159 161 175 q 124 119 126 143 q 135 81 121 96 q 172 65 149 65 m 188 204 q 228 220 211 204 q 247 260 244 236 q 236 299 250 283 q 199 315 222 315 q 158 299 175 315 q 138 260 140 283 q 149 220 135 236 q 188 204 164 204 m 201 343 q 242 359 225 343 q 263 399 260 375 q 251 438 265 422 q 214 454 238 454 q 173 438 190 454 q 153 399 156 422 q 164 359 150 375 q 201 343 178 343 m 218 493 q 258 509 242 493 q 278 549 275 525 q 267 588 281 572 q 229 603 253 603 q 188 588 206 603 q 168 549 171 572 q 180 509 165 525 q 218 493 194 493 m 232 629 q 272 645 256 629 q 292 685 289 661 q 281 724 294 708 q 244 740 268 740 q 203 724 221 740 q 182 685 185 708 q 194 645 179 661 q 232 629 208 629 m 247 772 q 288 788 271 772 q 307 826 304 803 q 296 866 310 850 q 258 882 282 882 q 217 866 235 882 q 197 826 200 850 q 209 788 194 803 q 247 772 224 772 z "},"J":{"ha":654,"x_min":44,"x_max":714,"o":"m 714 949 l 683 651 l 664 474 q 657 405 661 439 q 650 335 653 371 q 640 267 646 300 q 619 199 635 233 q 532 83 588 132 q 406 13 476 33 q 265 4 332 -10 q 148 58 197 18 q 72 159 99 97 q 53 296 44 221 l 57 296 l 290 296 q 302 255 288 272 q 340 238 317 238 q 383 252 364 236 q 408 292 403 268 q 419 383 415 338 q 426 474 422 429 l 446 656 l 476 949 l 714 949 m 194 135 q 234 151 217 135 q 254 190 251 167 q 242 230 257 214 q 206 246 228 246 q 165 230 182 246 q 144 190 147 214 q 156 151 142 167 q 194 135 171 135 m 308 61 q 349 77 332 61 q 369 117 367 93 q 358 156 372 140 q 321 172 344 172 q 280 156 297 172 q 260 117 263 140 q 271 77 257 93 q 308 61 285 61 m 589 896 q 548 880 565 896 q 528 842 531 864 q 540 802 525 818 q 578 786 554 786 q 619 802 601 786 q 639 842 636 818 q 627 880 642 864 q 589 896 613 896 m 575 757 q 534 741 551 757 q 514 701 517 725 q 525 663 511 679 q 563 647 539 647 q 604 663 586 647 q 625 701 622 679 q 613 741 628 725 q 575 757 599 757 m 451 99 q 492 115 475 99 q 513 153 510 131 q 501 192 515 176 q 463 208 486 208 q 422 192 439 208 q 401 153 404 176 q 413 115 399 131 q 451 99 428 99 m 518 224 q 560 240 542 224 q 581 279 578 256 q 569 318 583 303 q 531 333 554 333 q 490 318 507 333 q 469 279 472 303 q 481 240 467 256 q 518 224 494 224 m 536 368 q 576 383 558 368 q 596 422 593 399 q 585 462 599 446 q 549 478 571 478 q 507 462 525 478 q 486 422 489 446 q 498 383 483 399 q 536 368 513 368 m 551 503 q 591 519 574 503 q 611 558 608 535 q 599 598 614 582 q 563 614 585 614 q 522 598 539 614 q 501 558 504 582 q 513 519 499 535 q 551 503 528 503 z "},"U":{"ha":654,"x_min":58,"x_max":722,"o":"m 722 947 l 685 592 l 672 474 q 664 393 668 433 q 656 313 660 353 q 640 233 651 271 q 604 158 628 196 q 484 42 558 85 q 326 0 410 0 q 178 42 243 0 q 81 157 113 83 q 62 233 65 194 q 63 313 58 271 q 71 393 67 353 q 79 474 75 433 l 93 603 l 129 947 l 367 947 l 336 651 l 329 592 q 321 509 325 550 q 313 426 317 468 q 306 371 310 399 q 300 315 303 343 q 306 260 297 283 q 350 236 314 236 q 401 260 386 236 q 418 315 415 283 q 424 371 421 343 q 431 426 428 399 q 440 521 435 474 q 450 615 444 568 l 454 651 l 485 947 l 722 947 m 247 892 q 208 876 225 892 q 188 836 190 860 q 199 797 185 813 q 236 781 214 781 q 277 797 260 781 q 297 836 294 813 q 285 876 300 860 q 247 892 271 892 m 233 758 q 194 742 211 758 q 174 703 176 726 q 185 665 171 681 q 222 649 200 649 q 263 665 246 649 q 283 703 281 681 q 272 742 286 726 q 233 758 257 758 m 215 622 q 174 606 192 622 q 153 567 156 590 q 165 528 150 543 q 203 513 179 513 q 244 528 226 513 q 264 567 261 543 q 253 606 267 590 q 215 622 239 622 m 200 486 q 159 470 176 486 q 139 431 142 454 q 151 392 136 407 q 189 376 165 376 q 230 392 213 376 q 250 431 247 407 q 238 470 253 454 q 200 486 224 486 m 128 297 q 140 258 125 274 q 178 242 154 242 q 218 258 201 242 q 238 297 235 274 q 226 336 240 321 q 189 351 213 351 q 148 336 165 351 q 128 297 131 321 m 218 126 q 259 142 242 126 q 279 181 276 157 q 267 220 282 204 q 229 236 253 236 q 189 220 206 236 q 169 181 172 204 q 181 142 167 157 q 218 126 194 126 m 597 899 q 556 883 574 899 q 536 843 539 867 q 547 803 533 819 q 585 788 561 788 q 626 803 608 788 q 646 843 643 819 q 635 883 649 867 q 597 899 621 899 m 581 765 q 540 750 557 765 q 519 711 522 735 q 531 672 517 688 q 569 656 546 656 q 610 672 593 656 q 629 711 626 688 q 618 750 632 735 q 581 765 604 765 m 339 75 q 378 91 361 75 q 399 131 396 107 q 388 170 401 154 q 351 186 374 186 q 310 170 328 186 q 289 131 292 154 q 301 91 286 107 q 339 75 315 75 m 467 119 q 507 135 490 119 q 526 174 524 150 q 515 213 529 197 q 478 229 501 229 q 437 213 454 229 q 417 174 419 197 q 428 135 414 150 q 467 119 443 119 m 531 242 q 572 258 554 242 q 592 297 589 274 q 580 337 594 321 q 542 353 565 353 q 501 337 518 353 q 481 297 483 321 q 492 258 478 274 q 531 242 507 242 m 544 379 q 585 394 568 379 q 606 433 603 410 q 594 473 608 457 q 556 489 579 489 q 515 473 532 489 q 494 433 497 457 q 506 394 492 410 q 544 379 521 379 m 561 515 q 602 531 585 515 q 622 569 619 546 q 611 609 625 593 q 574 625 597 625 q 533 609 550 625 q 513 569 515 593 q 524 531 510 546 q 561 515 538 515 z "},"O":{"ha":640,"x_min":60,"x_max":694,"o":"m 672 789 q 691 713 688 751 q 690 635 694 675 q 681 554 685 594 q 672 474 676 514 q 664 393 668 433 q 656 313 660 353 q 640 233 651 271 q 606 158 629 196 q 485 42 560 85 q 328 0 411 0 q 179 42 244 0 q 82 157 114 85 q 63 233 67 196 q 64 313 60 271 q 72 393 68 353 q 81 474 76 433 q 89 554 85 514 q 99 635 93 594 q 114 714 103 676 q 149 789 125 751 q 269 905 196 863 q 426 947 343 947 q 576 905 510 947 q 672 789 642 863 m 424 892 q 384 876 401 892 q 364 836 367 860 q 376 797 361 813 q 413 782 390 782 q 453 797 436 782 q 474 836 471 813 q 462 876 476 860 q 424 892 447 892 m 296 854 q 255 839 272 854 q 235 800 238 824 q 247 760 232 776 q 285 744 261 744 q 324 760 307 744 q 344 800 342 776 q 333 839 347 824 q 296 854 318 854 m 226 738 q 185 722 203 738 q 165 683 168 707 q 177 644 163 660 q 215 628 192 628 q 256 644 239 628 q 276 683 274 660 q 265 722 279 707 q 226 738 250 738 m 213 604 q 172 588 189 604 q 151 549 154 572 q 163 510 149 525 q 201 494 178 494 q 242 510 225 494 q 263 549 260 525 q 251 588 265 572 q 213 604 236 604 m 197 458 q 156 443 174 458 q 136 404 139 428 q 148 365 133 381 q 186 349 163 349 q 227 365 210 349 q 247 404 244 381 q 235 443 250 428 q 197 458 221 458 m 121 269 q 133 231 118 246 q 169 215 147 215 q 210 231 193 215 q 231 269 228 246 q 219 309 233 293 q 181 325 204 325 q 141 309 158 325 q 121 269 124 293 m 219 100 q 260 115 243 100 q 279 154 276 131 q 268 194 282 178 q 231 210 254 210 q 190 194 207 210 q 169 154 172 178 q 181 115 167 131 q 219 100 196 100 m 333 63 q 374 78 357 63 q 394 118 392 94 q 383 157 397 142 q 346 172 369 172 q 305 157 322 172 q 285 118 288 142 q 296 78 282 94 q 333 63 310 63 m 393 251 q 413 280 410 265 q 419 314 417 294 q 424 347 422 331 q 426 381 425 364 l 456 651 q 449 685 457 671 q 426 706 440 699 q 395 710 413 713 q 361 696 378 708 q 341 667 344 682 q 335 633 338 651 q 332 600 333 617 q 328 567 331 583 q 314 431 321 499 q 300 296 307 364 q 306 263 297 276 q 329 242 315 249 q 360 238 343 236 q 393 251 378 239 m 539 854 q 498 839 515 854 q 478 800 481 824 q 490 760 475 776 q 528 744 504 744 q 568 760 551 744 q 588 800 585 776 q 576 839 590 824 q 539 854 563 854 m 463 100 q 503 115 486 100 q 524 154 521 131 q 512 194 526 178 q 474 210 497 210 q 433 194 450 210 q 413 154 415 178 q 424 115 410 131 q 463 100 439 100 m 521 217 q 562 233 544 217 q 582 272 579 249 q 570 312 585 296 q 532 328 556 328 q 491 312 508 328 q 471 272 474 296 q 483 233 468 249 q 521 217 497 217 m 535 356 q 576 372 558 356 q 597 411 594 388 q 585 451 600 435 q 547 467 571 467 q 506 451 524 467 q 486 411 489 435 q 497 372 483 388 q 535 356 511 356 m 550 501 q 592 517 574 501 q 613 556 610 533 q 601 595 615 579 q 563 611 586 611 q 522 595 539 611 q 501 556 504 579 q 513 517 499 533 q 550 501 526 501 m 564 633 q 606 649 588 633 q 626 689 624 665 q 615 727 629 711 q 576 743 600 743 q 535 727 553 743 q 515 689 518 711 q 526 649 513 665 q 564 633 540 633 z "},"P":{"ha":654,"x_min":35,"x_max":701,"o":"m 429 947 q 542 924 490 947 q 631 860 594 900 q 684 765 667 819 q 694 650 701 711 q 658 535 688 589 q 585 442 629 482 q 484 378 540 401 q 367 356 428 356 l 364 356 l 307 356 l 271 0 l 35 0 l 133 947 l 369 947 l 429 947 m 632 719 q 621 759 635 743 q 583 775 607 775 q 542 759 560 775 q 522 719 525 743 q 534 680 519 696 q 572 664 549 664 q 613 680 596 664 q 632 719 629 696 m 508 874 q 467 858 485 874 q 446 818 449 842 q 458 778 443 794 q 496 763 472 763 q 535 778 518 763 q 556 818 553 794 q 544 858 558 842 q 508 874 531 874 m 457 651 q 444 694 460 676 q 404 711 428 711 l 344 711 l 332 592 l 392 592 q 435 609 415 592 q 457 651 454 626 m 378 881 q 338 865 356 881 q 318 825 321 849 q 330 785 315 801 q 367 769 344 769 q 408 785 390 769 q 428 825 425 801 q 416 865 431 849 q 378 881 401 881 m 163 68 q 203 83 186 68 q 224 122 221 99 q 212 162 226 146 q 174 178 197 178 q 134 162 151 178 q 114 122 117 146 q 126 83 111 99 q 163 68 140 68 m 176 207 q 217 223 200 207 q 238 263 235 239 q 226 301 240 286 q 188 317 211 317 q 148 301 165 317 q 128 263 131 286 q 140 223 125 239 q 176 207 154 207 m 192 349 q 233 365 215 349 q 253 403 250 381 q 241 442 256 426 q 203 458 226 458 q 163 442 181 458 q 143 403 146 426 q 155 365 140 381 q 192 349 169 349 m 206 486 q 247 502 229 486 q 267 542 264 518 q 256 581 269 565 q 218 597 242 597 q 178 581 196 597 q 157 542 160 565 q 169 502 154 518 q 206 486 183 486 m 221 632 q 263 648 244 632 q 283 688 281 664 q 272 726 286 711 q 233 742 257 742 q 194 726 211 742 q 174 688 176 711 q 185 648 171 664 q 221 632 199 632 m 236 775 q 277 790 260 775 q 297 829 294 806 q 285 869 300 853 q 247 885 271 885 q 208 869 225 885 q 188 829 190 853 q 199 790 185 806 q 236 775 214 775 m 324 421 q 364 437 346 421 q 385 476 382 453 q 373 516 388 500 q 336 532 358 532 q 295 516 313 532 q 275 476 278 500 q 286 437 272 453 q 324 421 300 421 m 458 435 q 499 451 482 435 q 518 489 515 467 q 508 528 521 513 q 471 544 494 544 q 429 528 447 544 q 408 489 411 513 q 420 451 406 467 q 458 435 435 435 m 565 531 q 606 546 589 531 q 625 585 622 561 q 614 624 628 608 q 576 640 600 640 q 535 624 553 640 q 515 585 518 608 q 527 546 513 561 q 565 531 542 531 z "},"N":{"ha":654,"x_min":35,"x_max":696,"o":"m 657 825 q 685 761 678 793 q 694 696 693 729 q 692 628 696 663 q 685 558 689 593 l 626 0 l 390 0 l 421 296 q 424 326 422 311 q 426 356 425 340 q 436 438 432 397 q 444 521 440 479 q 450 576 447 549 q 456 632 453 604 q 449 688 458 664 q 404 711 440 711 q 354 688 368 711 q 338 633 340 664 q 332 577 335 606 q 326 521 329 549 q 316 427 321 474 q 307 332 311 381 q 305 315 306 324 q 303 296 304 306 l 272 0 l 35 0 l 93 558 q 101 628 97 593 q 113 696 104 663 q 136 762 121 729 q 178 826 151 794 q 292 916 226 885 q 429 947 358 947 q 561 915 501 947 q 657 825 621 883 m 197 450 q 156 434 174 450 q 135 396 138 418 q 147 356 132 372 q 185 340 161 340 q 224 356 207 340 q 244 396 242 372 q 233 434 247 418 q 197 450 219 450 m 150 532 q 162 492 147 508 q 200 476 176 476 q 240 492 222 476 q 260 532 257 508 q 248 570 263 554 q 211 586 233 586 q 170 570 188 586 q 150 532 153 554 m 157 65 q 199 81 181 65 q 219 119 217 96 q 208 159 222 143 q 169 175 193 175 q 129 159 146 175 q 110 119 113 143 q 120 81 107 96 q 157 65 133 65 m 172 204 q 213 219 196 204 q 233 258 231 235 q 222 298 236 282 q 183 314 207 314 q 143 298 160 314 q 124 258 126 282 q 135 219 121 235 q 172 204 149 204 m 215 613 q 256 628 239 613 q 276 668 274 644 q 265 707 279 692 q 226 722 250 722 q 186 707 203 722 q 167 668 169 692 q 178 628 164 644 q 215 613 192 613 m 282 733 q 323 749 306 733 q 343 789 340 765 q 331 828 346 813 q 293 843 317 843 q 253 828 269 843 q 233 789 236 813 q 244 749 231 765 q 282 733 258 733 m 415 778 q 456 793 439 778 q 476 832 474 808 q 465 872 479 856 q 428 888 451 888 q 387 872 404 888 q 367 832 369 856 q 378 793 364 808 q 415 778 392 778 m 492 782 q 503 742 489 758 q 540 726 517 726 q 582 742 564 726 q 603 782 600 758 q 591 822 606 806 q 553 838 576 838 q 512 822 529 838 q 492 782 494 806 m 558 469 q 599 485 582 469 q 619 524 617 500 q 608 563 622 547 q 569 579 593 579 q 529 563 546 579 q 510 524 513 547 q 521 485 507 500 q 558 469 535 469 m 606 388 q 594 427 608 411 q 556 443 579 443 q 515 427 532 443 q 496 388 499 411 q 507 349 493 364 q 544 333 521 333 q 585 349 568 333 q 606 388 603 364 m 542 311 q 501 295 518 311 q 482 256 485 279 q 493 217 479 233 q 531 201 507 201 q 572 217 554 201 q 592 256 589 233 q 580 295 594 279 q 542 311 565 311 m 518 57 q 558 73 542 57 q 578 113 575 89 q 567 152 581 136 q 529 168 553 168 q 488 152 506 168 q 468 113 471 136 q 480 73 465 89 q 518 57 494 57 m 575 606 q 616 622 599 606 q 636 661 633 638 q 625 700 639 685 q 588 715 611 715 q 547 700 564 715 q 526 661 529 685 q 538 622 524 638 q 575 606 551 606 z "},"R":{"ha":654,"x_min":36,"x_max":700,"o":"m 618 474 q 644 418 636 446 q 656 362 653 390 q 658 303 660 333 q 653 243 656 274 q 640 121 646 181 q 628 0 635 61 l 392 0 q 403 111 397 56 q 414 224 408 167 q 417 247 415 232 q 420 278 419 263 q 419 310 421 294 q 413 333 418 325 q 391 349 404 344 q 363 355 378 354 q 334 355 349 356 q 308 354 319 354 l 272 0 l 214 0 l 36 0 l 135 947 l 313 947 q 410 947 363 947 q 500 938 457 947 q 581 905 543 929 q 653 833 619 881 q 690 747 679 793 q 696 654 700 701 q 672 560 692 607 q 618 474 651 514 m 156 63 q 197 78 179 63 q 217 118 214 94 q 206 156 219 140 q 168 172 192 172 q 126 156 144 172 q 106 118 108 140 q 117 78 103 94 q 156 63 132 63 m 171 203 q 212 218 194 203 q 232 257 229 233 q 220 297 235 281 q 182 313 206 313 q 141 297 158 313 q 121 257 124 281 q 133 218 118 233 q 171 203 147 203 m 185 343 q 226 359 208 343 q 247 399 244 375 q 235 438 250 422 q 197 453 221 453 q 156 438 174 453 q 136 399 139 422 q 147 359 133 375 q 185 343 161 343 m 200 482 q 241 497 224 482 q 261 536 258 513 q 249 576 264 560 q 211 592 235 592 q 170 576 188 592 q 150 536 153 560 q 162 497 147 513 q 200 482 176 482 m 215 628 q 256 643 239 628 q 276 682 274 658 q 265 722 279 706 q 226 738 250 738 q 185 722 203 738 q 165 682 168 706 q 177 643 163 658 q 215 628 192 628 m 231 769 q 272 785 254 769 q 292 825 289 801 q 280 863 294 847 q 242 879 265 879 q 201 863 218 879 q 181 825 183 847 q 192 785 178 801 q 231 769 207 769 m 506 860 q 464 844 482 860 q 443 806 446 829 q 455 766 440 782 q 493 750 469 750 q 533 766 517 750 q 553 806 550 782 q 542 844 556 829 q 506 860 529 860 m 554 636 q 513 620 531 636 q 492 581 494 604 q 503 541 489 557 q 542 525 518 525 q 582 541 565 525 q 601 581 599 557 q 591 620 604 604 q 554 636 578 636 m 460 651 q 451 686 463 671 q 422 708 440 701 q 384 712 403 714 q 346 710 365 710 l 333 592 q 372 590 353 592 q 410 594 390 588 q 443 616 429 600 q 460 651 457 632 m 375 882 q 334 866 351 882 q 314 826 317 850 q 326 788 311 803 q 364 772 340 772 q 404 788 388 772 q 424 826 421 803 q 413 866 426 850 q 375 882 399 882 m 314 424 q 354 440 338 424 q 374 479 371 456 q 363 517 376 501 q 325 533 349 533 q 284 517 301 533 q 264 479 267 501 q 276 440 261 456 q 314 424 290 424 m 393 482 q 405 443 390 458 q 443 428 419 428 q 483 443 467 428 q 503 482 500 458 q 492 522 506 506 q 454 538 478 538 q 413 522 431 538 q 393 482 396 506 m 458 372 q 469 333 456 349 q 507 317 483 317 q 548 333 531 317 q 568 372 565 349 q 557 412 571 396 q 519 428 543 428 q 478 412 496 428 q 458 372 461 396 m 531 301 q 491 285 508 301 q 471 246 474 269 q 483 207 468 222 q 519 192 497 192 q 560 207 543 192 q 581 246 578 222 q 569 285 583 269 q 531 301 554 301 m 508 65 q 550 81 532 65 q 571 119 568 96 q 559 159 574 143 q 521 175 544 175 q 481 159 497 175 q 461 119 464 143 q 472 81 458 96 q 508 65 485 65 m 575 657 q 616 673 599 657 q 636 713 633 689 q 625 751 639 736 q 588 767 611 767 q 547 751 564 767 q 526 713 529 736 q 538 673 524 689 q 575 657 551 657 z "},"S":{"ha":654,"x_min":56,"x_max":700,"o":"m 390 593 q 508 569 456 593 q 594 503 560 544 q 644 410 628 463 q 656 302 661 358 q 624 190 651 246 q 546 88 597 135 q 437 20 494 42 q 323 0 379 -1 q 217 24 267 1 q 130 85 167 46 q 74 177 93 124 q 63 297 56 231 l 300 297 q 307 263 297 278 q 331 242 317 249 q 364 239 346 236 q 397 256 382 242 q 417 287 413 269 q 417 320 422 304 q 399 347 413 336 q 367 357 386 357 q 249 381 301 357 q 163 447 197 406 q 112 540 128 488 q 101 648 96 592 q 132 760 106 704 q 210 863 158 815 q 319 930 261 908 q 433 950 376 951 q 539 926 489 949 q 626 865 589 904 q 681 772 663 826 q 693 653 700 718 l 456 653 q 448 687 457 672 q 424 708 439 701 q 392 711 410 714 q 358 694 374 708 q 339 663 343 681 q 340 630 335 646 q 358 603 344 614 q 390 593 371 593 m 188 153 q 228 168 211 153 q 249 207 246 183 q 237 247 251 231 q 199 263 222 263 q 158 247 175 263 q 139 207 142 231 q 150 168 136 183 q 188 153 164 153 m 279 68 q 320 83 303 68 q 340 122 338 99 q 328 162 343 146 q 290 178 314 178 q 251 162 268 178 q 231 122 233 146 q 242 83 228 99 q 279 68 257 68 m 560 408 q 519 392 536 408 q 499 354 501 376 q 510 315 496 331 q 549 299 525 299 q 589 315 572 299 q 608 354 606 331 q 597 392 611 376 q 560 408 583 408 m 572 821 q 531 805 549 821 q 510 765 513 789 q 522 726 507 742 q 560 710 536 710 q 600 726 583 710 q 619 765 617 742 q 609 805 622 789 q 572 821 596 821 m 463 893 q 422 878 439 893 q 401 839 404 863 q 413 799 399 815 q 451 783 428 783 q 492 799 475 783 q 511 839 508 815 q 500 878 514 863 q 463 893 486 893 m 328 864 q 287 848 304 864 q 267 808 269 832 q 278 769 264 785 q 317 754 293 754 q 358 769 340 754 q 378 808 375 785 q 366 848 381 832 q 328 864 351 864 m 244 758 q 203 743 221 758 q 183 704 186 728 q 195 665 181 681 q 233 649 210 649 q 274 665 257 649 q 294 704 292 681 q 283 743 297 728 q 244 758 268 758 m 225 519 q 266 535 249 519 q 286 575 283 551 q 274 614 289 599 q 236 629 260 629 q 196 614 213 629 q 176 575 179 599 q 188 535 174 551 q 225 519 201 519 m 322 436 q 362 452 344 436 q 382 492 379 468 q 370 531 385 515 q 333 546 356 546 q 292 531 310 546 q 272 492 275 515 q 284 452 269 468 q 322 436 299 436 m 399 444 q 410 405 396 421 q 449 389 425 389 q 488 405 471 389 q 508 444 506 421 q 497 484 511 468 q 460 500 482 500 q 419 484 436 500 q 399 444 401 468 m 411 72 q 452 88 435 72 q 472 128 469 104 q 460 166 475 150 q 422 182 446 182 q 382 166 399 182 q 363 128 365 150 q 374 88 360 104 q 411 72 388 72 m 521 164 q 561 180 544 164 q 581 219 578 196 q 569 258 583 243 q 532 274 556 274 q 491 258 508 274 q 471 219 474 243 q 483 180 468 196 q 521 164 497 164 z "},"L":{"ha":571,"x_min":40,"x_max":560,"o":"m 560 238 l 536 0 l 278 0 l 40 0 l 64 238 l 139 947 l 376 947 l 301 238 l 560 238 m 168 75 q 209 90 192 75 q 229 129 226 106 q 217 169 232 153 q 179 185 203 185 q 139 169 156 185 q 119 129 122 153 q 131 90 117 106 q 168 75 144 75 m 183 214 q 224 230 207 214 q 244 269 242 246 q 233 309 247 293 q 194 325 218 325 q 154 309 171 325 q 135 269 138 293 q 146 230 132 246 q 183 214 160 214 m 197 353 q 238 369 221 353 q 258 408 256 385 q 247 447 261 432 q 208 463 232 463 q 168 447 185 463 q 149 408 151 432 q 160 369 146 385 q 197 353 174 353 m 214 503 q 255 519 238 503 q 275 558 272 535 q 263 597 278 582 q 225 613 249 613 q 185 597 201 613 q 165 558 168 582 q 176 519 163 535 q 214 503 190 503 m 228 639 q 269 655 251 639 q 289 694 286 671 q 277 734 292 718 q 239 750 263 750 q 199 734 215 750 q 179 694 182 718 q 190 655 176 671 q 228 639 204 639 m 243 782 q 284 797 267 782 q 304 836 301 813 q 292 876 307 860 q 254 892 278 892 q 214 876 231 892 q 194 836 197 860 q 206 797 192 813 q 243 782 219 782 m 306 69 q 347 85 329 69 q 367 124 364 100 q 355 163 369 147 q 317 179 340 179 q 276 163 293 179 q 257 124 260 147 q 268 85 254 100 q 306 69 282 69 m 428 69 q 469 85 451 69 q 489 124 486 100 q 477 163 492 147 q 439 179 463 179 q 399 163 415 179 q 379 124 382 147 q 390 85 376 100 q 428 69 404 69 z "},"W":{"ha":1025,"x_min":60,"x_max":1085,"o":"m 1085 949 q 1052 622 1068 785 q 1017 294 1036 458 q 952 135 1006 203 q 824 31 899 67 q 667 1 750 -4 q 518 60 585 6 q 356 1 439 6 q 206 31 272 -4 q 99 135 139 67 q 69 294 60 203 q 103 622 85 458 q 138 949 121 785 l 375 949 l 344 653 q 341 623 342 638 q 338 593 340 608 q 329 510 333 551 q 321 428 325 469 l 308 315 q 314 261 306 285 q 358 238 322 238 q 409 261 394 238 q 426 315 424 285 l 439 428 q 449 522 444 475 q 458 617 453 568 l 463 653 l 493 949 l 729 949 l 699 653 l 692 593 q 683 510 688 551 q 675 428 679 469 l 663 315 q 669 261 660 285 q 714 238 678 238 q 765 261 750 238 q 782 315 779 285 l 794 428 q 804 522 800 475 q 814 617 808 568 q 816 634 815 625 q 818 653 817 643 l 849 949 l 1085 949 m 567 513 q 608 528 590 513 q 628 568 625 544 q 617 607 631 592 q 579 622 603 622 q 538 607 556 622 q 517 568 519 592 q 528 528 514 544 q 567 513 543 513 m 614 432 q 602 471 617 456 q 564 486 588 486 q 523 471 540 486 q 503 432 506 456 q 515 392 500 408 q 553 376 529 376 q 594 392 576 376 q 614 432 611 408 m 581 644 q 622 660 604 644 q 642 700 639 676 q 631 739 644 724 q 593 754 617 754 q 551 739 569 754 q 531 700 533 724 q 542 660 528 676 q 581 644 557 644 m 606 899 q 565 883 582 899 q 544 843 547 867 q 556 804 542 819 q 593 789 569 789 q 634 804 617 789 q 654 843 651 819 q 643 883 657 867 q 606 899 629 899 m 547 350 q 507 334 524 350 q 488 294 490 318 q 499 256 485 272 q 536 240 513 240 q 577 256 560 240 q 597 294 594 272 q 585 334 600 318 q 547 350 571 350 m 206 513 q 247 528 229 513 q 267 568 264 544 q 256 607 269 592 q 218 622 242 622 q 176 607 194 622 q 156 568 158 592 q 167 528 153 544 q 206 513 182 513 m 253 432 q 241 471 256 456 q 203 486 226 486 q 162 471 179 486 q 142 432 144 456 q 153 392 139 408 q 192 376 168 376 q 233 392 215 376 q 253 432 250 408 m 219 647 q 261 663 243 647 q 282 701 279 679 q 270 741 285 725 q 232 757 256 757 q 191 741 208 757 q 171 701 174 725 q 182 663 168 679 q 219 647 196 647 m 244 899 q 203 883 221 899 q 183 843 186 867 q 194 804 181 819 q 232 789 208 789 q 273 804 256 789 q 293 843 290 819 q 282 883 296 867 q 244 899 268 899 m 128 297 q 140 258 125 274 q 178 242 154 242 q 219 258 201 242 q 239 297 236 274 q 227 337 242 321 q 189 353 213 353 q 148 337 165 353 q 128 297 131 321 m 196 118 q 238 134 219 118 q 258 172 256 150 q 247 212 261 196 q 208 228 232 228 q 168 212 185 228 q 149 172 151 196 q 159 134 146 150 q 196 118 172 118 m 310 60 q 350 76 333 60 q 369 115 367 92 q 358 155 372 139 q 321 171 344 171 q 280 155 297 171 q 260 115 263 139 q 272 76 257 92 q 310 60 286 60 m 439 100 q 478 115 461 100 q 499 154 496 131 q 487 194 501 178 q 450 210 472 210 q 409 194 426 210 q 389 154 392 178 q 401 115 386 131 q 439 100 415 100 m 569 118 q 611 134 593 118 q 632 174 629 150 q 620 213 635 197 q 582 229 606 229 q 542 213 558 229 q 522 174 525 197 q 533 134 519 150 q 569 118 546 118 m 696 68 q 737 84 719 68 q 757 124 754 100 q 745 163 760 147 q 707 178 731 178 q 666 163 683 178 q 646 124 649 147 q 658 84 643 100 q 696 68 672 68 m 965 892 q 925 876 942 892 q 906 836 908 860 q 917 797 903 813 q 954 781 931 781 q 995 797 978 781 q 1015 836 1013 813 q 1003 876 1018 860 q 965 892 989 892 m 950 751 q 910 736 926 751 q 890 697 893 721 q 901 658 888 674 q 939 642 915 642 q 980 658 963 642 q 1000 697 997 674 q 988 736 1003 721 q 950 751 974 751 m 829 113 q 870 128 853 113 q 890 167 888 143 q 878 206 893 190 q 840 222 864 222 q 800 206 817 222 q 781 167 783 190 q 792 128 778 143 q 829 113 806 113 m 896 233 q 937 249 919 233 q 957 288 954 264 q 945 327 960 311 q 907 343 931 343 q 867 327 883 343 q 847 288 850 311 q 858 249 844 264 q 896 233 872 233 m 913 369 q 953 385 936 369 q 974 425 971 401 q 963 463 976 447 q 925 479 949 479 q 884 463 901 479 q 864 425 867 447 q 875 385 861 401 q 913 369 889 369 m 928 506 q 968 522 951 506 q 988 561 985 538 q 976 599 990 583 q 939 615 963 615 q 898 599 915 615 q 878 561 881 583 q 890 522 875 538 q 928 506 904 506 z "},"K":{"ha":654,"x_min":38,"x_max":729,"o":"m 443 474 l 631 0 l 365 0 l 293 183 l 275 0 l 38 0 l 61 238 l 136 949 l 314 949 l 374 949 l 354 765 l 464 949 l 729 949 l 443 474 m 542 904 q 501 888 518 904 q 482 849 485 872 q 493 809 479 825 q 531 793 507 793 q 572 809 554 793 q 592 849 589 825 q 580 888 594 872 q 542 904 565 904 m 463 782 q 422 766 439 782 q 401 726 404 750 q 413 688 399 703 q 450 672 426 672 q 491 688 474 672 q 511 726 508 703 q 500 766 514 750 q 463 782 486 782 m 382 667 q 341 651 358 667 q 321 611 324 635 q 333 572 318 588 q 371 557 347 557 q 411 572 394 557 q 431 611 428 588 q 419 651 433 635 q 382 667 406 667 m 160 61 q 201 77 183 61 q 221 117 218 93 q 209 156 224 140 q 171 171 194 171 q 130 156 147 171 q 110 117 113 140 q 122 77 107 93 q 160 61 136 61 m 178 199 q 217 215 200 199 q 238 254 235 231 q 226 293 240 278 q 189 308 211 308 q 148 293 165 308 q 128 254 131 278 q 140 215 125 231 q 178 199 154 199 m 193 344 q 233 360 215 344 q 253 400 250 376 q 241 439 256 424 q 204 454 226 454 q 163 439 181 454 q 143 400 146 424 q 155 360 140 376 q 193 344 169 344 m 210 499 q 251 515 233 499 q 271 554 268 531 q 260 594 274 578 q 222 610 246 610 q 181 594 199 610 q 161 554 164 578 q 172 515 158 531 q 210 499 186 499 m 225 640 q 266 656 249 640 q 286 696 283 672 q 274 735 289 719 q 236 750 260 750 q 196 735 213 750 q 176 696 179 719 q 188 656 174 672 q 225 640 201 640 m 246 788 q 285 803 268 788 q 306 842 303 818 q 294 881 308 865 q 257 897 279 897 q 216 881 233 897 q 196 842 199 865 q 208 803 193 818 q 246 788 222 788 m 272 474 q 283 434 269 450 q 321 418 297 418 q 362 434 344 418 q 382 474 379 450 q 370 512 385 496 q 332 528 356 528 q 292 512 308 528 q 272 474 275 496 m 301 342 q 313 302 299 318 q 350 286 328 286 q 391 302 374 286 q 411 342 408 318 q 399 381 414 365 q 361 396 385 396 q 322 381 339 396 q 301 342 304 365 m 519 106 q 508 145 522 129 q 471 161 494 161 q 429 145 447 161 q 408 106 411 129 q 420 67 406 82 q 458 51 435 51 q 499 67 482 51 q 519 106 517 82 m 463 222 q 451 261 465 246 q 414 276 436 276 q 373 261 390 276 q 353 222 356 246 q 365 183 350 199 q 403 167 379 167 q 442 183 425 167 q 463 222 460 199 z "},"M":{"ha":1033,"x_min":47,"x_max":1068,"o":"m 1063 654 q 1029 327 1047 490 q 994 0 1011 164 l 757 0 l 788 296 q 790 326 789 311 q 793 356 792 340 q 803 438 799 397 q 811 521 807 479 q 817 576 814 549 q 822 632 819 604 q 817 688 825 664 q 772 711 808 711 q 722 688 736 711 q 704 633 707 664 q 699 577 701 606 q 693 521 696 549 q 683 427 688 474 q 674 332 678 381 l 669 296 l 639 0 l 401 0 l 432 296 l 438 356 q 447 438 443 397 q 456 521 451 479 q 461 576 458 549 q 467 632 464 604 q 461 688 469 664 q 417 711 453 711 q 366 688 381 711 q 349 633 351 664 q 343 577 346 606 q 338 521 340 549 q 327 427 332 474 q 318 332 322 381 q 316 315 317 324 q 314 296 315 306 l 283 0 l 47 0 q 81 327 64 164 q 115 654 97 490 q 149 766 122 715 q 217 855 176 817 q 308 917 257 893 q 411 947 358 942 q 517 939 464 953 q 614 889 569 925 q 722 939 667 925 q 828 947 776 953 q 926 917 881 942 q 1003 855 971 893 q 1052 766 1036 817 q 1063 654 1068 715 m 204 443 q 164 427 181 443 q 144 388 147 411 q 156 349 142 365 q 193 333 169 333 q 234 349 217 333 q 254 388 251 365 q 242 427 257 411 q 204 443 228 443 m 158 524 q 169 485 156 500 q 207 469 183 469 q 248 485 231 469 q 268 524 265 500 q 256 563 271 547 q 218 579 242 579 q 178 563 194 579 q 158 524 161 547 m 167 57 q 207 73 190 57 q 226 113 224 89 q 215 152 229 136 q 178 168 201 168 q 137 152 154 168 q 117 113 119 136 q 128 73 114 89 q 167 57 143 57 m 181 197 q 222 213 204 197 q 242 251 239 228 q 231 291 244 275 q 193 307 217 307 q 152 291 169 307 q 132 251 135 275 q 143 213 129 228 q 181 197 157 197 m 224 606 q 265 622 247 606 q 285 661 282 638 q 274 700 288 685 q 236 715 260 715 q 195 700 213 715 q 175 661 178 685 q 186 622 172 638 q 224 606 200 606 m 290 726 q 331 742 314 726 q 351 782 349 758 q 340 821 354 806 q 303 836 326 836 q 262 821 279 836 q 242 782 244 806 q 253 742 239 758 q 290 726 267 726 m 425 771 q 466 786 449 771 q 486 825 483 801 q 474 865 489 849 q 436 881 460 881 q 395 865 413 881 q 375 825 378 849 q 387 786 372 801 q 425 771 401 771 m 1003 651 q 992 690 1006 675 q 954 706 978 706 q 913 690 931 706 q 893 651 896 675 q 905 612 890 628 q 943 596 919 596 q 983 612 967 596 q 1003 651 1000 628 m 928 463 q 969 478 951 463 q 989 517 986 493 q 978 556 992 540 q 940 572 964 572 q 899 556 917 572 q 879 517 882 540 q 890 478 876 493 q 928 463 904 463 m 974 381 q 963 420 976 404 q 926 436 950 436 q 885 420 903 436 q 864 381 867 404 q 876 342 861 357 q 914 326 890 326 q 954 342 938 326 q 974 381 971 357 m 500 775 q 512 735 497 751 q 550 719 526 719 q 590 735 572 719 q 610 775 607 751 q 598 814 613 799 q 561 829 583 829 q 520 814 538 829 q 500 775 503 799 m 567 463 q 608 478 590 463 q 628 517 625 493 q 617 556 631 540 q 579 572 603 572 q 538 556 556 572 q 518 517 521 540 q 529 478 515 493 q 567 463 543 463 m 613 381 q 602 420 615 404 q 565 436 589 436 q 524 420 542 436 q 503 381 506 404 q 515 342 500 357 q 553 326 529 326 q 593 342 576 326 q 613 381 610 357 m 551 304 q 510 288 528 304 q 489 249 492 272 q 501 210 486 225 q 539 194 515 194 q 579 210 563 194 q 599 249 596 225 q 588 288 601 272 q 551 304 575 304 m 525 50 q 566 66 549 50 q 586 106 583 82 q 575 144 589 129 q 538 160 561 160 q 497 144 515 160 q 476 106 479 129 q 488 66 474 82 q 525 50 503 50 m 583 599 q 624 615 607 599 q 644 654 642 631 q 633 692 647 676 q 594 708 618 708 q 555 692 572 708 q 535 654 538 676 q 547 615 532 631 q 583 599 561 599 m 681 739 q 722 755 704 739 q 743 794 740 771 q 731 833 746 818 q 693 849 717 849 q 653 833 669 849 q 633 794 636 818 q 644 755 631 771 q 681 739 657 739 m 810 778 q 851 794 833 778 q 872 833 869 810 q 860 872 875 857 q 822 888 846 888 q 782 872 799 888 q 763 833 765 857 q 773 794 760 810 q 810 778 786 778 m 874 775 q 885 737 871 753 q 924 721 900 721 q 963 737 946 721 q 983 775 981 753 q 972 815 986 799 q 935 831 957 831 q 894 815 911 831 q 874 775 876 799 m 911 301 q 870 286 888 301 q 850 247 853 271 q 862 208 847 224 q 900 192 876 192 q 940 208 924 192 q 960 247 957 224 q 949 286 963 271 q 911 301 935 301 m 886 50 q 927 66 910 50 q 947 106 944 82 q 936 144 950 129 q 899 160 922 160 q 858 144 876 160 q 838 106 840 129 q 849 66 835 82 q 886 50 864 50 z "},"Q":{"ha":654,"x_min":57,"x_max":703,"o":"m 669 385 q 660 311 665 347 q 645 240 656 275 q 617 172 635 206 q 567 106 599 139 l 622 -61 l 360 -61 l 340 0 q 200 29 264 -3 q 97 124 136 61 q 67 192 76 157 q 58 262 58 226 q 60 333 57 297 q 68 407 64 369 q 71 437 68 414 q 76 490 74 460 q 83 554 79 519 q 91 619 88 589 q 97 673 94 650 q 103 703 100 696 q 170 839 119 778 q 292 933 221 900 q 442 964 368 968 q 575 924 517 960 q 668 825 633 888 q 699 682 703 763 q 693 608 697 644 q 685 533 689 571 q 676 460 681 497 q 669 385 672 422 m 632 689 q 620 728 635 713 q 582 744 606 744 q 541 728 558 744 q 521 689 524 713 q 532 649 518 665 q 569 633 546 633 q 611 649 593 633 q 632 689 629 665 m 544 863 q 503 847 521 863 q 483 807 486 831 q 494 767 481 783 q 532 751 508 751 q 574 767 556 751 q 594 807 592 783 q 583 847 597 831 q 544 863 568 863 m 428 906 q 387 889 404 906 q 367 849 369 872 q 378 809 364 825 q 417 793 393 793 q 458 809 440 793 q 479 849 476 825 q 467 889 482 872 q 428 906 451 906 m 297 868 q 256 851 274 868 q 236 811 239 835 q 248 772 233 788 q 286 756 263 756 q 327 772 310 756 q 347 811 344 788 q 335 851 350 835 q 297 868 321 868 m 226 749 q 185 733 203 749 q 165 693 168 717 q 177 653 163 669 q 215 638 192 638 q 257 653 239 638 q 278 693 275 669 q 265 733 281 717 q 226 749 250 749 m 213 613 q 172 597 189 613 q 151 557 154 581 q 163 517 149 533 q 200 500 176 500 q 242 517 224 500 q 264 557 261 533 q 251 597 267 581 q 213 613 236 613 m 197 465 q 156 449 174 465 q 135 408 138 432 q 147 369 132 385 q 185 353 161 353 q 226 369 208 353 q 247 408 244 385 q 235 449 250 432 q 197 465 221 465 m 118 272 q 131 233 115 249 q 169 217 146 217 q 210 233 193 217 q 231 272 228 249 q 219 312 233 296 q 181 328 204 328 q 139 312 157 328 q 118 272 121 296 m 219 99 q 260 115 243 99 q 281 156 278 132 q 269 195 283 179 q 231 211 254 211 q 190 195 207 211 q 169 156 172 179 q 181 115 167 132 q 219 99 196 99 m 361 708 q 340 679 344 694 q 333 644 336 664 q 331 611 332 628 q 326 576 329 594 l 297 301 q 303 268 294 282 q 327 247 313 254 q 359 242 342 240 q 393 256 376 243 q 415 285 411 269 q 421 319 418 300 q 424 353 422 336 q 428 388 425 369 l 457 663 q 450 696 458 682 q 428 717 442 710 q 396 722 414 724 q 361 708 378 721 m 340 61 q 382 78 364 61 q 403 118 400 94 q 391 158 406 142 q 353 174 376 174 q 311 158 329 174 q 290 118 293 142 q 302 78 288 94 q 340 61 317 61 m 476 229 q 435 213 453 229 q 415 174 418 197 q 426 134 413 150 q 464 118 440 118 q 506 134 488 118 q 526 174 524 150 q 515 213 529 197 q 476 229 500 229 m 463 -24 q 504 -8 486 -24 q 525 32 522 8 q 513 72 528 56 q 474 89 497 89 q 433 72 450 89 q 413 32 415 56 q 424 -8 410 8 q 463 -24 439 -24 m 531 238 q 572 253 554 238 q 593 293 590 269 q 581 333 596 317 q 543 350 567 350 q 501 333 519 350 q 481 293 483 317 q 492 253 478 269 q 531 238 507 238 m 549 367 q 590 383 572 367 q 611 424 608 400 q 599 463 614 447 q 561 479 585 479 q 520 463 538 479 q 500 424 503 447 q 511 383 497 400 q 549 367 525 367 m 564 506 q 605 522 588 506 q 625 561 622 538 q 613 601 628 585 q 575 618 599 618 q 534 601 551 618 q 514 561 517 585 q 526 522 511 538 q 564 506 540 506 z "},"T":{"ha":578,"x_min":104,"x_max":644,"o":"m 644 947 l 619 710 l 481 710 l 407 0 l 169 0 l 243 710 l 104 710 l 129 947 l 644 947 m 238 775 q 278 791 261 775 q 299 831 296 807 q 288 870 301 854 q 250 886 274 886 q 208 870 226 886 q 188 831 190 854 q 199 791 185 807 q 238 775 214 775 m 296 67 q 335 82 318 67 q 356 121 353 97 q 344 160 358 144 q 307 176 329 176 q 266 160 283 176 q 246 121 249 144 q 258 82 243 97 q 296 67 272 67 m 310 206 q 349 222 332 206 q 369 261 367 238 q 358 301 372 285 q 321 317 343 317 q 280 301 297 317 q 260 261 263 285 q 272 222 257 238 q 310 206 286 206 m 325 344 q 365 360 347 344 q 385 400 382 376 q 373 440 388 424 q 336 456 358 456 q 295 440 313 456 q 275 400 278 424 q 287 360 272 376 q 325 344 301 344 m 340 494 q 380 510 363 494 q 400 550 397 526 q 388 589 403 574 q 351 604 374 604 q 310 589 328 604 q 290 550 293 574 q 302 510 288 526 q 340 494 317 494 m 354 631 q 394 647 376 631 q 414 686 411 663 q 403 726 417 710 q 367 742 389 742 q 325 726 343 742 q 304 686 307 710 q 316 647 301 663 q 354 631 331 631 m 369 774 q 409 790 392 774 q 429 828 426 806 q 417 867 432 851 q 381 883 403 883 q 340 867 357 883 q 319 828 322 851 q 331 790 317 806 q 369 774 346 774 m 510 776 q 551 792 533 776 q 571 832 568 808 q 560 871 574 856 q 522 886 546 886 q 481 871 499 886 q 460 832 463 856 q 472 792 457 808 q 510 776 486 776 z "},"V":{"ha":635,"x_min":121,"x_max":714,"o":"m 714 949 l 465 0 l 172 0 l 121 949 l 361 949 l 379 592 l 474 949 l 714 949 m 188 844 q 206 809 189 822 q 246 799 222 796 q 284 819 268 801 q 299 861 300 838 q 281 897 297 883 q 240 907 264 910 q 203 886 218 904 q 188 844 188 868 m 200 701 q 217 665 200 678 q 256 654 233 651 q 295 676 279 658 q 310 717 311 694 q 292 753 308 740 q 251 764 275 767 q 213 743 228 761 q 200 701 197 725 m 204 561 q 222 526 206 539 q 261 515 238 513 q 301 536 285 518 q 315 578 317 554 q 297 613 313 600 q 258 624 281 626 q 219 603 235 621 q 204 561 203 585 m 208 425 q 225 388 208 401 q 265 378 242 375 q 305 399 289 381 q 318 440 321 417 q 300 477 317 464 q 260 488 283 490 q 222 465 238 483 q 208 425 207 447 m 210 282 q 227 247 211 260 q 267 236 243 233 q 306 257 290 239 q 319 299 321 275 q 302 335 318 322 q 263 344 286 347 q 224 324 239 342 q 210 282 208 306 m 322 129 q 317 170 328 151 q 283 192 306 189 q 241 181 260 194 q 217 146 222 168 q 221 104 210 122 q 256 83 232 86 q 297 92 278 79 q 322 129 317 106 m 454 129 q 449 170 460 151 q 415 192 438 189 q 373 181 392 194 q 349 146 354 168 q 353 104 342 122 q 388 82 364 86 q 429 92 410 79 q 454 129 449 106 m 482 274 q 477 315 489 297 q 443 336 465 333 q 401 326 419 339 q 375 290 382 314 q 380 249 368 267 q 415 228 392 231 q 457 238 438 225 q 482 274 476 250 m 514 421 q 510 461 521 443 q 475 483 499 479 q 433 473 453 486 q 408 436 414 460 q 413 396 401 414 q 447 374 425 378 q 489 384 469 371 q 514 421 508 397 m 550 561 q 545 603 557 585 q 511 624 533 621 q 468 613 488 626 q 443 578 449 600 q 449 536 438 554 q 482 515 461 518 q 525 524 506 511 q 550 561 544 538 m 588 701 q 581 742 593 724 q 546 764 569 760 q 506 753 525 767 q 479 717 486 740 q 485 676 474 694 q 518 654 496 658 q 561 665 542 651 q 588 701 581 678 m 556 794 q 597 805 578 792 q 622 840 617 818 q 618 882 629 864 q 583 903 607 900 q 541 894 560 907 q 515 857 522 881 q 522 815 510 833 q 556 794 533 797 z "},"Z":{"ha":688,"x_min":36,"x_max":756,"o":"m 731 711 l 349 236 l 681 236 l 657 0 l 36 0 l 60 236 l 442 711 l 110 711 l 135 947 l 756 947 l 731 711 m 281 818 q 277 860 288 842 q 244 881 267 878 q 206 872 225 885 q 181 835 186 858 q 184 794 174 813 q 217 772 194 775 q 256 782 238 769 q 281 818 275 794 m 419 822 q 415 863 426 844 q 383 885 404 881 q 344 874 363 888 q 318 839 325 861 q 323 797 313 815 q 354 776 333 779 q 394 785 375 772 q 419 822 413 799 m 442 838 q 445 796 435 814 q 478 775 456 778 q 517 784 499 771 q 543 821 536 797 q 539 862 550 843 q 507 883 528 881 q 467 873 486 886 q 442 838 447 860 m 224 114 q 219 154 229 136 q 188 176 208 172 q 147 166 165 179 q 121 131 128 153 q 126 89 115 107 q 158 67 138 71 q 198 77 179 64 q 224 114 217 90 m 211 196 q 251 206 232 193 q 276 242 269 218 q 272 283 283 265 q 242 304 261 301 q 200 294 219 307 q 175 258 181 282 q 179 217 168 236 q 211 196 190 199 m 508 135 q 512 93 501 111 q 544 72 522 75 q 584 81 565 68 q 608 118 603 94 q 605 159 615 140 q 572 181 594 178 q 533 170 551 183 q 508 135 514 157 m 383 131 q 388 89 376 107 q 419 67 399 71 q 459 77 440 64 q 485 114 478 90 q 481 154 492 136 q 449 176 469 172 q 409 166 428 179 q 383 131 390 153 m 354 113 q 349 153 360 135 q 318 175 339 171 q 278 165 297 178 q 253 129 258 151 q 257 88 246 106 q 289 67 268 69 q 328 76 310 63 q 354 113 347 89 m 365 350 q 361 390 372 372 q 329 413 350 408 q 289 402 308 415 q 264 367 269 389 q 268 325 257 343 q 301 304 279 307 q 340 313 321 300 q 365 350 360 326 m 451 464 q 444 505 457 488 q 408 525 432 522 q 367 514 386 528 q 344 476 349 500 q 350 435 338 453 q 386 415 363 418 q 427 427 408 413 q 451 464 446 442 m 531 575 q 526 617 538 599 q 494 638 515 635 q 455 628 474 642 q 429 592 436 615 q 433 551 422 569 q 467 529 444 532 q 506 540 486 526 q 531 575 525 553 m 621 690 q 616 732 626 714 q 583 753 606 750 q 544 744 563 757 q 518 707 525 731 q 524 667 513 685 q 554 644 535 649 q 595 655 576 642 q 621 690 614 668 m 675 821 q 669 862 681 843 q 638 883 658 881 q 598 873 617 886 q 572 838 579 860 q 577 796 567 814 q 608 775 588 778 q 649 784 631 771 q 675 821 668 797 z "},"X":{"ha":675,"x_min":18,"x_max":751,"o":"m 511 474 l 653 0 l 397 0 l 351 154 l 274 0 l 18 0 l 257 474 l 117 949 l 372 949 l 419 793 l 496 949 l 751 949 l 511 474 m 538 861 q 546 822 533 838 q 581 804 558 806 q 619 817 601 803 q 640 856 638 832 q 632 896 644 879 q 599 914 619 913 q 558 900 576 915 q 538 861 540 885 m 474 739 q 483 699 471 715 q 518 682 496 683 q 557 695 539 681 q 578 733 575 710 q 569 774 581 757 q 535 792 557 790 q 496 778 514 793 q 474 739 478 763 m 401 613 q 411 572 399 589 q 444 554 424 556 q 485 568 467 553 q 506 607 503 583 q 497 646 510 629 q 463 664 485 663 q 423 650 440 665 q 401 613 406 635 m 386 604 q 374 642 389 626 q 336 658 360 658 q 296 642 313 658 q 276 604 279 626 q 288 565 274 581 q 325 549 301 549 q 366 565 349 549 q 386 604 383 581 m 206 854 q 217 815 203 831 q 256 799 232 799 q 297 815 279 799 q 317 854 314 831 q 305 893 319 878 q 267 908 290 908 q 226 893 243 908 q 206 854 208 878 m 246 729 q 257 690 243 706 q 294 674 271 674 q 336 690 318 674 q 357 729 354 706 q 345 769 360 753 q 307 785 331 785 q 266 769 283 785 q 246 729 249 753 m 228 96 q 218 136 231 119 q 183 154 206 153 q 143 140 161 156 q 122 101 125 125 q 132 62 119 78 q 167 44 144 46 q 206 58 189 43 q 228 96 222 72 m 299 218 q 289 258 301 242 q 254 276 276 274 q 216 263 233 278 q 194 224 199 247 q 203 184 190 200 q 238 165 215 168 q 278 179 260 164 q 299 218 296 194 m 356 347 q 346 388 358 371 q 311 406 333 404 q 272 392 289 407 q 250 353 256 376 q 260 313 247 329 q 294 296 272 297 q 334 308 317 293 q 356 347 351 324 m 372 422 q 413 438 396 422 q 433 478 431 454 q 422 516 436 500 q 385 532 408 532 q 344 516 361 532 q 324 478 326 500 q 335 438 321 454 q 372 422 349 422 m 379 350 q 390 311 376 326 q 428 296 404 296 q 469 311 451 296 q 489 350 486 326 q 477 390 492 374 q 439 406 463 406 q 399 390 415 406 q 379 350 382 374 m 556 96 q 546 136 558 119 q 513 154 533 153 q 472 140 490 156 q 451 101 454 125 q 461 62 449 78 q 496 44 474 46 q 534 58 517 43 q 556 96 551 72 m 517 221 q 505 260 519 244 q 467 276 490 276 q 426 260 443 276 q 406 221 408 244 q 417 181 403 197 q 456 165 432 165 q 497 181 479 165 q 517 221 514 197 z "},"Y":{"ha":654,"x_min":79,"x_max":717,"o":"m 717 947 q 699 772 707 860 q 681 597 690 685 q 616 432 671 507 q 474 321 561 357 l 440 0 l 204 0 l 238 321 q 117 431 156 357 q 89 597 79 506 q 107 772 99 685 q 125 947 115 860 l 361 947 q 350 835 356 890 q 338 724 344 779 q 332 667 335 696 q 326 611 329 639 q 333 557 324 581 q 378 533 342 533 q 428 557 414 533 q 444 611 442 581 q 450 667 447 639 q 456 724 453 696 q 468 835 463 779 q 479 947 474 890 l 717 947 m 240 900 q 200 885 217 900 q 181 846 183 869 q 191 806 178 822 q 228 790 204 790 q 269 806 251 790 q 290 846 288 822 q 278 885 293 869 q 240 900 264 900 m 225 765 q 185 749 201 765 q 165 710 168 733 q 176 670 163 686 q 214 654 190 654 q 255 670 238 654 q 275 710 272 686 q 263 749 278 733 q 225 765 249 765 m 149 574 q 160 534 146 550 q 199 518 175 518 q 238 534 221 518 q 258 574 256 550 q 247 613 261 597 q 210 628 232 628 q 169 613 186 628 q 149 574 151 597 m 232 397 q 273 413 256 397 q 293 451 290 428 q 281 491 296 475 q 243 507 267 507 q 203 491 221 507 q 183 451 186 475 q 195 413 181 428 q 232 397 210 397 m 368 454 q 328 438 344 454 q 308 399 311 422 q 319 360 306 375 q 357 344 333 344 q 398 360 381 344 q 418 399 415 375 q 406 438 421 422 q 368 454 392 454 m 328 65 q 369 81 351 65 q 389 119 386 96 q 378 159 392 143 q 340 175 364 175 q 299 159 317 175 q 279 119 282 143 q 290 81 276 96 q 328 65 304 65 m 343 206 q 383 222 367 206 q 403 261 400 238 q 392 300 406 285 q 354 315 378 315 q 313 300 331 315 q 293 261 296 285 q 305 222 290 238 q 343 206 319 206 m 490 390 q 531 406 514 390 q 551 444 549 422 q 540 484 554 468 q 501 500 525 500 q 461 484 478 500 q 442 444 444 468 q 453 406 439 422 q 490 390 467 390 m 557 511 q 598 527 581 511 q 618 565 615 543 q 606 605 621 589 q 568 621 592 621 q 528 605 544 621 q 508 565 511 589 q 519 527 506 543 q 557 511 533 511 m 574 647 q 615 663 597 647 q 635 703 632 679 q 624 742 638 726 q 586 757 610 757 q 545 742 563 757 q 525 703 528 726 q 536 663 522 679 q 574 647 550 647 m 589 783 q 629 799 613 783 q 649 839 646 815 q 638 877 651 861 q 600 893 624 893 q 559 877 576 893 q 539 839 542 861 q 551 799 536 815 q 589 783 565 783 z "},"?":{"ha":654,"x_min":99,"x_max":697,"o":"m 583 900 q 656 824 629 868 q 690 729 682 779 q 687 628 697 679 q 650 529 676 576 q 582 443 624 482 q 483 381 540 404 l 475 297 l 239 297 q 247 378 243 338 q 256 458 251 418 q 280 535 260 501 q 346 586 300 569 q 385 592 365 593 q 425 606 406 592 q 451 638 444 618 q 451 678 458 658 q 425 707 443 699 q 388 711 407 715 q 353 692 368 707 q 335 653 338 676 l 99 653 q 159 808 108 740 q 281 913 210 876 q 433 949 353 949 q 583 900 514 949 m 231 692 q 272 708 254 692 q 292 746 289 724 q 280 785 294 769 q 242 801 265 801 q 201 785 218 801 q 181 746 183 769 q 192 708 178 724 q 231 692 207 692 m 335 776 q 376 792 358 776 q 396 832 393 808 q 385 870 399 854 q 347 886 371 886 q 306 870 324 886 q 285 832 288 854 q 297 792 282 808 q 335 776 311 776 m 567 806 q 526 790 543 806 q 506 750 508 774 q 517 711 503 726 q 556 696 532 696 q 597 711 579 696 q 617 750 614 726 q 605 790 619 774 q 567 806 590 806 m 419 835 q 430 795 417 811 q 467 779 443 779 q 508 795 490 779 q 529 835 526 811 q 517 873 532 857 q 479 889 503 889 q 439 873 456 889 q 419 835 422 857 m 371 356 q 412 371 394 356 q 432 410 429 386 q 421 449 435 433 q 383 465 407 465 q 342 449 360 465 q 322 410 325 433 q 333 371 319 386 q 371 356 347 356 m 460 463 q 501 478 483 463 q 522 518 519 494 q 510 557 525 542 q 472 572 496 572 q 431 557 449 572 q 411 518 414 542 q 422 478 408 494 q 460 463 436 463 m 561 560 q 601 576 585 560 q 621 615 618 592 q 610 655 624 639 q 572 671 596 671 q 531 655 549 671 q 511 615 514 639 q 523 576 508 592 q 561 560 538 560 m 350 238 q 430 203 399 238 q 457 119 461 168 q 442 73 454 94 q 413 35 431 51 q 374 10 396 19 q 326 1 351 1 q 281 10 301 1 q 247 35 261 19 q 225 73 232 51 q 221 119 218 94 q 234 166 222 144 q 263 203 246 188 q 303 228 281 219 q 350 238 325 238 m 333 69 q 374 85 357 69 q 394 125 392 101 q 383 163 397 147 q 344 179 368 179 q 303 163 321 179 q 283 125 286 147 q 295 85 281 101 q 333 69 310 69 z "},"!":{"ha":310,"x_min":43,"x_max":369,"o":"m 369 949 l 301 297 l 64 297 l 132 949 l 369 949 m 188 353 q 228 368 211 353 q 249 407 246 383 q 237 447 251 431 q 199 463 222 463 q 158 447 175 463 q 139 407 142 431 q 150 368 136 383 q 188 353 164 353 m 206 490 q 247 506 229 490 q 267 546 264 522 q 255 584 269 568 q 217 600 240 600 q 176 584 193 600 q 157 546 160 568 q 168 506 154 522 q 206 490 182 490 m 219 631 q 260 647 243 631 q 281 686 278 663 q 269 725 283 710 q 232 740 256 740 q 191 725 208 740 q 171 686 174 710 q 182 647 168 663 q 219 631 196 631 m 235 774 q 276 790 258 774 q 296 828 293 806 q 284 867 299 851 q 246 883 269 883 q 206 867 222 883 q 186 828 189 851 q 197 790 183 806 q 235 774 211 774 m 175 238 q 256 203 224 238 q 283 119 288 168 q 269 73 281 94 q 239 35 257 51 q 199 10 221 19 q 151 0 176 0 q 106 10 126 0 q 72 35 86 19 q 50 73 57 51 q 46 119 43 94 q 59 166 47 144 q 88 203 71 188 q 128 228 106 219 q 175 238 150 238 m 161 71 q 202 87 185 71 q 222 126 219 103 q 210 165 225 149 q 172 181 196 181 q 132 165 149 181 q 113 126 115 149 q 124 87 110 103 q 161 71 138 71 z "},":":{"ha":290,"x_min":33,"x_max":353,"o":"m 168 238 q 248 203 217 238 q 274 118 279 168 q 260 72 271 93 q 231 34 249 50 q 192 9 214 18 q 144 0 169 0 q 99 9 119 0 q 63 34 78 18 q 41 72 49 50 q 36 118 33 93 q 80 203 42 168 q 168 238 118 238 m 151 71 q 192 86 175 71 q 211 125 208 101 q 200 165 214 149 q 163 181 186 181 q 122 165 139 181 q 101 125 104 149 q 113 86 99 101 q 151 71 128 71 m 242 946 q 322 911 290 946 q 347 826 353 876 q 333 780 344 801 q 303 742 321 758 q 264 717 286 726 q 217 708 242 708 q 171 717 192 708 q 135 742 150 726 q 114 780 121 758 q 110 826 107 801 q 153 911 115 876 q 242 946 192 946 m 224 779 q 265 794 247 779 q 285 833 282 810 q 274 873 288 857 q 236 889 260 889 q 195 873 213 889 q 175 833 178 857 q 186 794 172 810 q 224 779 200 779 z "},";":{"ha":290,"x_min":32,"x_max":353,"o":"m 242 946 q 322 911 290 946 q 347 826 353 876 q 333 780 344 801 q 303 742 321 758 q 264 717 286 726 q 217 708 242 708 q 171 717 192 708 q 135 742 150 726 q 114 780 121 758 q 110 826 107 801 q 153 911 115 876 q 242 946 192 946 m 224 779 q 265 794 247 779 q 285 833 282 810 q 274 873 288 857 q 236 889 260 889 q 195 873 213 889 q 175 833 178 857 q 186 794 172 810 q 224 779 200 779 m 276 126 q 278 122 276 124 q 276 121 279 121 q 222 -30 267 36 q 108 -147 178 -96 q 78 -151 93 -158 q 64 -126 63 -144 q 65 -94 65 -111 q 63 -62 64 -78 q 54 -33 60 -47 q 44 -4 49 -19 q 35 58 38 28 q 39 121 32 88 q 53 167 42 146 q 83 205 65 189 q 124 230 101 221 q 171 239 146 239 q 250 204 219 239 q 271 165 265 188 q 275 143 275 154 q 276 132 276 139 l 276 126 m 150 51 q 191 67 174 51 q 211 107 208 83 q 200 146 214 131 q 163 161 186 161 q 122 146 139 161 q 101 107 104 131 q 113 67 99 83 q 150 51 126 51 z "},".":{"ha":289,"x_min":33,"x_max":279,"o":"m 168 238 q 248 203 217 238 q 274 118 279 168 q 260 72 271 93 q 231 34 249 50 q 192 9 214 18 q 144 0 169 0 q 99 9 119 0 q 63 34 78 18 q 41 72 49 50 q 36 118 33 93 q 80 203 42 168 q 168 238 118 238 m 151 71 q 192 86 175 71 q 211 125 208 101 q 200 165 214 149 q 163 181 186 181 q 122 165 139 181 q 101 125 104 149 q 113 86 99 101 q 151 71 128 71 z "},",":{"ha":293,"x_min":32,"x_max":279,"o":"m 276 126 q 278 122 276 124 q 276 121 279 121 q 222 -30 267 36 q 108 -147 178 -96 q 78 -151 93 -158 q 64 -126 63 -144 q 65 -94 65 -111 q 63 -62 64 -78 q 54 -33 60 -47 q 44 -4 49 -19 q 35 58 38 28 q 39 121 32 88 q 53 167 42 146 q 83 205 65 189 q 124 230 101 221 q 171 239 146 239 q 250 204 219 239 q 271 165 265 188 q 275 143 275 154 q 276 132 276 139 l 276 126 m 150 51 q 191 67 174 51 q 211 107 208 83 q 200 146 214 131 q 163 161 186 161 q 122 146 139 161 q 101 107 104 131 q 113 67 99 83 q 150 51 126 51 z "},"a":{"ha":654,"x_min":33,"x_max":694,"o":"m 661 814 q 684 759 676 786 q 693 704 692 732 q 692 648 694 676 q 688 589 690 619 q 683 547 685 568 q 679 503 682 525 l 663 354 l 626 0 l 389 0 l 413 236 l 294 236 l 271 0 l 33 0 q 57 235 44 118 q 82 469 69 351 q 87 516 83 483 q 94 586 90 549 q 103 656 99 624 q 111 703 107 689 q 166 812 129 763 q 256 896 203 861 q 369 942 310 931 q 484 942 429 953 q 585 898 539 931 q 661 814 632 865 m 632 658 q 621 698 635 682 q 583 714 607 714 q 542 698 560 714 q 522 658 525 682 q 533 620 519 636 q 571 604 547 604 q 612 620 594 604 q 632 658 629 636 m 542 831 q 501 815 518 831 q 481 775 483 799 q 492 735 478 751 q 531 719 507 719 q 570 735 553 719 q 590 775 588 751 q 578 815 593 799 q 542 831 564 831 m 424 876 q 383 860 400 876 q 363 821 365 844 q 374 781 360 797 q 411 765 388 765 q 453 781 435 765 q 474 821 471 797 q 462 860 476 844 q 424 876 447 876 m 347 675 q 336 642 336 658 q 335 608 336 625 q 327 541 331 575 q 319 474 324 507 l 438 474 q 445 541 442 507 q 453 608 449 575 q 458 642 454 625 q 454 675 461 658 q 435 702 447 694 q 403 710 424 710 q 347 675 364 710 m 296 832 q 255 816 272 832 q 235 778 238 800 q 247 738 232 754 q 285 722 261 722 q 325 738 308 722 q 344 778 342 754 q 333 816 347 800 q 296 832 319 832 m 231 714 q 189 698 207 714 q 168 658 171 682 q 180 619 165 635 q 218 604 194 604 q 258 619 242 604 q 278 658 275 635 q 267 698 281 682 q 231 714 254 714 m 215 576 q 174 561 192 576 q 154 522 157 546 q 166 483 151 499 q 204 467 181 467 q 244 483 228 467 q 264 522 261 499 q 253 561 267 546 q 215 576 239 576 m 199 442 q 158 426 175 442 q 139 386 142 410 q 150 347 136 363 q 188 331 164 331 q 228 347 211 331 q 249 386 246 363 q 237 426 251 410 q 199 442 222 442 m 164 58 q 203 74 186 58 q 224 113 221 89 q 212 152 226 136 q 175 168 197 168 q 134 152 151 168 q 114 113 117 136 q 126 74 111 89 q 164 58 140 58 m 179 190 q 220 206 203 190 q 240 244 238 221 q 228 284 243 268 q 190 300 214 300 q 150 284 167 300 q 131 244 133 268 q 142 206 128 221 q 179 190 156 190 m 299 281 q 339 297 322 281 q 358 336 356 313 q 347 374 361 358 q 310 390 333 390 q 269 374 286 390 q 249 336 251 358 q 260 297 246 313 q 299 281 275 281 m 424 281 q 463 297 446 281 q 483 336 481 313 q 472 374 486 358 q 435 390 457 390 q 394 374 411 390 q 374 336 376 358 q 385 297 371 313 q 424 281 400 281 m 511 65 q 553 81 535 65 q 574 119 571 96 q 562 159 576 143 q 524 175 547 175 q 484 159 501 175 q 464 119 467 143 q 475 81 461 96 q 511 65 489 65 m 525 197 q 567 213 549 197 q 588 253 585 229 q 576 291 590 275 q 538 307 561 307 q 498 291 515 307 q 478 253 481 275 q 489 213 475 229 q 525 197 503 197 m 546 333 q 586 349 569 333 q 606 389 603 365 q 594 428 608 413 q 557 443 581 443 q 516 428 533 443 q 496 389 499 413 q 508 349 493 365 q 546 333 522 333 m 560 469 q 600 485 583 469 q 619 525 617 501 q 608 564 622 549 q 571 579 594 579 q 530 564 547 579 q 510 525 513 549 q 522 485 507 501 q 560 469 536 469 z "},"b":{"ha":654,"x_min":35,"x_max":704,"o":"m 429 947 q 585 901 521 947 q 676 784 649 854 q 691 631 704 714 q 615 474 678 547 q 658 317 663 400 q 612 164 654 235 q 496 47 569 93 q 331 0 422 0 l 271 0 l 211 0 l 35 0 l 133 947 l 310 947 l 369 947 l 429 947 m 160 72 q 201 88 183 72 q 221 126 218 103 q 209 166 224 150 q 171 182 194 182 q 131 166 147 182 q 111 126 114 150 q 122 88 108 103 q 160 72 136 72 m 174 211 q 215 227 197 211 q 236 267 233 243 q 224 306 239 290 q 186 321 210 321 q 146 306 163 321 q 126 267 129 290 q 137 227 124 243 q 174 211 150 211 m 189 353 q 230 369 213 353 q 250 407 247 385 q 238 447 253 431 q 200 463 224 463 q 160 447 176 463 q 140 407 143 431 q 151 369 138 385 q 189 353 165 353 m 204 490 q 245 506 228 490 q 265 546 263 522 q 253 585 268 569 q 215 601 239 601 q 175 585 192 601 q 156 546 158 569 q 167 506 153 522 q 204 490 181 490 m 219 636 q 260 652 243 636 q 281 692 278 668 q 269 731 283 715 q 231 747 254 747 q 190 731 207 747 q 171 692 174 715 q 182 652 168 668 q 219 636 196 636 m 233 779 q 275 794 257 779 q 296 833 293 810 q 284 873 299 857 q 246 889 269 889 q 206 873 222 889 q 186 833 189 857 q 197 794 183 810 q 233 779 210 779 m 400 485 q 412 447 397 463 q 449 431 426 431 q 490 447 472 431 q 510 485 507 463 q 498 524 513 508 q 460 540 483 540 q 420 524 438 540 q 400 485 403 508 m 419 296 q 406 338 422 321 q 367 356 390 356 l 307 356 l 294 238 l 354 238 q 397 255 378 238 q 419 296 417 272 m 392 593 q 435 610 415 593 q 457 651 454 628 q 444 694 460 676 q 404 711 428 711 l 344 711 l 332 593 l 392 593 m 529 435 q 489 419 506 435 q 469 381 472 403 q 481 341 467 357 q 518 325 494 325 q 559 341 542 325 q 579 381 576 357 q 567 419 582 403 q 529 435 553 435 m 563 538 q 603 553 586 538 q 624 593 621 569 q 612 631 626 615 q 574 647 597 647 q 533 631 550 647 q 514 593 517 615 q 525 553 511 569 q 563 538 539 538 m 631 726 q 619 766 633 750 q 582 782 606 782 q 542 766 560 782 q 521 726 524 750 q 533 688 518 703 q 569 672 547 672 q 610 688 593 672 q 631 726 628 703 m 506 881 q 465 865 482 881 q 444 825 447 849 q 456 786 442 801 q 494 771 471 771 q 535 786 518 771 q 556 825 553 801 q 544 865 558 849 q 506 881 529 881 m 378 888 q 337 872 354 888 q 317 832 319 856 q 328 793 314 808 q 365 778 342 778 q 406 793 389 778 q 426 832 424 808 q 415 872 429 856 q 378 888 401 888 m 332 539 q 291 523 308 539 q 271 483 274 507 q 283 444 268 460 q 321 429 297 429 q 360 444 343 429 q 381 483 378 460 q 369 523 383 507 q 332 539 354 539 m 296 69 q 337 85 319 69 q 357 125 354 101 q 345 163 360 147 q 307 179 331 179 q 267 163 285 179 q 247 125 250 147 q 259 85 244 101 q 296 69 274 69 m 429 90 q 471 106 453 90 q 492 146 489 122 q 480 185 494 169 q 442 200 465 200 q 401 185 418 200 q 381 146 383 169 q 392 106 378 122 q 429 90 406 90 m 596 251 q 584 290 599 275 q 546 306 569 306 q 506 290 522 306 q 486 251 489 275 q 497 212 483 228 q 533 196 510 196 q 575 212 557 196 q 596 251 593 228 z "},"c":{"ha":654,"x_min":61,"x_max":701,"o":"m 651 297 l 656 297 q 608 160 647 222 q 510 59 568 99 q 381 6 451 19 q 243 14 311 -8 q 131 83 176 35 q 71 200 86 132 q 63 267 61 233 q 68 336 64 300 q 75 405 71 371 q 82 475 79 439 q 90 544 86 510 q 97 613 93 578 q 106 682 100 649 q 128 750 113 715 q 213 865 158 817 q 339 935 268 914 q 480 944 413 957 q 597 890 547 931 q 674 788 647 850 q 693 651 701 726 l 457 651 q 444 692 460 675 q 404 711 428 710 q 362 697 381 713 q 338 657 343 681 q 327 565 331 611 q 318 475 324 519 q 308 383 314 429 q 300 293 301 338 q 315 253 299 269 q 354 238 331 236 q 398 256 379 239 q 419 297 417 274 l 651 297 m 560 819 q 519 804 536 819 q 499 765 501 789 q 510 726 496 742 q 547 710 524 710 q 588 726 571 710 q 608 765 606 742 q 597 804 611 789 q 560 819 583 819 m 433 878 q 392 862 410 878 q 372 822 375 846 q 384 783 369 799 q 422 767 399 767 q 463 783 446 767 q 483 822 481 799 q 472 862 486 846 q 433 878 457 878 m 300 833 q 258 817 276 833 q 238 779 240 801 q 249 740 235 756 q 288 724 264 724 q 328 740 311 724 q 349 779 346 756 q 338 817 351 801 q 300 833 324 833 m 232 713 q 191 697 208 713 q 171 658 174 681 q 183 619 168 635 q 221 603 197 603 q 262 619 244 603 q 282 658 279 635 q 270 697 285 681 q 232 713 256 713 m 215 576 q 175 560 192 576 q 156 521 158 544 q 167 482 153 497 q 204 467 181 467 q 245 482 228 467 q 265 521 263 497 q 253 560 268 544 q 215 576 239 576 m 201 440 q 161 424 178 440 q 142 385 144 408 q 153 346 139 361 q 190 331 167 331 q 231 346 214 331 q 251 385 249 361 q 240 424 254 408 q 201 440 225 440 m 135 253 q 145 213 132 229 q 182 197 158 197 q 224 213 206 197 q 244 253 242 229 q 233 291 247 275 q 194 307 218 307 q 154 291 171 307 q 135 253 138 275 m 249 90 q 290 106 272 90 q 311 146 308 122 q 299 184 314 168 q 261 200 285 200 q 222 184 239 200 q 201 146 204 168 q 213 106 199 122 q 249 90 226 90 m 378 67 q 419 83 401 67 q 439 122 436 99 q 427 162 442 146 q 389 178 413 178 q 349 162 367 178 q 329 122 332 146 q 341 83 326 99 q 378 67 356 67 m 497 149 q 538 165 521 149 q 558 204 556 181 q 547 243 561 228 q 508 258 532 258 q 467 243 485 258 q 447 204 450 228 q 459 165 444 181 q 497 149 474 149 z "},"d":{"ha":654,"x_min":35,"x_max":700,"o":"m 429 947 q 542 924 490 947 q 629 861 593 901 q 683 767 665 821 q 694 651 700 713 l 657 296 q 622 181 650 235 q 549 88 593 128 q 448 24 504 47 q 331 0 392 0 l 271 0 l 213 0 l 35 0 l 133 947 l 311 947 l 369 947 l 429 947 m 622 668 q 610 708 625 692 q 572 724 596 724 q 532 708 549 724 q 513 668 515 692 q 524 629 510 644 q 561 614 538 614 q 602 629 585 614 q 622 668 619 644 m 518 840 q 478 824 496 840 q 458 785 461 808 q 470 747 456 763 q 507 731 485 731 q 548 747 531 731 q 568 785 565 763 q 556 824 571 808 q 518 840 542 840 m 392 882 q 352 866 369 882 q 332 826 335 850 q 344 788 329 803 q 381 772 358 772 q 422 788 404 772 q 442 826 439 803 q 430 866 444 850 q 392 882 415 882 m 165 64 q 206 80 188 64 q 226 119 224 96 q 215 159 229 143 q 178 175 200 175 q 137 159 154 175 q 117 119 119 143 q 128 80 114 96 q 165 64 142 64 m 181 204 q 220 220 203 204 q 240 260 238 236 q 228 299 243 283 q 192 314 214 314 q 151 299 168 314 q 131 260 133 283 q 142 220 128 236 q 181 204 157 204 m 194 343 q 235 359 217 343 q 256 399 253 375 q 244 438 258 422 q 207 453 229 453 q 166 438 183 453 q 146 399 149 422 q 157 359 143 375 q 194 343 171 343 m 211 493 q 251 509 233 493 q 271 549 268 525 q 259 587 274 571 q 222 603 244 603 q 181 587 199 603 q 161 549 164 571 q 173 509 158 525 q 211 493 188 493 m 225 629 q 265 645 247 629 q 285 685 282 661 q 273 724 288 708 q 236 739 258 739 q 195 724 213 739 q 175 685 178 708 q 187 645 172 661 q 225 629 201 629 m 240 772 q 280 788 263 772 q 300 826 297 803 q 288 866 303 850 q 251 882 274 882 q 210 866 228 882 q 190 826 193 850 q 202 788 188 803 q 240 772 217 772 m 306 64 q 347 80 329 64 q 367 119 364 96 q 356 159 369 143 q 318 175 342 175 q 277 159 294 175 q 257 119 260 143 q 268 80 254 96 q 306 64 282 64 m 371 239 q 403 260 390 244 q 419 294 417 275 q 428 369 426 332 q 435 444 431 407 q 443 519 439 482 q 450 594 447 557 q 456 630 453 613 q 457 665 460 647 l 457 667 l 457 669 q 456 675 456 671 q 454 676 456 676 q 453 679 454 679 l 453 681 q 449 688 450 686 q 447 690 449 689 q 446 692 447 690 l 444 693 q 443 694 444 694 q 442 696 443 694 l 440 697 l 439 699 q 438 699 438 699 q 436 700 438 700 l 436 701 q 435 703 436 701 l 433 703 q 431 704 432 704 q 429 706 431 704 l 426 706 q 421 708 424 708 q 383 713 401 714 q 344 711 364 711 l 332 592 l 294 238 q 333 235 314 238 q 371 239 351 233 m 440 94 q 481 110 464 94 q 500 150 497 126 q 489 188 503 172 q 451 204 475 204 q 410 188 428 204 q 390 150 393 172 q 402 110 388 126 q 440 94 417 94 m 519 215 q 560 231 543 215 q 581 271 578 247 q 569 310 583 294 q 531 326 554 326 q 490 310 507 326 q 471 271 474 294 q 482 231 468 247 q 519 215 496 215 m 543 350 q 584 366 567 350 q 604 406 601 382 q 592 444 607 429 q 554 460 578 460 q 513 444 531 460 q 493 406 496 429 q 505 366 490 382 q 543 350 519 350 m 557 485 q 598 501 581 485 q 618 540 615 517 q 607 580 621 564 q 569 596 593 596 q 528 580 546 596 q 507 540 510 564 q 519 501 504 517 q 557 485 533 485 z "},"e":{"ha":654,"x_min":29,"x_max":719,"o":"m 339 711 l 326 593 l 682 593 l 657 356 l 301 356 l 289 238 l 644 238 l 621 0 l 265 0 l 207 0 l 29 0 l 128 949 l 306 949 l 364 949 l 719 949 l 694 711 l 339 711 m 622 892 q 583 876 600 892 q 563 838 565 861 q 574 798 560 814 q 611 782 589 782 q 652 798 635 782 q 672 838 669 814 q 660 876 675 861 q 622 892 646 892 m 490 893 q 450 878 467 893 q 431 839 433 863 q 442 799 428 815 q 479 783 456 783 q 520 799 503 783 q 540 839 538 815 q 528 878 543 863 q 490 893 514 893 m 142 75 q 183 91 165 75 q 203 131 200 107 q 191 169 206 154 q 153 185 176 185 q 112 169 129 185 q 92 131 94 154 q 103 91 89 107 q 142 75 118 75 m 157 215 q 198 231 181 215 q 218 269 215 246 q 206 309 221 293 q 168 325 192 325 q 127 309 144 325 q 107 269 110 293 q 119 231 104 246 q 157 215 133 215 m 171 354 q 212 369 194 354 q 232 408 229 385 q 221 448 235 432 q 183 464 207 464 q 142 448 160 464 q 121 408 124 432 q 133 369 118 385 q 171 354 147 354 m 186 499 q 227 515 210 499 q 247 554 244 531 q 236 593 250 578 q 199 608 222 608 q 157 593 175 608 q 136 554 139 578 q 148 515 133 531 q 186 499 163 499 m 201 640 q 242 656 225 640 q 263 694 260 672 q 251 734 265 718 q 213 750 236 750 q 172 734 189 750 q 151 694 154 718 q 163 656 149 672 q 201 640 178 640 m 217 782 q 258 798 240 782 q 278 838 275 814 q 266 876 281 861 q 228 892 251 892 q 187 876 204 892 q 167 838 169 861 q 178 798 164 814 q 217 782 193 782 m 546 181 q 505 165 522 181 q 485 125 488 149 q 497 86 482 101 q 535 71 511 71 q 575 86 558 71 q 594 125 592 101 q 583 165 597 149 q 546 181 569 181 m 414 182 q 373 166 390 182 q 353 126 356 150 q 365 88 350 103 q 403 72 379 72 q 442 88 425 72 q 463 126 460 103 q 451 166 465 150 q 414 182 436 182 m 329 128 q 318 167 332 151 q 281 183 304 183 q 240 167 257 183 q 219 128 222 151 q 231 89 217 104 q 269 74 246 74 q 310 89 293 74 q 329 128 326 104 m 590 536 q 549 521 567 536 q 529 482 532 506 q 541 442 526 458 q 579 426 556 426 q 619 442 603 426 q 639 482 636 458 q 628 521 642 506 q 590 536 614 536 m 453 535 q 413 519 429 535 q 393 479 396 503 q 404 440 390 456 q 442 424 418 424 q 483 440 465 424 q 503 479 500 456 q 491 519 506 503 q 453 535 476 535 m 365 478 q 354 517 368 501 q 317 532 340 532 q 276 517 293 532 q 256 478 258 501 q 267 438 253 454 q 304 422 281 422 q 345 438 328 422 q 365 478 363 454 m 346 785 q 387 801 369 785 q 407 840 404 817 q 395 879 410 864 q 357 894 381 894 q 317 879 335 894 q 297 840 300 864 q 309 801 294 817 q 346 785 324 785 z "},"f":{"ha":654,"x_min":33,"x_max":725,"o":"m 344 711 l 332 592 l 688 592 l 663 356 l 307 356 l 294 238 l 271 0 l 211 0 l 33 0 l 132 947 l 310 947 l 369 947 l 725 947 l 700 711 l 344 711 m 154 65 q 196 81 178 65 q 217 121 214 97 q 205 160 219 144 q 167 175 190 175 q 126 160 143 175 q 106 121 108 144 q 117 81 103 97 q 154 65 131 65 m 169 206 q 210 222 193 206 q 231 260 228 238 q 219 299 233 283 q 181 315 204 315 q 140 299 157 315 q 119 260 122 283 q 131 222 117 238 q 169 206 146 206 m 185 344 q 226 360 208 344 q 246 399 243 375 q 234 438 249 422 q 196 454 219 454 q 155 438 172 454 q 135 399 138 422 q 147 360 132 375 q 185 344 161 344 m 199 489 q 240 505 222 489 q 261 544 258 521 q 249 583 264 568 q 211 599 235 599 q 170 583 188 599 q 150 544 153 568 q 161 505 147 521 q 199 489 175 489 m 214 631 q 255 647 238 631 q 275 686 272 663 q 264 724 278 708 q 226 740 250 740 q 185 724 203 740 q 164 686 167 708 q 176 647 161 663 q 214 631 190 631 m 229 772 q 270 788 253 772 q 290 828 288 804 q 278 867 293 851 q 240 882 264 882 q 199 867 217 882 q 179 828 182 851 q 191 788 176 804 q 229 772 206 772 m 633 883 q 592 868 610 883 q 572 829 575 853 q 584 790 569 806 q 622 774 599 774 q 663 790 646 774 q 682 829 679 806 q 671 868 685 853 q 633 883 657 883 m 503 883 q 462 868 479 883 q 442 829 444 853 q 453 790 439 806 q 492 774 468 774 q 533 790 515 774 q 553 829 550 806 q 541 868 556 853 q 503 883 526 883 m 597 535 q 556 519 574 535 q 536 481 539 503 q 548 441 533 457 q 586 425 563 425 q 626 441 610 425 q 646 481 643 457 q 635 519 649 503 q 597 535 621 535 m 460 532 q 419 517 436 532 q 400 478 403 501 q 410 438 397 454 q 447 422 424 422 q 489 438 471 422 q 510 478 507 454 q 498 517 513 501 q 460 532 483 532 m 372 476 q 361 515 375 500 q 324 531 347 531 q 283 515 300 531 q 263 476 265 500 q 274 437 260 453 q 311 421 288 421 q 352 437 335 421 q 372 476 369 453 m 310 831 q 322 791 307 807 q 358 775 336 775 q 399 791 382 775 q 419 831 417 807 q 408 869 422 854 q 369 885 393 885 q 330 869 347 885 q 310 831 313 854 z "},"g":{"ha":654,"x_min":57,"x_max":697,"o":"m 346 593 l 682 593 l 651 297 q 603 160 643 222 q 506 59 564 99 q 377 6 447 19 q 239 15 307 -7 q 126 85 172 36 q 65 200 81 133 q 58 268 57 235 q 63 336 58 301 q 70 406 67 372 q 76 475 74 440 q 84 544 81 510 q 92 614 88 579 q 101 683 94 649 q 122 750 107 717 q 208 866 153 817 q 335 936 264 915 q 476 944 408 958 q 593 891 543 931 q 670 790 643 851 q 689 653 697 728 l 451 653 q 439 694 454 676 q 400 713 424 711 q 358 697 376 714 q 333 657 339 681 q 323 566 326 611 q 314 475 319 521 q 303 385 310 431 q 296 293 297 339 q 310 253 294 269 q 351 239 326 238 q 393 256 375 239 q 414 297 411 274 l 421 357 l 322 357 l 346 593 m 556 825 q 515 809 532 825 q 496 769 499 793 q 507 731 493 746 q 544 715 521 715 q 585 731 568 715 q 606 769 603 746 q 594 809 608 793 q 556 825 579 825 m 440 888 q 399 872 417 888 q 378 832 381 856 q 390 792 375 808 q 428 776 404 776 q 467 792 450 776 q 488 832 485 808 q 476 872 490 856 q 440 888 463 888 m 311 847 q 270 832 288 847 q 250 793 253 817 q 261 753 247 769 q 299 738 275 738 q 340 753 322 738 q 360 793 357 769 q 349 832 363 817 q 311 847 335 847 m 235 732 q 194 716 211 732 q 175 676 178 700 q 186 638 172 653 q 224 622 200 622 q 265 638 247 622 q 285 676 282 653 q 273 716 288 700 q 235 732 258 732 m 208 593 q 167 577 185 593 q 147 538 150 561 q 159 499 144 514 q 197 483 174 483 q 238 499 221 483 q 258 538 256 514 q 247 577 261 561 q 208 593 232 593 m 194 457 q 153 441 171 457 q 133 401 136 425 q 145 363 131 378 q 183 347 160 347 q 224 363 207 347 q 244 401 242 378 q 233 441 247 425 q 194 457 218 457 m 126 269 q 138 230 124 246 q 176 214 153 214 q 217 230 200 214 q 236 269 233 246 q 225 308 239 292 q 188 324 211 324 q 147 308 164 324 q 126 269 129 292 m 239 104 q 281 120 263 104 q 301 160 299 136 q 290 199 304 183 q 251 214 275 214 q 211 199 228 214 q 192 160 194 183 q 202 120 189 136 q 239 104 215 104 m 374 76 q 415 92 397 76 q 435 132 432 108 q 424 172 438 156 q 386 188 410 188 q 345 172 363 188 q 325 132 328 156 q 336 92 322 108 q 374 76 350 76 m 539 283 q 580 299 563 283 q 600 338 597 315 q 588 377 603 361 q 550 393 574 393 q 509 377 526 393 q 489 338 492 361 q 501 299 486 315 q 539 283 515 283 m 558 532 q 517 517 535 532 q 497 478 500 501 q 508 438 494 454 q 546 422 522 422 q 588 438 569 422 q 608 478 606 454 q 597 517 611 501 q 558 532 582 532 m 507 261 q 466 246 483 261 q 446 207 449 231 q 458 167 443 183 q 496 151 472 151 q 535 167 518 151 q 556 207 553 183 q 544 246 558 231 q 507 261 529 261 m 428 529 q 386 513 404 529 q 365 474 368 497 q 377 435 363 450 q 415 419 392 419 q 456 435 439 419 q 475 474 472 450 q 465 513 478 497 q 428 529 451 529 z "},"h":{"ha":654,"x_min":32,"x_max":722,"o":"m 722 949 l 685 593 l 660 356 l 624 0 l 388 0 l 424 356 l 304 356 l 268 0 l 32 0 l 68 356 l 93 593 l 131 949 l 367 949 l 329 593 l 449 593 l 486 949 l 722 949 m 149 72 q 189 88 172 72 q 208 126 206 104 q 197 166 211 150 q 160 182 183 182 q 119 166 136 182 q 99 126 101 150 q 110 88 96 104 q 149 72 125 72 m 163 211 q 203 227 186 211 q 224 267 221 243 q 213 306 226 290 q 175 322 199 322 q 134 306 151 322 q 114 267 117 290 q 125 227 111 243 q 163 211 139 211 m 178 350 q 218 366 201 350 q 238 406 235 382 q 226 445 240 429 q 189 461 213 461 q 148 445 165 461 q 128 406 131 429 q 140 366 125 382 q 178 350 154 350 m 193 500 q 234 516 217 500 q 254 556 251 532 q 243 594 257 579 q 206 610 229 610 q 165 594 182 610 q 144 556 147 579 q 156 516 142 532 q 193 500 169 500 m 208 638 q 249 653 232 638 q 268 692 265 668 q 257 731 271 715 q 219 747 243 747 q 178 731 196 747 q 158 692 161 715 q 170 653 156 668 q 208 638 185 638 m 222 779 q 263 795 246 779 q 283 833 281 811 q 272 873 286 857 q 235 889 258 889 q 194 873 211 889 q 174 833 176 857 q 185 795 171 811 q 222 779 199 779 m 301 425 q 342 441 325 425 q 363 481 360 457 q 351 520 365 504 q 313 536 336 536 q 272 520 289 536 q 251 481 254 504 q 263 441 249 457 q 301 425 278 425 m 431 425 q 472 441 454 425 q 492 481 489 457 q 480 520 494 504 q 442 536 465 536 q 402 520 419 536 q 382 481 385 504 q 394 441 379 457 q 431 425 408 425 m 510 83 q 551 99 533 83 q 571 139 568 115 q 559 177 574 161 q 521 193 544 193 q 480 177 497 193 q 460 139 463 161 q 472 99 457 115 q 510 83 486 83 m 524 224 q 565 239 547 224 q 586 278 583 254 q 574 317 589 301 q 536 333 560 333 q 495 317 513 333 q 475 278 478 301 q 486 239 472 254 q 524 224 500 224 m 539 363 q 580 378 563 363 q 600 417 597 393 q 588 456 603 440 q 550 472 574 472 q 509 456 526 472 q 489 417 492 440 q 501 378 486 393 q 539 363 515 363 m 554 511 q 595 527 578 511 q 615 567 613 543 q 604 606 618 590 q 567 622 590 622 q 525 606 543 622 q 504 567 507 590 q 516 527 501 543 q 554 511 531 511 m 569 649 q 610 664 593 649 q 631 703 628 679 q 619 742 633 726 q 581 758 604 758 q 540 742 557 758 q 519 703 522 726 q 531 664 517 679 q 569 649 546 649 m 583 790 q 625 806 607 790 q 646 846 643 822 q 634 885 649 869 q 596 900 619 900 q 555 885 572 900 q 535 846 538 869 q 546 806 532 822 q 583 790 560 790 z "},"i":{"ha":329,"x_min":47,"x_max":383,"o":"m 383 947 l 285 0 l 47 0 l 146 947 l 383 947 m 172 65 q 213 81 196 65 q 233 119 231 96 q 222 159 236 143 q 185 175 208 175 q 144 159 161 175 q 124 119 126 143 q 135 81 121 96 q 172 65 149 65 m 188 204 q 228 220 211 204 q 247 260 244 236 q 236 299 250 283 q 199 315 222 315 q 158 299 175 315 q 138 260 140 283 q 149 220 135 236 q 188 204 164 204 m 201 343 q 242 359 225 343 q 263 399 260 375 q 251 438 265 422 q 214 454 238 454 q 173 438 190 454 q 153 399 156 422 q 164 359 150 375 q 201 343 178 343 m 218 493 q 258 509 242 493 q 278 549 275 525 q 267 588 281 572 q 229 603 253 603 q 188 588 206 603 q 168 549 171 572 q 180 509 165 525 q 218 493 194 493 m 232 629 q 272 645 256 629 q 292 685 289 661 q 281 724 294 708 q 244 740 268 740 q 203 724 221 740 q 182 685 185 708 q 194 645 179 661 q 232 629 208 629 m 247 772 q 288 788 271 772 q 307 826 304 803 q 296 866 310 850 q 258 882 282 882 q 217 866 235 882 q 197 826 200 850 q 209 788 194 803 q 247 772 224 772 z "},"j":{"ha":654,"x_min":44,"x_max":714,"o":"m 714 949 l 683 651 l 664 474 q 657 405 661 439 q 650 335 653 371 q 640 267 646 300 q 619 199 635 233 q 532 83 588 132 q 406 13 476 33 q 265 4 332 -10 q 148 58 197 18 q 72 159 99 97 q 53 296 44 221 l 57 296 l 290 296 q 302 255 288 272 q 340 238 317 238 q 383 252 364 236 q 408 292 403 268 q 419 383 415 338 q 426 474 422 429 l 446 656 l 476 949 l 714 949 m 194 135 q 234 151 217 135 q 254 190 251 167 q 242 230 257 214 q 206 246 228 246 q 165 230 182 246 q 144 190 147 214 q 156 151 142 167 q 194 135 171 135 m 308 61 q 349 77 332 61 q 369 117 367 93 q 358 156 372 140 q 321 172 344 172 q 280 156 297 172 q 260 117 263 140 q 271 77 257 93 q 308 61 285 61 m 589 896 q 548 880 565 896 q 528 842 531 864 q 540 802 525 818 q 578 786 554 786 q 619 802 601 786 q 639 842 636 818 q 627 880 642 864 q 589 896 613 896 m 575 757 q 534 741 551 757 q 514 701 517 725 q 525 663 511 679 q 563 647 539 647 q 604 663 586 647 q 625 701 622 679 q 613 741 628 725 q 575 757 599 757 m 451 99 q 492 115 475 99 q 513 153 510 131 q 501 192 515 176 q 463 208 486 208 q 422 192 439 208 q 401 153 404 176 q 413 115 399 131 q 451 99 428 99 m 518 224 q 560 240 542 224 q 581 279 578 256 q 569 318 583 303 q 531 333 554 333 q 490 318 507 333 q 469 279 472 303 q 481 240 467 256 q 518 224 494 224 m 536 368 q 576 383 558 368 q 596 422 593 399 q 585 462 599 446 q 549 478 571 478 q 507 462 525 478 q 486 422 489 446 q 498 383 483 399 q 536 368 513 368 m 551 503 q 591 519 574 503 q 611 558 608 535 q 599 598 614 582 q 563 614 585 614 q 522 598 539 614 q 501 558 504 582 q 513 519 499 535 q 551 503 528 503 z "},"k":{"ha":654,"x_min":38,"x_max":729,"o":"m 443 474 l 631 0 l 365 0 l 293 183 l 275 0 l 38 0 l 61 238 l 136 949 l 314 949 l 374 949 l 354 765 l 464 949 l 729 949 l 443 474 m 542 904 q 501 888 518 904 q 482 849 485 872 q 493 809 479 825 q 531 793 507 793 q 572 809 554 793 q 592 849 589 825 q 580 888 594 872 q 542 904 565 904 m 463 782 q 422 766 439 782 q 401 726 404 750 q 413 688 399 703 q 450 672 426 672 q 491 688 474 672 q 511 726 508 703 q 500 766 514 750 q 463 782 486 782 m 382 667 q 341 651 358 667 q 321 611 324 635 q 333 572 318 588 q 371 557 347 557 q 411 572 394 557 q 431 611 428 588 q 419 651 433 635 q 382 667 406 667 m 160 61 q 201 77 183 61 q 221 117 218 93 q 209 156 224 140 q 171 171 194 171 q 130 156 147 171 q 110 117 113 140 q 122 77 107 93 q 160 61 136 61 m 178 199 q 217 215 200 199 q 238 254 235 231 q 226 293 240 278 q 189 308 211 308 q 148 293 165 308 q 128 254 131 278 q 140 215 125 231 q 178 199 154 199 m 193 344 q 233 360 215 344 q 253 400 250 376 q 241 439 256 424 q 204 454 226 454 q 163 439 181 454 q 143 400 146 424 q 155 360 140 376 q 193 344 169 344 m 210 499 q 251 515 233 499 q 271 554 268 531 q 260 594 274 578 q 222 610 246 610 q 181 594 199 610 q 161 554 164 578 q 172 515 158 531 q 210 499 186 499 m 225 640 q 266 656 249 640 q 286 696 283 672 q 274 735 289 719 q 236 750 260 750 q 196 735 213 750 q 176 696 179 719 q 188 656 174 672 q 225 640 201 640 m 246 788 q 285 803 268 788 q 306 842 303 818 q 294 881 308 865 q 257 897 279 897 q 216 881 233 897 q 196 842 199 865 q 208 803 193 818 q 246 788 222 788 m 272 474 q 283 434 269 450 q 321 418 297 418 q 362 434 344 418 q 382 474 379 450 q 370 512 385 496 q 332 528 356 528 q 292 512 308 528 q 272 474 275 496 m 301 342 q 313 302 299 318 q 350 286 328 286 q 391 302 374 286 q 411 342 408 318 q 399 381 414 365 q 361 396 385 396 q 322 381 339 396 q 301 342 304 365 m 519 106 q 508 145 522 129 q 471 161 494 161 q 429 145 447 161 q 408 106 411 129 q 420 67 406 82 q 458 51 435 51 q 499 67 482 51 q 519 106 517 82 m 463 222 q 451 261 465 246 q 414 276 436 276 q 373 261 390 276 q 353 222 356 246 q 365 183 350 199 q 403 167 379 167 q 442 183 425 167 q 463 222 460 199 z "},"l":{"ha":571,"x_min":40,"x_max":560,"o":"m 560 238 l 536 0 l 278 0 l 40 0 l 64 238 l 139 947 l 376 947 l 301 238 l 560 238 m 168 75 q 209 90 192 75 q 229 129 226 106 q 217 169 232 153 q 179 185 203 185 q 139 169 156 185 q 119 129 122 153 q 131 90 117 106 q 168 75 144 75 m 183 214 q 224 230 207 214 q 244 269 242 246 q 233 309 247 293 q 194 325 218 325 q 154 309 171 325 q 135 269 138 293 q 146 230 132 246 q 183 214 160 214 m 197 353 q 238 369 221 353 q 258 408 256 385 q 247 447 261 432 q 208 463 232 463 q 168 447 185 463 q 149 408 151 432 q 160 369 146 385 q 197 353 174 353 m 214 503 q 255 519 238 503 q 275 558 272 535 q 263 597 278 582 q 225 613 249 613 q 185 597 201 613 q 165 558 168 582 q 176 519 163 535 q 214 503 190 503 m 228 639 q 269 655 251 639 q 289 694 286 671 q 277 734 292 718 q 239 750 263 750 q 199 734 215 750 q 179 694 182 718 q 190 655 176 671 q 228 639 204 639 m 243 782 q 284 797 267 782 q 304 836 301 813 q 292 876 307 860 q 254 892 278 892 q 214 876 231 892 q 194 836 197 860 q 206 797 192 813 q 243 782 219 782 m 306 69 q 347 85 329 69 q 367 124 364 100 q 355 163 369 147 q 317 179 340 179 q 276 163 293 179 q 257 124 260 147 q 268 85 254 100 q 306 69 282 69 m 428 69 q 469 85 451 69 q 489 124 486 100 q 477 163 492 147 q 439 179 463 179 q 399 163 415 179 q 379 124 382 147 q 390 85 376 100 q 428 69 404 69 z "},"m":{"ha":1033,"x_min":47,"x_max":1068,"o":"m 1063 654 q 1029 327 1047 490 q 994 0 1011 164 l 757 0 l 788 296 q 790 326 789 311 q 793 356 792 340 q 803 438 799 397 q 811 521 807 479 q 817 576 814 549 q 822 632 819 604 q 817 688 825 664 q 772 711 808 711 q 722 688 736 711 q 704 633 707 664 q 699 577 701 606 q 693 521 696 549 q 683 427 688 474 q 674 332 678 381 l 669 296 l 639 0 l 401 0 l 432 296 l 438 356 q 447 438 443 397 q 456 521 451 479 q 461 576 458 549 q 467 632 464 604 q 461 688 469 664 q 417 711 453 711 q 366 688 381 711 q 349 633 351 664 q 343 577 346 606 q 338 521 340 549 q 327 427 332 474 q 318 332 322 381 q 316 315 317 324 q 314 296 315 306 l 283 0 l 47 0 q 81 327 64 164 q 115 654 97 490 q 149 766 122 715 q 217 855 176 817 q 308 917 257 893 q 411 947 358 942 q 517 939 464 953 q 614 889 569 925 q 722 939 667 925 q 828 947 776 953 q 926 917 881 942 q 1003 855 971 893 q 1052 766 1036 817 q 1063 654 1068 715 m 204 443 q 164 427 181 443 q 144 388 147 411 q 156 349 142 365 q 193 333 169 333 q 234 349 217 333 q 254 388 251 365 q 242 427 257 411 q 204 443 228 443 m 158 524 q 169 485 156 500 q 207 469 183 469 q 248 485 231 469 q 268 524 265 500 q 256 563 271 547 q 218 579 242 579 q 178 563 194 579 q 158 524 161 547 m 167 57 q 207 73 190 57 q 226 113 224 89 q 215 152 229 136 q 178 168 201 168 q 137 152 154 168 q 117 113 119 136 q 128 73 114 89 q 167 57 143 57 m 181 197 q 222 213 204 197 q 242 251 239 228 q 231 291 244 275 q 193 307 217 307 q 152 291 169 307 q 132 251 135 275 q 143 213 129 228 q 181 197 157 197 m 224 606 q 265 622 247 606 q 285 661 282 638 q 274 700 288 685 q 236 715 260 715 q 195 700 213 715 q 175 661 178 685 q 186 622 172 638 q 224 606 200 606 m 290 726 q 331 742 314 726 q 351 782 349 758 q 340 821 354 806 q 303 836 326 836 q 262 821 279 836 q 242 782 244 806 q 253 742 239 758 q 290 726 267 726 m 425 771 q 466 786 449 771 q 486 825 483 801 q 474 865 489 849 q 436 881 460 881 q 395 865 413 881 q 375 825 378 849 q 387 786 372 801 q 425 771 401 771 m 1003 651 q 992 690 1006 675 q 954 706 978 706 q 913 690 931 706 q 893 651 896 675 q 905 612 890 628 q 943 596 919 596 q 983 612 967 596 q 1003 651 1000 628 m 928 463 q 969 478 951 463 q 989 517 986 493 q 978 556 992 540 q 940 572 964 572 q 899 556 917 572 q 879 517 882 540 q 890 478 876 493 q 928 463 904 463 m 974 381 q 963 420 976 404 q 926 436 950 436 q 885 420 903 436 q 864 381 867 404 q 876 342 861 357 q 914 326 890 326 q 954 342 938 326 q 974 381 971 357 m 500 775 q 512 735 497 751 q 550 719 526 719 q 590 735 572 719 q 610 775 607 751 q 598 814 613 799 q 561 829 583 829 q 520 814 538 829 q 500 775 503 799 m 567 463 q 608 478 590 463 q 628 517 625 493 q 617 556 631 540 q 579 572 603 572 q 538 556 556 572 q 518 517 521 540 q 529 478 515 493 q 567 463 543 463 m 613 381 q 602 420 615 404 q 565 436 589 436 q 524 420 542 436 q 503 381 506 404 q 515 342 500 357 q 553 326 529 326 q 593 342 576 326 q 613 381 610 357 m 551 304 q 510 288 528 304 q 489 249 492 272 q 501 210 486 225 q 539 194 515 194 q 579 210 563 194 q 599 249 596 225 q 588 288 601 272 q 551 304 575 304 m 525 50 q 566 66 549 50 q 586 106 583 82 q 575 144 589 129 q 538 160 561 160 q 497 144 515 160 q 476 106 479 129 q 488 66 474 82 q 525 50 503 50 m 583 599 q 624 615 607 599 q 644 654 642 631 q 633 692 647 676 q 594 708 618 708 q 555 692 572 708 q 535 654 538 676 q 547 615 532 631 q 583 599 561 599 m 681 739 q 722 755 704 739 q 743 794 740 771 q 731 833 746 818 q 693 849 717 849 q 653 833 669 849 q 633 794 636 818 q 644 755 631 771 q 681 739 657 739 m 810 778 q 851 794 833 778 q 872 833 869 810 q 860 872 875 857 q 822 888 846 888 q 782 872 799 888 q 763 833 765 857 q 773 794 760 810 q 810 778 786 778 m 874 775 q 885 737 871 753 q 924 721 900 721 q 963 737 946 721 q 983 775 981 753 q 972 815 986 799 q 935 831 957 831 q 894 815 911 831 q 874 775 876 799 m 911 301 q 870 286 888 301 q 850 247 853 271 q 862 208 847 224 q 900 192 876 192 q 940 208 924 192 q 960 247 957 224 q 949 286 963 271 q 911 301 935 301 m 886 50 q 927 66 910 50 q 947 106 944 82 q 936 144 950 129 q 899 160 922 160 q 858 144 876 160 q 838 106 840 129 q 849 66 835 82 q 886 50 864 50 z "},"n":{"ha":654,"x_min":35,"x_max":696,"o":"m 657 825 q 685 761 678 793 q 694 696 693 729 q 692 628 696 663 q 685 558 689 593 l 626 0 l 390 0 l 421 296 q 424 326 422 311 q 426 356 425 340 q 436 438 432 397 q 444 521 440 479 q 450 576 447 549 q 456 632 453 604 q 449 688 458 664 q 404 711 440 711 q 354 688 368 711 q 338 633 340 664 q 332 577 335 606 q 326 521 329 549 q 316 427 321 474 q 307 332 311 381 q 305 315 306 324 q 303 296 304 306 l 272 0 l 35 0 l 93 558 q 101 628 97 593 q 113 696 104 663 q 136 762 121 729 q 178 826 151 794 q 292 916 226 885 q 429 947 358 947 q 561 915 501 947 q 657 825 621 883 m 197 450 q 156 434 174 450 q 135 396 138 418 q 147 356 132 372 q 185 340 161 340 q 224 356 207 340 q 244 396 242 372 q 233 434 247 418 q 197 450 219 450 m 150 532 q 162 492 147 508 q 200 476 176 476 q 240 492 222 476 q 260 532 257 508 q 248 570 263 554 q 211 586 233 586 q 170 570 188 586 q 150 532 153 554 m 157 65 q 199 81 181 65 q 219 119 217 96 q 208 159 222 143 q 169 175 193 175 q 129 159 146 175 q 110 119 113 143 q 120 81 107 96 q 157 65 133 65 m 172 204 q 213 219 196 204 q 233 258 231 235 q 222 298 236 282 q 183 314 207 314 q 143 298 160 314 q 124 258 126 282 q 135 219 121 235 q 172 204 149 204 m 215 613 q 256 628 239 613 q 276 668 274 644 q 265 707 279 692 q 226 722 250 722 q 186 707 203 722 q 167 668 169 692 q 178 628 164 644 q 215 613 192 613 m 282 733 q 323 749 306 733 q 343 789 340 765 q 331 828 346 813 q 293 843 317 843 q 253 828 269 843 q 233 789 236 813 q 244 749 231 765 q 282 733 258 733 m 415 778 q 456 793 439 778 q 476 832 474 808 q 465 872 479 856 q 428 888 451 888 q 387 872 404 888 q 367 832 369 856 q 378 793 364 808 q 415 778 392 778 m 492 782 q 503 742 489 758 q 540 726 517 726 q 582 742 564 726 q 603 782 600 758 q 591 822 606 806 q 553 838 576 838 q 512 822 529 838 q 492 782 494 806 m 558 469 q 599 485 582 469 q 619 524 617 500 q 608 563 622 547 q 569 579 593 579 q 529 563 546 579 q 510 524 513 547 q 521 485 507 500 q 558 469 535 469 m 606 388 q 594 427 608 411 q 556 443 579 443 q 515 427 532 443 q 496 388 499 411 q 507 349 493 364 q 544 333 521 333 q 585 349 568 333 q 606 388 603 364 m 542 311 q 501 295 518 311 q 482 256 485 279 q 493 217 479 233 q 531 201 507 201 q 572 217 554 201 q 592 256 589 233 q 580 295 594 279 q 542 311 565 311 m 518 57 q 558 73 542 57 q 578 113 575 89 q 567 152 581 136 q 529 168 553 168 q 488 152 506 168 q 468 113 471 136 q 480 73 465 89 q 518 57 494 57 m 575 606 q 616 622 599 606 q 636 661 633 638 q 625 700 639 685 q 588 715 611 715 q 547 700 564 715 q 526 661 529 685 q 538 622 524 638 q 575 606 551 606 z "},"o":{"ha":640,"x_min":60,"x_max":694,"o":"m 672 789 q 691 713 688 751 q 690 635 694 675 q 681 554 685 594 q 672 474 676 514 q 664 393 668 433 q 656 313 660 353 q 640 233 651 271 q 606 158 629 196 q 485 42 560 85 q 328 0 411 0 q 179 42 244 0 q 82 157 114 85 q 63 233 67 196 q 64 313 60 271 q 72 393 68 353 q 81 474 76 433 q 89 554 85 514 q 99 635 93 594 q 114 714 103 676 q 149 789 125 751 q 269 905 196 863 q 426 947 343 947 q 576 905 510 947 q 672 789 642 863 m 424 892 q 384 876 401 892 q 364 836 367 860 q 376 797 361 813 q 413 782 390 782 q 453 797 436 782 q 474 836 471 813 q 462 876 476 860 q 424 892 447 892 m 296 854 q 255 839 272 854 q 235 800 238 824 q 247 760 232 776 q 285 744 261 744 q 324 760 307 744 q 344 800 342 776 q 333 839 347 824 q 296 854 318 854 m 226 738 q 185 722 203 738 q 165 683 168 707 q 177 644 163 660 q 215 628 192 628 q 256 644 239 628 q 276 683 274 660 q 265 722 279 707 q 226 738 250 738 m 213 604 q 172 588 189 604 q 151 549 154 572 q 163 510 149 525 q 201 494 178 494 q 242 510 225 494 q 263 549 260 525 q 251 588 265 572 q 213 604 236 604 m 197 458 q 156 443 174 458 q 136 404 139 428 q 148 365 133 381 q 186 349 163 349 q 227 365 210 349 q 247 404 244 381 q 235 443 250 428 q 197 458 221 458 m 121 269 q 133 231 118 246 q 169 215 147 215 q 210 231 193 215 q 231 269 228 246 q 219 309 233 293 q 181 325 204 325 q 141 309 158 325 q 121 269 124 293 m 219 100 q 260 115 243 100 q 279 154 276 131 q 268 194 282 178 q 231 210 254 210 q 190 194 207 210 q 169 154 172 178 q 181 115 167 131 q 219 100 196 100 m 333 63 q 374 78 357 63 q 394 118 392 94 q 383 157 397 142 q 346 172 369 172 q 305 157 322 172 q 285 118 288 142 q 296 78 282 94 q 333 63 310 63 m 393 251 q 413 280 410 265 q 419 314 417 294 q 424 347 422 331 q 426 381 425 364 l 456 651 q 449 685 457 671 q 426 706 440 699 q 395 710 413 713 q 361 696 378 708 q 341 667 344 682 q 335 633 338 651 q 332 600 333 617 q 328 567 331 583 q 314 431 321 499 q 300 296 307 364 q 306 263 297 276 q 329 242 315 249 q 360 238 343 236 q 393 251 378 239 m 539 854 q 498 839 515 854 q 478 800 481 824 q 490 760 475 776 q 528 744 504 744 q 568 760 551 744 q 588 800 585 776 q 576 839 590 824 q 539 854 563 854 m 463 100 q 503 115 486 100 q 524 154 521 131 q 512 194 526 178 q 474 210 497 210 q 433 194 450 210 q 413 154 415 178 q 424 115 410 131 q 463 100 439 100 m 521 217 q 562 233 544 217 q 582 272 579 249 q 570 312 585 296 q 532 328 556 328 q 491 312 508 328 q 471 272 474 296 q 483 233 468 249 q 521 217 497 217 m 535 356 q 576 372 558 356 q 597 411 594 388 q 585 451 600 435 q 547 467 571 467 q 506 451 524 467 q 486 411 489 435 q 497 372 483 388 q 535 356 511 356 m 550 501 q 592 517 574 501 q 613 556 610 533 q 601 595 615 579 q 563 611 586 611 q 522 595 539 611 q 501 556 504 579 q 513 517 499 533 q 550 501 526 501 m 564 633 q 606 649 588 633 q 626 689 624 665 q 615 727 629 711 q 576 743 600 743 q 535 727 553 743 q 515 689 518 711 q 526 649 513 665 q 564 633 540 633 z "},"p":{"ha":654,"x_min":35,"x_max":701,"o":"m 429 947 q 542 924 490 947 q 631 860 594 900 q 684 765 667 819 q 694 650 701 711 q 658 535 688 589 q 585 442 629 482 q 484 378 540 401 q 367 356 428 356 l 364 356 l 307 356 l 271 0 l 35 0 l 133 947 l 369 947 l 429 947 m 632 719 q 621 759 635 743 q 583 775 607 775 q 542 759 560 775 q 522 719 525 743 q 534 680 519 696 q 572 664 549 664 q 613 680 596 664 q 632 719 629 696 m 508 874 q 467 858 485 874 q 446 818 449 842 q 458 778 443 794 q 496 763 472 763 q 535 778 518 763 q 556 818 553 794 q 544 858 558 842 q 508 874 531 874 m 457 651 q 444 694 460 676 q 404 711 428 711 l 344 711 l 332 592 l 392 592 q 435 609 415 592 q 457 651 454 626 m 378 881 q 338 865 356 881 q 318 825 321 849 q 330 785 315 801 q 367 769 344 769 q 408 785 390 769 q 428 825 425 801 q 416 865 431 849 q 378 881 401 881 m 163 68 q 203 83 186 68 q 224 122 221 99 q 212 162 226 146 q 174 178 197 178 q 134 162 151 178 q 114 122 117 146 q 126 83 111 99 q 163 68 140 68 m 176 207 q 217 223 200 207 q 238 263 235 239 q 226 301 240 286 q 188 317 211 317 q 148 301 165 317 q 128 263 131 286 q 140 223 125 239 q 176 207 154 207 m 192 349 q 233 365 215 349 q 253 403 250 381 q 241 442 256 426 q 203 458 226 458 q 163 442 181 458 q 143 403 146 426 q 155 365 140 381 q 192 349 169 349 m 206 486 q 247 502 229 486 q 267 542 264 518 q 256 581 269 565 q 218 597 242 597 q 178 581 196 597 q 157 542 160 565 q 169 502 154 518 q 206 486 183 486 m 221 632 q 263 648 244 632 q 283 688 281 664 q 272 726 286 711 q 233 742 257 742 q 194 726 211 742 q 174 688 176 711 q 185 648 171 664 q 221 632 199 632 m 236 775 q 277 790 260 775 q 297 829 294 806 q 285 869 300 853 q 247 885 271 885 q 208 869 225 885 q 188 829 190 853 q 199 790 185 806 q 236 775 214 775 m 324 421 q 364 437 346 421 q 385 476 382 453 q 373 516 388 500 q 336 532 358 532 q 295 516 313 532 q 275 476 278 500 q 286 437 272 453 q 324 421 300 421 m 458 435 q 499 451 482 435 q 518 489 515 467 q 508 528 521 513 q 471 544 494 544 q 429 528 447 544 q 408 489 411 513 q 420 451 406 467 q 458 435 435 435 m 565 531 q 606 546 589 531 q 625 585 622 561 q 614 624 628 608 q 576 640 600 640 q 535 624 553 640 q 515 585 518 608 q 527 546 513 561 q 565 531 542 531 z "},"q":{"ha":654,"x_min":57,"x_max":703,"o":"m 669 385 q 660 311 665 347 q 645 240 656 275 q 617 172 635 206 q 567 106 599 139 l 622 -61 l 360 -61 l 340 0 q 200 29 264 -3 q 97 124 136 61 q 67 192 76 157 q 58 262 58 226 q 60 333 57 297 q 68 407 64 369 q 71 437 68 414 q 76 490 74 460 q 83 554 79 519 q 91 619 88 589 q 97 673 94 650 q 103 703 100 696 q 170 839 119 778 q 292 933 221 900 q 442 964 368 968 q 575 924 517 960 q 668 825 633 888 q 699 682 703 763 q 693 608 697 644 q 685 533 689 571 q 676 460 681 497 q 669 385 672 422 m 632 689 q 620 728 635 713 q 582 744 606 744 q 541 728 558 744 q 521 689 524 713 q 532 649 518 665 q 569 633 546 633 q 611 649 593 633 q 632 689 629 665 m 544 863 q 503 847 521 863 q 483 807 486 831 q 494 767 481 783 q 532 751 508 751 q 574 767 556 751 q 594 807 592 783 q 583 847 597 831 q 544 863 568 863 m 428 906 q 387 889 404 906 q 367 849 369 872 q 378 809 364 825 q 417 793 393 793 q 458 809 440 793 q 479 849 476 825 q 467 889 482 872 q 428 906 451 906 m 297 868 q 256 851 274 868 q 236 811 239 835 q 248 772 233 788 q 286 756 263 756 q 327 772 310 756 q 347 811 344 788 q 335 851 350 835 q 297 868 321 868 m 226 749 q 185 733 203 749 q 165 693 168 717 q 177 653 163 669 q 215 638 192 638 q 257 653 239 638 q 278 693 275 669 q 265 733 281 717 q 226 749 250 749 m 213 613 q 172 597 189 613 q 151 557 154 581 q 163 517 149 533 q 200 500 176 500 q 242 517 224 500 q 264 557 261 533 q 251 597 267 581 q 213 613 236 613 m 197 465 q 156 449 174 465 q 135 408 138 432 q 147 369 132 385 q 185 353 161 353 q 226 369 208 353 q 247 408 244 385 q 235 449 250 432 q 197 465 221 465 m 118 272 q 131 233 115 249 q 169 217 146 217 q 210 233 193 217 q 231 272 228 249 q 219 312 233 296 q 181 328 204 328 q 139 312 157 328 q 118 272 121 296 m 219 99 q 260 115 243 99 q 281 156 278 132 q 269 195 283 179 q 231 211 254 211 q 190 195 207 211 q 169 156 172 179 q 181 115 167 132 q 219 99 196 99 m 361 708 q 340 679 344 694 q 333 644 336 664 q 331 611 332 628 q 326 576 329 594 l 297 301 q 303 268 294 282 q 327 247 313 254 q 359 242 342 240 q 393 256 376 243 q 415 285 411 269 q 421 319 418 300 q 424 353 422 336 q 428 388 425 369 l 457 663 q 450 696 458 682 q 428 717 442 710 q 396 722 414 724 q 361 708 378 721 m 340 61 q 382 78 364 61 q 403 118 400 94 q 391 158 406 142 q 353 174 376 174 q 311 158 329 174 q 290 118 293 142 q 302 78 288 94 q 340 61 317 61 m 476 229 q 435 213 453 229 q 415 174 418 197 q 426 134 413 150 q 464 118 440 118 q 506 134 488 118 q 526 174 524 150 q 515 213 529 197 q 476 229 500 229 m 463 -24 q 504 -8 486 -24 q 525 32 522 8 q 513 72 528 56 q 474 89 497 89 q 433 72 450 89 q 413 32 415 56 q 424 -8 410 8 q 463 -24 439 -24 m 531 238 q 572 253 554 238 q 593 293 590 269 q 581 333 596 317 q 543 350 567 350 q 501 333 519 350 q 481 293 483 317 q 492 253 478 269 q 531 238 507 238 m 549 367 q 590 383 572 367 q 611 424 608 400 q 599 463 614 447 q 561 479 585 479 q 520 463 538 479 q 500 424 503 447 q 511 383 497 400 q 549 367 525 367 m 564 506 q 605 522 588 506 q 625 561 622 538 q 613 601 628 585 q 575 618 599 618 q 534 601 551 618 q 514 561 517 585 q 526 522 511 538 q 564 506 540 506 z "},"r":{"ha":654,"x_min":36,"x_max":700,"o":"m 618 474 q 644 418 636 446 q 656 362 653 390 q 658 303 660 333 q 653 243 656 274 q 640 121 646 181 q 628 0 635 61 l 392 0 q 403 111 397 56 q 414 224 408 167 q 417 247 415 232 q 420 278 419 263 q 419 310 421 294 q 413 333 418 325 q 391 349 404 344 q 363 355 378 354 q 334 355 349 356 q 308 354 319 354 l 272 0 l 214 0 l 36 0 l 135 947 l 313 947 q 410 947 363 947 q 500 938 457 947 q 581 905 543 929 q 653 833 619 881 q 690 747 679 793 q 696 654 700 701 q 672 560 692 607 q 618 474 651 514 m 156 63 q 197 78 179 63 q 217 118 214 94 q 206 156 219 140 q 168 172 192 172 q 126 156 144 172 q 106 118 108 140 q 117 78 103 94 q 156 63 132 63 m 171 203 q 212 218 194 203 q 232 257 229 233 q 220 297 235 281 q 182 313 206 313 q 141 297 158 313 q 121 257 124 281 q 133 218 118 233 q 171 203 147 203 m 185 343 q 226 359 208 343 q 247 399 244 375 q 235 438 250 422 q 197 453 221 453 q 156 438 174 453 q 136 399 139 422 q 147 359 133 375 q 185 343 161 343 m 200 482 q 241 497 224 482 q 261 536 258 513 q 249 576 264 560 q 211 592 235 592 q 170 576 188 592 q 150 536 153 560 q 162 497 147 513 q 200 482 176 482 m 215 628 q 256 643 239 628 q 276 682 274 658 q 265 722 279 706 q 226 738 250 738 q 185 722 203 738 q 165 682 168 706 q 177 643 163 658 q 215 628 192 628 m 231 769 q 272 785 254 769 q 292 825 289 801 q 280 863 294 847 q 242 879 265 879 q 201 863 218 879 q 181 825 183 847 q 192 785 178 801 q 231 769 207 769 m 506 860 q 464 844 482 860 q 443 806 446 829 q 455 766 440 782 q 493 750 469 750 q 533 766 517 750 q 553 806 550 782 q 542 844 556 829 q 506 860 529 860 m 554 636 q 513 620 531 636 q 492 581 494 604 q 503 541 489 557 q 542 525 518 525 q 582 541 565 525 q 601 581 599 557 q 591 620 604 604 q 554 636 578 636 m 460 651 q 451 686 463 671 q 422 708 440 701 q 384 712 403 714 q 346 710 365 710 l 333 592 q 372 590 353 592 q 410 594 390 588 q 443 616 429 600 q 460 651 457 632 m 375 882 q 334 866 351 882 q 314 826 317 850 q 326 788 311 803 q 364 772 340 772 q 404 788 388 772 q 424 826 421 803 q 413 866 426 850 q 375 882 399 882 m 314 424 q 354 440 338 424 q 374 479 371 456 q 363 517 376 501 q 325 533 349 533 q 284 517 301 533 q 264 479 267 501 q 276 440 261 456 q 314 424 290 424 m 393 482 q 405 443 390 458 q 443 428 419 428 q 483 443 467 428 q 503 482 500 458 q 492 522 506 506 q 454 538 478 538 q 413 522 431 538 q 393 482 396 506 m 458 372 q 469 333 456 349 q 507 317 483 317 q 548 333 531 317 q 568 372 565 349 q 557 412 571 396 q 519 428 543 428 q 478 412 496 428 q 458 372 461 396 m 531 301 q 491 285 508 301 q 471 246 474 269 q 483 207 468 222 q 519 192 497 192 q 560 207 543 192 q 581 246 578 222 q 569 285 583 269 q 531 301 554 301 m 508 65 q 550 81 532 65 q 571 119 568 96 q 559 159 574 143 q 521 175 544 175 q 481 159 497 175 q 461 119 464 143 q 472 81 458 96 q 508 65 485 65 m 575 657 q 616 673 599 657 q 636 713 633 689 q 625 751 639 736 q 588 767 611 767 q 547 751 564 767 q 526 713 529 736 q 538 673 524 689 q 575 657 551 657 z "},"s":{"ha":654,"x_min":56,"x_max":700,"o":"m 390 593 q 508 569 456 593 q 594 503 560 544 q 644 410 628 463 q 656 302 661 358 q 624 190 651 246 q 546 88 597 135 q 437 20 494 42 q 323 0 379 -1 q 217 24 267 1 q 130 85 167 46 q 74 177 93 124 q 63 297 56 231 l 300 297 q 307 263 297 278 q 331 242 317 249 q 364 239 346 236 q 397 256 382 242 q 417 287 413 269 q 417 320 422 304 q 399 347 413 336 q 367 357 386 357 q 249 381 301 357 q 163 447 197 406 q 112 540 128 488 q 101 648 96 592 q 132 760 106 704 q 210 863 158 815 q 319 930 261 908 q 433 950 376 951 q 539 926 489 949 q 626 865 589 904 q 681 772 663 826 q 693 653 700 718 l 456 653 q 448 687 457 672 q 424 708 439 701 q 392 711 410 714 q 358 694 374 708 q 339 663 343 681 q 340 630 335 646 q 358 603 344 614 q 390 593 371 593 m 188 153 q 228 168 211 153 q 249 207 246 183 q 237 247 251 231 q 199 263 222 263 q 158 247 175 263 q 139 207 142 231 q 150 168 136 183 q 188 153 164 153 m 279 68 q 320 83 303 68 q 340 122 338 99 q 328 162 343 146 q 290 178 314 178 q 251 162 268 178 q 231 122 233 146 q 242 83 228 99 q 279 68 257 68 m 560 408 q 519 392 536 408 q 499 354 501 376 q 510 315 496 331 q 549 299 525 299 q 589 315 572 299 q 608 354 606 331 q 597 392 611 376 q 560 408 583 408 m 572 821 q 531 805 549 821 q 510 765 513 789 q 522 726 507 742 q 560 710 536 710 q 600 726 583 710 q 619 765 617 742 q 609 805 622 789 q 572 821 596 821 m 463 893 q 422 878 439 893 q 401 839 404 863 q 413 799 399 815 q 451 783 428 783 q 492 799 475 783 q 511 839 508 815 q 500 878 514 863 q 463 893 486 893 m 328 864 q 287 848 304 864 q 267 808 269 832 q 278 769 264 785 q 317 754 293 754 q 358 769 340 754 q 378 808 375 785 q 366 848 381 832 q 328 864 351 864 m 244 758 q 203 743 221 758 q 183 704 186 728 q 195 665 181 681 q 233 649 210 649 q 274 665 257 649 q 294 704 292 681 q 283 743 297 728 q 244 758 268 758 m 225 519 q 266 535 249 519 q 286 575 283 551 q 274 614 289 599 q 236 629 260 629 q 196 614 213 629 q 176 575 179 599 q 188 535 174 551 q 225 519 201 519 m 322 436 q 362 452 344 436 q 382 492 379 468 q 370 531 385 515 q 333 546 356 546 q 292 531 310 546 q 272 492 275 515 q 284 452 269 468 q 322 436 299 436 m 399 444 q 410 405 396 421 q 449 389 425 389 q 488 405 471 389 q 508 444 506 421 q 497 484 511 468 q 460 500 482 500 q 419 484 436 500 q 399 444 401 468 m 411 72 q 452 88 435 72 q 472 128 469 104 q 460 166 475 150 q 422 182 446 182 q 382 166 399 182 q 363 128 365 150 q 374 88 360 104 q 411 72 388 72 m 521 164 q 561 180 544 164 q 581 219 578 196 q 569 258 583 243 q 532 274 556 274 q 491 258 508 274 q 471 219 474 243 q 483 180 468 196 q 521 164 497 164 z "},"t":{"ha":578,"x_min":104,"x_max":644,"o":"m 644 947 l 619 710 l 481 710 l 407 0 l 169 0 l 243 710 l 104 710 l 129 947 l 644 947 m 238 775 q 278 791 261 775 q 299 831 296 807 q 288 870 301 854 q 250 886 274 886 q 208 870 226 886 q 188 831 190 854 q 199 791 185 807 q 238 775 214 775 m 296 67 q 335 82 318 67 q 356 121 353 97 q 344 160 358 144 q 307 176 329 176 q 266 160 283 176 q 246 121 249 144 q 258 82 243 97 q 296 67 272 67 m 310 206 q 349 222 332 206 q 369 261 367 238 q 358 301 372 285 q 321 317 343 317 q 280 301 297 317 q 260 261 263 285 q 272 222 257 238 q 310 206 286 206 m 325 344 q 365 360 347 344 q 385 400 382 376 q 373 440 388 424 q 336 456 358 456 q 295 440 313 456 q 275 400 278 424 q 287 360 272 376 q 325 344 301 344 m 340 494 q 380 510 363 494 q 400 550 397 526 q 388 589 403 574 q 351 604 374 604 q 310 589 328 604 q 290 550 293 574 q 302 510 288 526 q 340 494 317 494 m 354 631 q 394 647 376 631 q 414 686 411 663 q 403 726 417 710 q 367 742 389 742 q 325 726 343 742 q 304 686 307 710 q 316 647 301 663 q 354 631 331 631 m 369 774 q 409 790 392 774 q 429 828 426 806 q 417 867 432 851 q 381 883 403 883 q 340 867 357 883 q 319 828 322 851 q 331 790 317 806 q 369 774 346 774 m 510 776 q 551 792 533 776 q 571 832 568 808 q 560 871 574 856 q 522 886 546 886 q 481 871 499 886 q 460 832 463 856 q 472 792 457 808 q 510 776 486 776 z "},"u":{"ha":654,"x_min":58,"x_max":722,"o":"m 722 947 l 685 592 l 672 474 q 664 393 668 433 q 656 313 660 353 q 640 233 651 271 q 604 158 628 196 q 484 42 558 85 q 326 0 410 0 q 178 42 243 0 q 81 157 113 83 q 62 233 65 194 q 63 313 58 271 q 71 393 67 353 q 79 474 75 433 l 93 603 l 129 947 l 367 947 l 336 651 l 329 592 q 321 509 325 550 q 313 426 317 468 q 306 371 310 399 q 300 315 303 343 q 306 260 297 283 q 350 236 314 236 q 401 260 386 236 q 418 315 415 283 q 424 371 421 343 q 431 426 428 399 q 440 521 435 474 q 450 615 444 568 l 454 651 l 485 947 l 722 947 m 247 892 q 208 876 225 892 q 188 836 190 860 q 199 797 185 813 q 236 781 214 781 q 277 797 260 781 q 297 836 294 813 q 285 876 300 860 q 247 892 271 892 m 233 758 q 194 742 211 758 q 174 703 176 726 q 185 665 171 681 q 222 649 200 649 q 263 665 246 649 q 283 703 281 681 q 272 742 286 726 q 233 758 257 758 m 215 622 q 174 606 192 622 q 153 567 156 590 q 165 528 150 543 q 203 513 179 513 q 244 528 226 513 q 264 567 261 543 q 253 606 267 590 q 215 622 239 622 m 200 486 q 159 470 176 486 q 139 431 142 454 q 151 392 136 407 q 189 376 165 376 q 230 392 213 376 q 250 431 247 407 q 238 470 253 454 q 200 486 224 486 m 128 297 q 140 258 125 274 q 178 242 154 242 q 218 258 201 242 q 238 297 235 274 q 226 336 240 321 q 189 351 213 351 q 148 336 165 351 q 128 297 131 321 m 218 126 q 259 142 242 126 q 279 181 276 157 q 267 220 282 204 q 229 236 253 236 q 189 220 206 236 q 169 181 172 204 q 181 142 167 157 q 218 126 194 126 m 597 899 q 556 883 574 899 q 536 843 539 867 q 547 803 533 819 q 585 788 561 788 q 626 803 608 788 q 646 843 643 819 q 635 883 649 867 q 597 899 621 899 m 581 765 q 540 750 557 765 q 519 711 522 735 q 531 672 517 688 q 569 656 546 656 q 610 672 593 656 q 629 711 626 688 q 618 750 632 735 q 581 765 604 765 m 339 75 q 378 91 361 75 q 399 131 396 107 q 388 170 401 154 q 351 186 374 186 q 310 170 328 186 q 289 131 292 154 q 301 91 286 107 q 339 75 315 75 m 467 119 q 507 135 490 119 q 526 174 524 150 q 515 213 529 197 q 478 229 501 229 q 437 213 454 229 q 417 174 419 197 q 428 135 414 150 q 467 119 443 119 m 531 242 q 572 258 554 242 q 592 297 589 274 q 580 337 594 321 q 542 353 565 353 q 501 337 518 353 q 481 297 483 321 q 492 258 478 274 q 531 242 507 242 m 544 379 q 585 394 568 379 q 606 433 603 410 q 594 473 608 457 q 556 489 579 489 q 515 473 532 489 q 494 433 497 457 q 506 394 492 410 q 544 379 521 379 m 561 515 q 602 531 585 515 q 622 569 619 546 q 611 609 625 593 q 574 625 597 625 q 533 609 550 625 q 513 569 515 593 q 524 531 510 546 q 561 515 538 515 z "},"v":{"ha":635,"x_min":121,"x_max":714,"o":"m 714 949 l 465 0 l 172 0 l 121 949 l 361 949 l 379 592 l 474 949 l 714 949 m 188 844 q 206 809 189 822 q 246 799 222 796 q 284 819 268 801 q 299 861 300 838 q 281 897 297 883 q 240 907 264 910 q 203 886 218 904 q 188 844 188 868 m 200 701 q 217 665 200 678 q 256 654 233 651 q 295 676 279 658 q 310 717 311 694 q 292 753 308 740 q 251 764 275 767 q 213 743 228 761 q 200 701 197 725 m 204 561 q 222 526 206 539 q 261 515 238 513 q 301 536 285 518 q 315 578 317 554 q 297 613 313 600 q 258 624 281 626 q 219 603 235 621 q 204 561 203 585 m 208 425 q 225 388 208 401 q 265 378 242 375 q 305 399 289 381 q 318 440 321 417 q 300 477 317 464 q 260 488 283 490 q 222 465 238 483 q 208 425 207 447 m 210 282 q 227 247 211 260 q 267 236 243 233 q 306 257 290 239 q 319 299 321 275 q 302 335 318 322 q 263 344 286 347 q 224 324 239 342 q 210 282 208 306 m 322 129 q 317 170 328 151 q 283 192 306 189 q 241 181 260 194 q 217 146 222 168 q 221 104 210 122 q 256 83 232 86 q 297 92 278 79 q 322 129 317 106 m 454 129 q 449 170 460 151 q 415 192 438 189 q 373 181 392 194 q 349 146 354 168 q 353 104 342 122 q 388 82 364 86 q 429 92 410 79 q 454 129 449 106 m 482 274 q 477 315 489 297 q 443 336 465 333 q 401 326 419 339 q 375 290 382 314 q 380 249 368 267 q 415 228 392 231 q 457 238 438 225 q 482 274 476 250 m 514 421 q 510 461 521 443 q 475 483 499 479 q 433 473 453 486 q 408 436 414 460 q 413 396 401 414 q 447 374 425 378 q 489 384 469 371 q 514 421 508 397 m 550 561 q 545 603 557 585 q 511 624 533 621 q 468 613 488 626 q 443 578 449 600 q 449 536 438 554 q 482 515 461 518 q 525 524 506 511 q 550 561 544 538 m 588 701 q 581 742 593 724 q 546 764 569 760 q 506 753 525 767 q 479 717 486 740 q 485 676 474 694 q 518 654 496 658 q 561 665 542 651 q 588 701 581 678 m 556 794 q 597 805 578 792 q 622 840 617 818 q 618 882 629 864 q 583 903 607 900 q 541 894 560 907 q 515 857 522 881 q 522 815 510 833 q 556 794 533 797 z "},"x":{"ha":675,"x_min":18,"x_max":751,"o":"m 511 474 l 653 0 l 397 0 l 351 154 l 274 0 l 18 0 l 257 474 l 117 949 l 372 949 l 419 793 l 496 949 l 751 949 l 511 474 m 538 861 q 546 822 533 838 q 581 804 558 806 q 619 817 601 803 q 640 856 638 832 q 632 896 644 879 q 599 914 619 913 q 558 900 576 915 q 538 861 540 885 m 474 739 q 483 699 471 715 q 518 682 496 683 q 557 695 539 681 q 578 733 575 710 q 569 774 581 757 q 535 792 557 790 q 496 778 514 793 q 474 739 478 763 m 401 613 q 411 572 399 589 q 444 554 424 556 q 485 568 467 553 q 506 607 503 583 q 497 646 510 629 q 463 664 485 663 q 423 650 440 665 q 401 613 406 635 m 386 604 q 374 642 389 626 q 336 658 360 658 q 296 642 313 658 q 276 604 279 626 q 288 565 274 581 q 325 549 301 549 q 366 565 349 549 q 386 604 383 581 m 206 854 q 217 815 203 831 q 256 799 232 799 q 297 815 279 799 q 317 854 314 831 q 305 893 319 878 q 267 908 290 908 q 226 893 243 908 q 206 854 208 878 m 246 729 q 257 690 243 706 q 294 674 271 674 q 336 690 318 674 q 357 729 354 706 q 345 769 360 753 q 307 785 331 785 q 266 769 283 785 q 246 729 249 753 m 228 96 q 218 136 231 119 q 183 154 206 153 q 143 140 161 156 q 122 101 125 125 q 132 62 119 78 q 167 44 144 46 q 206 58 189 43 q 228 96 222 72 m 299 218 q 289 258 301 242 q 254 276 276 274 q 216 263 233 278 q 194 224 199 247 q 203 184 190 200 q 238 165 215 168 q 278 179 260 164 q 299 218 296 194 m 356 347 q 346 388 358 371 q 311 406 333 404 q 272 392 289 407 q 250 353 256 376 q 260 313 247 329 q 294 296 272 297 q 334 308 317 293 q 356 347 351 324 m 372 422 q 413 438 396 422 q 433 478 431 454 q 422 516 436 500 q 385 532 408 532 q 344 516 361 532 q 324 478 326 500 q 335 438 321 454 q 372 422 349 422 m 379 350 q 390 311 376 326 q 428 296 404 296 q 469 311 451 296 q 489 350 486 326 q 477 390 492 374 q 439 406 463 406 q 399 390 415 406 q 379 350 382 374 m 556 96 q 546 136 558 119 q 513 154 533 153 q 472 140 490 156 q 451 101 454 125 q 461 62 449 78 q 496 44 474 46 q 534 58 517 43 q 556 96 551 72 m 517 221 q 505 260 519 244 q 467 276 490 276 q 426 260 443 276 q 406 221 408 244 q 417 181 403 197 q 456 165 432 165 q 497 181 479 165 q 517 221 514 197 z "},"y":{"ha":654,"x_min":79,"x_max":717,"o":"m 717 947 q 699 772 707 860 q 681 597 690 685 q 616 432 671 507 q 474 321 561 357 l 440 0 l 204 0 l 238 321 q 117 431 156 357 q 89 597 79 506 q 107 772 99 685 q 125 947 115 860 l 361 947 q 350 835 356 890 q 338 724 344 779 q 332 667 335 696 q 326 611 329 639 q 333 557 324 581 q 378 533 342 533 q 428 557 414 533 q 444 611 442 581 q 450 667 447 639 q 456 724 453 696 q 468 835 463 779 q 479 947 474 890 l 717 947 m 240 900 q 200 885 217 900 q 181 846 183 869 q 191 806 178 822 q 228 790 204 790 q 269 806 251 790 q 290 846 288 822 q 278 885 293 869 q 240 900 264 900 m 225 765 q 185 749 201 765 q 165 710 168 733 q 176 670 163 686 q 214 654 190 654 q 255 670 238 654 q 275 710 272 686 q 263 749 278 733 q 225 765 249 765 m 149 574 q 160 534 146 550 q 199 518 175 518 q 238 534 221 518 q 258 574 256 550 q 247 613 261 597 q 210 628 232 628 q 169 613 186 628 q 149 574 151 597 m 232 397 q 273 413 256 397 q 293 451 290 428 q 281 491 296 475 q 243 507 267 507 q 203 491 221 507 q 183 451 186 475 q 195 413 181 428 q 232 397 210 397 m 368 454 q 328 438 344 454 q 308 399 311 422 q 319 360 306 375 q 357 344 333 344 q 398 360 381 344 q 418 399 415 375 q 406 438 421 422 q 368 454 392 454 m 328 65 q 369 81 351 65 q 389 119 386 96 q 378 159 392 143 q 340 175 364 175 q 299 159 317 175 q 279 119 282 143 q 290 81 276 96 q 328 65 304 65 m 343 206 q 383 222 367 206 q 403 261 400 238 q 392 300 406 285 q 354 315 378 315 q 313 300 331 315 q 293 261 296 285 q 305 222 290 238 q 343 206 319 206 m 490 390 q 531 406 514 390 q 551 444 549 422 q 540 484 554 468 q 501 500 525 500 q 461 484 478 500 q 442 444 444 468 q 453 406 439 422 q 490 390 467 390 m 557 511 q 598 527 581 511 q 618 565 615 543 q 606 605 621 589 q 568 621 592 621 q 528 605 544 621 q 508 565 511 589 q 519 527 506 543 q 557 511 533 511 m 574 647 q 615 663 597 647 q 635 703 632 679 q 624 742 638 726 q 586 757 610 757 q 545 742 563 757 q 525 703 528 726 q 536 663 522 679 q 574 647 550 647 m 589 783 q 629 799 613 783 q 649 839 646 815 q 638 877 651 861 q 600 893 624 893 q 559 877 576 893 q 539 839 542 861 q 551 799 536 815 q 589 783 565 783 z "},"z":{"ha":688,"x_min":36,"x_max":756,"o":"m 731 711 l 349 236 l 681 236 l 657 0 l 36 0 l 60 236 l 442 711 l 110 711 l 135 947 l 756 947 l 731 711 m 281 818 q 277 860 288 842 q 244 881 267 878 q 206 872 225 885 q 181 835 186 858 q 184 794 174 813 q 217 772 194 775 q 256 782 238 769 q 281 818 275 794 m 419 822 q 415 863 426 844 q 383 885 404 881 q 344 874 363 888 q 318 839 325 861 q 323 797 313 815 q 354 776 333 779 q 394 785 375 772 q 419 822 413 799 m 442 838 q 445 796 435 814 q 478 775 456 778 q 517 784 499 771 q 543 821 536 797 q 539 862 550 843 q 507 883 528 881 q 467 873 486 886 q 442 838 447 860 m 224 114 q 219 154 229 136 q 188 176 208 172 q 147 166 165 179 q 121 131 128 153 q 126 89 115 107 q 158 67 138 71 q 198 77 179 64 q 224 114 217 90 m 211 196 q 251 206 232 193 q 276 242 269 218 q 272 283 283 265 q 242 304 261 301 q 200 294 219 307 q 175 258 181 282 q 179 217 168 236 q 211 196 190 199 m 508 135 q 512 93 501 111 q 544 72 522 75 q 584 81 565 68 q 608 118 603 94 q 605 159 615 140 q 572 181 594 178 q 533 170 551 183 q 508 135 514 157 m 383 131 q 388 89 376 107 q 419 67 399 71 q 459 77 440 64 q 485 114 478 90 q 481 154 492 136 q 449 176 469 172 q 409 166 428 179 q 383 131 390 153 m 354 113 q 349 153 360 135 q 318 175 339 171 q 278 165 297 178 q 253 129 258 151 q 257 88 246 106 q 289 67 268 69 q 328 76 310 63 q 354 113 347 89 m 365 350 q 361 390 372 372 q 329 413 350 408 q 289 402 308 415 q 264 367 269 389 q 268 325 257 343 q 301 304 279 307 q 340 313 321 300 q 365 350 360 326 m 451 464 q 444 505 457 488 q 408 525 432 522 q 367 514 386 528 q 344 476 349 500 q 350 435 338 453 q 386 415 363 418 q 427 427 408 413 q 451 464 446 442 m 531 575 q 526 617 538 599 q 494 638 515 635 q 455 628 474 642 q 429 592 436 615 q 433 551 422 569 q 467 529 444 532 q 506 540 486 526 q 531 575 525 553 m 621 690 q 616 732 626 714 q 583 753 606 750 q 544 744 563 757 q 518 707 525 731 q 524 667 513 685 q 554 644 535 649 q 595 655 576 642 q 621 690 614 668 m 675 821 q 669 862 681 843 q 638 883 658 881 q 598 873 617 886 q 572 838 579 860 q 577 796 567 814 q 608 775 588 778 q 649 784 631 771 q 675 821 668 797 z "},"D":{"ha":654,"x_min":35,"x_max":700,"o":"m 429 947 q 542 924 490 947 q 629 861 593 901 q 683 767 665 821 q 694 651 700 713 l 657 296 q 622 181 650 235 q 549 88 593 128 q 448 24 504 47 q 331 0 392 0 l 271 0 l 213 0 l 35 0 l 133 947 l 311 947 l 369 947 l 429 947 m 622 668 q 610 708 625 692 q 572 724 596 724 q 532 708 549 724 q 513 668 515 692 q 524 629 510 644 q 561 614 538 614 q 602 629 585 614 q 622 668 619 644 m 518 840 q 478 824 496 840 q 458 785 461 808 q 470 747 456 763 q 507 731 485 731 q 548 747 531 731 q 568 785 565 763 q 556 824 571 808 q 518 840 542 840 m 392 882 q 352 866 369 882 q 332 826 335 850 q 344 788 329 803 q 381 772 358 772 q 422 788 404 772 q 442 826 439 803 q 430 866 444 850 q 392 882 415 882 m 165 64 q 206 80 188 64 q 226 119 224 96 q 215 159 229 143 q 178 175 200 175 q 137 159 154 175 q 117 119 119 143 q 128 80 114 96 q 165 64 142 64 m 181 204 q 220 220 203 204 q 240 260 238 236 q 228 299 243 283 q 192 314 214 314 q 151 299 168 314 q 131 260 133 283 q 142 220 128 236 q 181 204 157 204 m 194 343 q 235 359 217 343 q 256 399 253 375 q 244 438 258 422 q 207 453 229 453 q 166 438 183 453 q 146 399 149 422 q 157 359 143 375 q 194 343 171 343 m 211 493 q 251 509 233 493 q 271 549 268 525 q 259 587 274 571 q 222 603 244 603 q 181 587 199 603 q 161 549 164 571 q 173 509 158 525 q 211 493 188 493 m 225 629 q 265 645 247 629 q 285 685 282 661 q 273 724 288 708 q 236 739 258 739 q 195 724 213 739 q 175 685 178 708 q 187 645 172 661 q 225 629 201 629 m 240 772 q 280 788 263 772 q 300 826 297 803 q 288 866 303 850 q 251 882 274 882 q 210 866 228 882 q 190 826 193 850 q 202 788 188 803 q 240 772 217 772 m 306 64 q 347 80 329 64 q 367 119 364 96 q 356 159 369 143 q 318 175 342 175 q 277 159 294 175 q 257 119 260 143 q 268 80 254 96 q 306 64 282 64 m 371 239 q 403 260 390 244 q 419 294 417 275 q 428 369 426 332 q 435 444 431 407 q 443 519 439 482 q 450 594 447 557 q 456 630 453 613 q 457 665 460 647 l 457 667 l 457 669 q 456 675 456 671 q 454 676 456 676 q 453 679 454 679 l 453 681 q 449 688 450 686 q 447 690 449 689 q 446 692 447 690 l 444 693 q 443 694 444 694 q 442 696 443 694 l 440 697 l 439 699 q 438 699 438 699 q 436 700 438 700 l 436 701 q 435 703 436 701 l 433 703 q 431 704 432 704 q 429 706 431 704 l 426 706 q 421 708 424 708 q 383 713 401 714 q 344 711 364 711 l 332 592 l 294 238 q 333 235 314 238 q 371 239 351 233 m 440 94 q 481 110 464 94 q 500 150 497 126 q 489 188 503 172 q 451 204 475 204 q 410 188 428 204 q 390 150 393 172 q 402 110 388 126 q 440 94 417 94 m 519 215 q 560 231 543 215 q 581 271 578 247 q 569 310 583 294 q 531 326 554 326 q 490 310 507 326 q 471 271 474 294 q 482 231 468 247 q 519 215 496 215 m 543 350 q 584 366 567 350 q 604 406 601 382 q 592 444 607 429 q 554 460 578 460 q 513 444 531 460 q 493 406 496 429 q 505 366 490 382 q 543 350 519 350 m 557 485 q 598 501 581 485 q 618 540 615 517 q 607 580 621 564 q 569 596 593 596 q 528 580 546 596 q 507 540 510 564 q 519 501 504 517 q 557 485 533 485 z "},"w":{"ha":1025,"x_min":60,"x_max":1085,"o":"m 1085 949 q 1052 622 1068 785 q 1017 294 1036 458 q 952 135 1006 203 q 824 31 899 67 q 667 1 750 -4 q 518 60 585 6 q 356 1 439 6 q 206 31 272 -4 q 99 135 139 67 q 69 294 60 203 q 103 622 85 458 q 138 949 121 785 l 375 949 l 344 653 q 341 623 342 638 q 338 593 340 608 q 329 510 333 551 q 321 428 325 469 l 308 315 q 314 261 306 285 q 358 238 322 238 q 409 261 394 238 q 426 315 424 285 l 439 428 q 449 522 444 475 q 458 617 453 568 l 463 653 l 493 949 l 729 949 l 699 653 l 692 593 q 683 510 688 551 q 675 428 679 469 l 663 315 q 669 261 660 285 q 714 238 678 238 q 765 261 750 238 q 782 315 779 285 l 794 428 q 804 522 800 475 q 814 617 808 568 q 816 634 815 625 q 818 653 817 643 l 849 949 l 1085 949 m 567 513 q 608 528 590 513 q 628 568 625 544 q 617 607 631 592 q 579 622 603 622 q 538 607 556 622 q 517 568 519 592 q 528 528 514 544 q 567 513 543 513 m 614 432 q 602 471 617 456 q 564 486 588 486 q 523 471 540 486 q 503 432 506 456 q 515 392 500 408 q 553 376 529 376 q 594 392 576 376 q 614 432 611 408 m 581 644 q 622 660 604 644 q 642 700 639 676 q 631 739 644 724 q 593 754 617 754 q 551 739 569 754 q 531 700 533 724 q 542 660 528 676 q 581 644 557 644 m 606 899 q 565 883 582 899 q 544 843 547 867 q 556 804 542 819 q 593 789 569 789 q 634 804 617 789 q 654 843 651 819 q 643 883 657 867 q 606 899 629 899 m 547 350 q 507 334 524 350 q 488 294 490 318 q 499 256 485 272 q 536 240 513 240 q 577 256 560 240 q 597 294 594 272 q 585 334 600 318 q 547 350 571 350 m 206 513 q 247 528 229 513 q 267 568 264 544 q 256 607 269 592 q 218 622 242 622 q 176 607 194 622 q 156 568 158 592 q 167 528 153 544 q 206 513 182 513 m 253 432 q 241 471 256 456 q 203 486 226 486 q 162 471 179 486 q 142 432 144 456 q 153 392 139 408 q 192 376 168 376 q 233 392 215 376 q 253 432 250 408 m 219 647 q 261 663 243 647 q 282 701 279 679 q 270 741 285 725 q 232 757 256 757 q 191 741 208 757 q 171 701 174 725 q 182 663 168 679 q 219 647 196 647 m 244 899 q 203 883 221 899 q 183 843 186 867 q 194 804 181 819 q 232 789 208 789 q 273 804 256 789 q 293 843 290 819 q 282 883 296 867 q 244 899 268 899 m 128 297 q 140 258 125 274 q 178 242 154 242 q 219 258 201 242 q 239 297 236 274 q 227 337 242 321 q 189 353 213 353 q 148 337 165 353 q 128 297 131 321 m 196 118 q 238 134 219 118 q 258 172 256 150 q 247 212 261 196 q 208 228 232 228 q 168 212 185 228 q 149 172 151 196 q 159 134 146 150 q 196 118 172 118 m 310 60 q 350 76 333 60 q 369 115 367 92 q 358 155 372 139 q 321 171 344 171 q 280 155 297 171 q 260 115 263 139 q 272 76 257 92 q 310 60 286 60 m 439 100 q 478 115 461 100 q 499 154 496 131 q 487 194 501 178 q 450 210 472 210 q 409 194 426 210 q 389 154 392 178 q 401 115 386 131 q 439 100 415 100 m 569 118 q 611 134 593 118 q 632 174 629 150 q 620 213 635 197 q 582 229 606 229 q 542 213 558 229 q 522 174 525 197 q 533 134 519 150 q 569 118 546 118 m 696 68 q 737 84 719 68 q 757 124 754 100 q 745 163 760 147 q 707 178 731 178 q 666 163 683 178 q 646 124 649 147 q 658 84 643 100 q 696 68 672 68 m 965 892 q 925 876 942 892 q 906 836 908 860 q 917 797 903 813 q 954 781 931 781 q 995 797 978 781 q 1015 836 1013 813 q 1003 876 1018 860 q 965 892 989 892 m 950 751 q 910 736 926 751 q 890 697 893 721 q 901 658 888 674 q 939 642 915 642 q 980 658 963 642 q 1000 697 997 674 q 988 736 1003 721 q 950 751 974 751 m 829 113 q 870 128 853 113 q 890 167 888 143 q 878 206 893 190 q 840 222 864 222 q 800 206 817 222 q 781 167 783 190 q 792 128 778 143 q 829 113 806 113 m 896 233 q 937 249 919 233 q 957 288 954 264 q 945 327 960 311 q 907 343 931 343 q 867 327 883 343 q 847 288 850 311 q 858 249 844 264 q 896 233 872 233 m 913 369 q 953 385 936 369 q 974 425 971 401 q 963 463 976 447 q 925 479 949 479 q 884 463 901 479 q 864 425 867 447 q 875 385 861 401 q 913 369 889 369 m 928 506 q 968 522 951 506 q 988 561 985 538 q 976 599 990 583 q 939 615 963 615 q 898 599 915 615 q 878 561 881 583 q 890 522 875 538 q 928 506 904 506 z "},"B":{"ha":654,"x_min":35,"x_max":704,"o":"m 429 947 q 585 901 521 947 q 676 784 649 854 q 691 631 704 714 q 615 474 678 547 q 658 317 663 400 q 612 164 654 235 q 496 47 569 93 q 331 0 422 0 l 271 0 l 211 0 l 35 0 l 133 947 l 310 947 l 369 947 l 429 947 m 160 72 q 201 88 183 72 q 221 126 218 103 q 209 166 224 150 q 171 182 194 182 q 131 166 147 182 q 111 126 114 150 q 122 88 108 103 q 160 72 136 72 m 174 211 q 215 227 197 211 q 236 267 233 243 q 224 306 239 290 q 186 321 210 321 q 146 306 163 321 q 126 267 129 290 q 137 227 124 243 q 174 211 150 211 m 189 353 q 230 369 213 353 q 250 407 247 385 q 238 447 253 431 q 200 463 224 463 q 160 447 176 463 q 140 407 143 431 q 151 369 138 385 q 189 353 165 353 m 204 490 q 245 506 228 490 q 265 546 263 522 q 253 585 268 569 q 215 601 239 601 q 175 585 192 601 q 156 546 158 569 q 167 506 153 522 q 204 490 181 490 m 219 636 q 260 652 243 636 q 281 692 278 668 q 269 731 283 715 q 231 747 254 747 q 190 731 207 747 q 171 692 174 715 q 182 652 168 668 q 219 636 196 636 m 233 779 q 275 794 257 779 q 296 833 293 810 q 284 873 299 857 q 246 889 269 889 q 206 873 222 889 q 186 833 189 857 q 197 794 183 810 q 233 779 210 779 m 400 485 q 412 447 397 463 q 449 431 426 431 q 490 447 472 431 q 510 485 507 463 q 498 524 513 508 q 460 540 483 540 q 420 524 438 540 q 400 485 403 508 m 419 296 q 406 338 422 321 q 367 356 390 356 l 307 356 l 294 238 l 354 238 q 397 255 378 238 q 419 296 417 272 m 392 593 q 435 610 415 593 q 457 651 454 628 q 444 694 460 676 q 404 711 428 711 l 344 711 l 332 593 l 392 593 m 529 435 q 489 419 506 435 q 469 381 472 403 q 481 341 467 357 q 518 325 494 325 q 559 341 542 325 q 579 381 576 357 q 567 419 582 403 q 529 435 553 435 m 563 538 q 603 553 586 538 q 624 593 621 569 q 612 631 626 615 q 574 647 597 647 q 533 631 550 647 q 514 593 517 615 q 525 553 511 569 q 563 538 539 538 m 631 726 q 619 766 633 750 q 582 782 606 782 q 542 766 560 782 q 521 726 524 750 q 533 688 518 703 q 569 672 547 672 q 610 688 593 672 q 631 726 628 703 m 506 881 q 465 865 482 881 q 444 825 447 849 q 456 786 442 801 q 494 771 471 771 q 535 786 518 771 q 556 825 553 801 q 544 865 558 849 q 506 881 529 881 m 378 888 q 337 872 354 888 q 317 832 319 856 q 328 793 314 808 q 365 778 342 778 q 406 793 389 778 q 426 832 424 808 q 415 872 429 856 q 378 888 401 888 m 332 539 q 291 523 308 539 q 271 483 274 507 q 283 444 268 460 q 321 429 297 429 q 360 444 343 429 q 381 483 378 460 q 369 523 383 507 q 332 539 354 539 m 296 69 q 337 85 319 69 q 357 125 354 101 q 345 163 360 147 q 307 179 331 179 q 267 163 285 179 q 247 125 250 147 q 259 85 244 101 q 296 69 274 69 m 429 90 q 471 106 453 90 q 492 146 489 122 q 480 185 494 169 q 442 200 465 200 q 401 185 418 200 q 381 146 383 169 q 392 106 378 122 q 429 90 406 90 m 596 251 q 584 290 599 275 q 546 306 569 306 q 506 290 522 306 q 486 251 489 275 q 497 212 483 228 q 533 196 510 196 q 575 212 557 196 q 596 251 593 228 z "},"C":{"ha":654,"x_min":61,"x_max":701,"o":"m 651 297 l 656 297 q 608 160 647 222 q 510 59 568 99 q 381 6 451 19 q 243 14 311 -8 q 131 83 176 35 q 71 200 86 132 q 63 267 61 233 q 68 336 64 300 q 75 405 71 371 q 82 475 79 439 q 90 544 86 510 q 97 613 93 578 q 106 682 100 649 q 128 750 113 715 q 213 865 158 817 q 339 935 268 914 q 480 944 413 957 q 597 890 547 931 q 674 788 647 850 q 693 651 701 726 l 457 651 q 444 692 460 675 q 404 711 428 710 q 362 697 381 713 q 338 657 343 681 q 327 565 331 611 q 318 475 324 519 q 308 383 314 429 q 300 293 301 338 q 315 253 299 269 q 354 238 331 236 q 398 256 379 239 q 419 297 417 274 l 651 297 m 560 819 q 519 804 536 819 q 499 765 501 789 q 510 726 496 742 q 547 710 524 710 q 588 726 571 710 q 608 765 606 742 q 597 804 611 789 q 560 819 583 819 m 433 878 q 392 862 410 878 q 372 822 375 846 q 384 783 369 799 q 422 767 399 767 q 463 783 446 767 q 483 822 481 799 q 472 862 486 846 q 433 878 457 878 m 300 833 q 258 817 276 833 q 238 779 240 801 q 249 740 235 756 q 288 724 264 724 q 328 740 311 724 q 349 779 346 756 q 338 817 351 801 q 300 833 324 833 m 232 713 q 191 697 208 713 q 171 658 174 681 q 183 619 168 635 q 221 603 197 603 q 262 619 244 603 q 282 658 279 635 q 270 697 285 681 q 232 713 256 713 m 215 576 q 175 560 192 576 q 156 521 158 544 q 167 482 153 497 q 204 467 181 467 q 245 482 228 467 q 265 521 263 497 q 253 560 268 544 q 215 576 239 576 m 201 440 q 161 424 178 440 q 142 385 144 408 q 153 346 139 361 q 190 331 167 331 q 231 346 214 331 q 251 385 249 361 q 240 424 254 408 q 201 440 225 440 m 135 253 q 145 213 132 229 q 182 197 158 197 q 224 213 206 197 q 244 253 242 229 q 233 291 247 275 q 194 307 218 307 q 154 291 171 307 q 135 253 138 275 m 249 90 q 290 106 272 90 q 311 146 308 122 q 299 184 314 168 q 261 200 285 200 q 222 184 239 200 q 201 146 204 168 q 213 106 199 122 q 249 90 226 90 m 378 67 q 419 83 401 67 q 439 122 436 99 q 427 162 442 146 q 389 178 413 178 q 349 162 367 178 q 329 122 332 146 q 341 83 326 99 q 378 67 356 67 m 497 149 q 538 165 521 149 q 558 204 556 181 q 547 243 561 228 q 508 258 532 258 q 467 243 485 258 q 447 204 450 228 q 459 165 444 181 q 497 149 474 149 z "},"A":{"ha":654,"x_min":33,"x_max":694,"o":"m 661 814 q 684 759 676 786 q 693 704 692 732 q 692 648 694 676 q 688 589 690 619 q 683 547 685 568 q 679 503 682 525 l 663 354 l 626 0 l 389 0 l 413 236 l 294 236 l 271 0 l 33 0 q 57 235 44 118 q 82 469 69 351 q 87 516 83 483 q 94 586 90 549 q 103 656 99 624 q 111 703 107 689 q 166 812 129 763 q 256 896 203 861 q 369 942 310 931 q 484 942 429 953 q 585 898 539 931 q 661 814 632 865 m 632 658 q 621 698 635 682 q 583 714 607 714 q 542 698 560 714 q 522 658 525 682 q 533 620 519 636 q 571 604 547 604 q 612 620 594 604 q 632 658 629 636 m 542 831 q 501 815 518 831 q 481 775 483 799 q 492 735 478 751 q 531 719 507 719 q 570 735 553 719 q 590 775 588 751 q 578 815 593 799 q 542 831 564 831 m 424 876 q 383 860 400 876 q 363 821 365 844 q 374 781 360 797 q 411 765 388 765 q 453 781 435 765 q 474 821 471 797 q 462 860 476 844 q 424 876 447 876 m 347 675 q 336 642 336 658 q 335 608 336 625 q 327 541 331 575 q 319 474 324 507 l 438 474 q 445 541 442 507 q 453 608 449 575 q 458 642 454 625 q 454 675 461 658 q 435 702 447 694 q 403 710 424 710 q 347 675 364 710 m 296 832 q 255 816 272 832 q 235 778 238 800 q 247 738 232 754 q 285 722 261 722 q 325 738 308 722 q 344 778 342 754 q 333 816 347 800 q 296 832 319 832 m 231 714 q 189 698 207 714 q 168 658 171 682 q 180 619 165 635 q 218 604 194 604 q 258 619 242 604 q 278 658 275 635 q 267 698 281 682 q 231 714 254 714 m 215 576 q 174 561 192 576 q 154 522 157 546 q 166 483 151 499 q 204 467 181 467 q 244 483 228 467 q 264 522 261 499 q 253 561 267 546 q 215 576 239 576 m 199 442 q 158 426 175 442 q 139 386 142 410 q 150 347 136 363 q 188 331 164 331 q 228 347 211 331 q 249 386 246 363 q 237 426 251 410 q 199 442 222 442 m 164 58 q 203 74 186 58 q 224 113 221 89 q 212 152 226 136 q 175 168 197 168 q 134 152 151 168 q 114 113 117 136 q 126 74 111 89 q 164 58 140 58 m 179 190 q 220 206 203 190 q 240 244 238 221 q 228 284 243 268 q 190 300 214 300 q 150 284 167 300 q 131 244 133 268 q 142 206 128 221 q 179 190 156 190 m 299 281 q 339 297 322 281 q 358 336 356 313 q 347 374 361 358 q 310 390 333 390 q 269 374 286 390 q 249 336 251 358 q 260 297 246 313 q 299 281 275 281 m 424 281 q 463 297 446 281 q 483 336 481 313 q 472 374 486 358 q 435 390 457 390 q 394 374 411 390 q 374 336 376 358 q 385 297 371 313 q 424 281 400 281 m 511 65 q 553 81 535 65 q 574 119 571 96 q 562 159 576 143 q 524 175 547 175 q 484 159 501 175 q 464 119 467 143 q 475 81 461 96 q 511 65 489 65 m 525 197 q 567 213 549 197 q 588 253 585 229 q 576 291 590 275 q 538 307 561 307 q 498 291 515 307 q 478 253 481 275 q 489 213 475 229 q 525 197 503 197 m 546 333 q 586 349 569 333 q 606 389 603 365 q 594 428 608 413 q 557 443 581 443 q 516 428 533 443 q 496 389 499 413 q 508 349 493 365 q 546 333 522 333 m 560 469 q 600 485 583 469 q 619 525 617 501 q 608 564 622 549 q 571 579 594 579 q 530 564 547 579 q 510 525 513 549 q 522 485 507 501 q 560 469 536 469 z "}}}
